<?xml version="1.0" standalone="no"?>
<!DOCTYPE svg PUBLIC "-//W3C//DTD SVG 1.1//EN" "http://www.w3.org/Graphics/SVG/1.1/DTD/svg11.dtd" >
<svg xmlns="http://www.w3.org/2000/svg" xmlns:xlink="http://www.w3.org/1999/xlink" version="1.1">
<metadata>
Created by FontForge 20170731 at Fri Oct 16 12:01:32 2020
 By Aleksey,,,
Copyright (c) Olivier Gourvat - Mostardesign Studio, 2014. All rights reserved.
</metadata>
<defs>
<font id="FilsonProBook-Book" horiz-adv-x="1320" >
  <font-face 
    font-family="FilsonProBook"
    font-weight="400"
    font-stretch="normal"
    units-per-em="2048"
    panose-1="2 0 5 3 0 0 0 0 0 0"
    ascent="1638"
    descent="-410"
    x-height="1020"
    cap-height="1434"
    bbox="-186 -494 2032 1851"
    underline-thickness="102"
    underline-position="-409"
    unicode-range="U+0020-FB02"
  />
<missing-glyph horiz-adv-x="1378" 
d="M1174 0h-969v1436h969v-1436zM582 526h123q0 64 24 82q11 4 70 43q72 54 84 66q104 104 104 215q0 120 -89 193t-226 73q-141 0 -221 -67t-80 -160q0 -53 18 -94h129q-16 40 -16 90q0 51 44.5 83.5t117.5 32.5q86 0 135 -41t49 -110v-4q0 -65 -40.5 -113.5t-137.5 -107.5
q-64 -37 -76 -64t-12 -117zM545 295q0 -43 28.5 -71.5t69.5 -28.5q43 0 72.5 28.5t29.5 71.5q0 41 -29.5 70.5t-72.5 29.5q-41 0 -69.5 -29.5t-28.5 -70.5z" />
    <glyph glyph-name=".notdef" horiz-adv-x="1378" 
d="M1174 0h-969v1436h969v-1436zM582 526h123q0 64 24 82q11 4 70 43q72 54 84 66q104 104 104 215q0 120 -89 193t-226 73q-141 0 -221 -67t-80 -160q0 -53 18 -94h129q-16 40 -16 90q0 51 44.5 83.5t117.5 32.5q86 0 135 -41t49 -110v-4q0 -65 -40.5 -113.5t-137.5 -107.5
q-64 -37 -76 -64t-12 -117zM545 295q0 -43 28.5 -71.5t69.5 -28.5q43 0 72.5 28.5t29.5 71.5q0 41 -29.5 70.5t-72.5 29.5q-41 0 -69.5 -29.5t-28.5 -70.5z" />
    <glyph glyph-name=".null" horiz-adv-x="0" 
 />
    <glyph glyph-name="nonmarkingreturn" horiz-adv-x="681" 
 />
    <glyph glyph-name="space" unicode=" " horiz-adv-x="557" 
 />
    <glyph glyph-name="exclam" unicode="!" horiz-adv-x="495" 
d="M129 96q0 51 35 87t86 36t86 -36t35 -87q0 -50 -35 -84.5t-86 -34.5t-86 34.5t-35 84.5zM332 1182l-35 -748h-100l-35 748v252h170v-252z" />
    <glyph glyph-name="dollar" unicode="$" horiz-adv-x="1089" 
d="M602 45v-205h-98v205q-163 10 -278.5 94t-151.5 209q56 14 137 39q24 -82 102.5 -139.5t190.5 -67.5v494l-74 24q-299 99 -299 336q0 150 104.5 247.5t268.5 111.5v217h98v-219q140 -12 237 -90.5t126 -200.5l-131 -41q-44 173 -232 194v-465q397 -123 397 -374
q0 -153 -108.5 -254.5t-288.5 -114.5zM639 627l-37 12v-457q111 12 177.5 73.5t66.5 150.5q0 153 -207 221zM283 1042q0 -142 190 -206l31 -11v430q-99 -12 -160 -69.5t-61 -143.5z" />
    <glyph glyph-name="ampersand" unicode="&#x26;" horiz-adv-x="1626" 
d="M934 311l-350 404q-141 -51 -242 -135q-102 -88 -102 -207q0 -120 98 -193q100 -74 240 -74q99 0 197.5 57t158.5 148zM1110 111l-86 98q-73 -106 -195 -169t-251 -63q-213 0 -351 105q-141 105 -141 285q0 277 414 450q-85 70 -137 157t-52 169q0 163 105 239
q106 74 243 74q166 0 263.5 -85t97.5 -216q0 -109 -94 -213q-95 -108 -219 -160l309 -352l205 281h159v-13l-274 -368l119 -135q80 -80 168 -80q102 0 157 49q8 -12 28 -55t26 -54q-84 -78 -215 -78q-84 0 -146 31.5t-133 102.5zM625 872q114 55 178.5 130t64.5 149
q0 79 -56 131.5t-155 52.5q-82 0 -138 -52.5t-56 -145.5q0 -116 162 -265z" />
    <glyph glyph-name="parenright" unicode=")" horiz-adv-x="616" 
d="M520 580q0 -140 -27.5 -281.5t-70.5 -249.5q-48 -116 -98 -201q-84 -145 -181 -245l-100 61q322 424 322 911q0 492 -322 916l100 61q113 -123 230 -335q68 -128 107.5 -295.5t39.5 -341.5z" />
    <glyph glyph-name="comma" unicode="," horiz-adv-x="512" 
d="M145 -258l-32 59q157 68 157 244q-19 -8 -45 -8q-38 0 -64 27.5t-26 64.5q0 49 30.5 79t86.5 30q59 0 91 -47.5t32 -110.5q0 -110 -59 -203t-171 -135z" />
    <glyph glyph-name="hyphen" unicode="-" horiz-adv-x="929" 
d="M786 553h-643v137h643v-137z" />
    <glyph glyph-name="period" unicode="." horiz-adv-x="483" 
d="M162 10q-32 32 -32 80t32 80t80 32t80 -32t32 -80t-32 -80t-80 -32t-80 32z" />
    <glyph glyph-name="zero" unicode="0" horiz-adv-x="1447" 
d="M1167 1245q168 -210 168 -528q0 -317 -168 -527q-171 -213 -444 -213q-274 0 -442 213q-168 210 -168 527q0 318 168 528q166 211 442 211q275 0 444 -211zM1180 717q0 257 -123 430q-126 172 -334 172q-207 0 -330 -172q-125 -171 -125 -430q0 -257 125 -428
q122 -174 330 -174q207 0 332 174q125 171 125 428z" />
    <glyph glyph-name="one" unicode="1" horiz-adv-x="737" 
d="M420 1243l-344 -156l-39 132l459 215h79v-1434h-155v1243z" />
    <glyph glyph-name="two" unicode="2" horiz-adv-x="1232" 
d="M821 555l-475 -424v-8q68 8 385 8h412v-131h-1018l-21 104l609 549q110 98 162.5 184t52.5 185q0 135 -93.5 215t-246.5 80q-158 0 -238.5 -67.5t-87.5 -174.5h-158q0 131 105 248q55 62 154 97.5t225 35.5q228 0 362.5 -116t134.5 -314q0 -139 -64 -246t-200 -225z" />
    <glyph glyph-name="three" unicode="3" horiz-adv-x="1232" 
d="M555 117q195 0 303 102q109 103 109 238q0 140 -103 229q-103 86 -254 86q-143 0 -219 -61q-12 12 -33 41q-18 23 -43 53l512 498h-696v131h942v-97l-479 -446v-2q10 2 47 2q201 0 342 -117t141 -315q0 -208 -151 -344q-150 -138 -418 -138q-304 0 -473 152q21 21 90 102
q84 -62 171.5 -88t211.5 -26z" />
    <glyph glyph-name="four" unicode="4" horiz-adv-x="1376" 
d="M840 1174l-590 -644h590v644zM840 0v397h-789v105l848 932h96v-904h322v-133h-322v-397h-155z" />
    <glyph glyph-name="five" unicode="5" horiz-adv-x="1222" 
d="M106 129l91 102q55 -44 172 -79q116 -35 221 -35q187 0 287 100q102 102 102 246q0 138 -96 242q-94 98 -277 98q-188 0 -338 -111l-125 56l45 686h836v-131h-696l-37 -467q141 106 346 106q226 0 364 -141q136 -145 136 -344q0 -206 -148 -342q-147 -138 -405 -138
q-141 0 -270.5 43t-207.5 109z" />
    <glyph glyph-name="six" unicode="6" horiz-adv-x="1282" 
d="M311 434q13 -141 116.5 -229t252.5 -88q150 0 256 92q104 91 104 240q0 148 -104 239q-106 92 -254 92q-155 0 -268 -98q-115 -100 -103 -248zM272 684l4 8q65 113 177.5 171.5t244.5 58.5q204 0 353 -134q147 -132 147 -342q0 -204 -145 -337q-144 -132 -369 -132
q-268 0 -418 193q-151 195 -151 514q0 336 161 553q160 219 439 219q114 0 213.5 -39t158.5 -102l-104 -94q-86 92 -272 92q-206 -3 -322 -180q-117 -181 -117 -449z" />
    <glyph glyph-name="seven" unicode="7" horiz-adv-x="1097" 
d="M903 1303h-842v131h1012v-113l-737 -1321h-170z" />
    <glyph glyph-name="eight" unicode="8" horiz-adv-x="1351" 
d="M381 201q116 -84 295 -84t295 84q114 83 114 213q0 118 -100.5 192t-284.5 84h-55q-181 -7 -280 -82.5t-99 -195.5q0 -128 115 -211zM1083 102q-162 -125 -407 -125q-248 0 -406 125q-161 124 -161 310q0 117 81 213.5t216 140.5q-108 43 -172 125.5t-64 179.5
q0 165 143 275t363 110q219 0 362 -110q142 -112 142 -275q0 -96 -65 -180t-171 -127q135 -43 217 -138t82 -212q0 -185 -160 -312zM676 1317q-154 0 -251 -69.5t-97 -176.5q0 -103 86 -180q83 -80 235 -80h49q149 0 238 80q86 80 86 180q0 107 -96.5 176.5t-249.5 69.5z
" />
    <glyph glyph-name="nine" unicode="9" horiz-adv-x="1282" 
d="M971 999q-13 142 -116.5 230t-252.5 88q-150 0 -256 -92q-104 -91 -104 -240t104 -240q106 -92 254 -92q156 0 270 99q113 98 101 247zM1010 750l-4 -9q-65 -113 -177 -171t-245 -58q-205 0 -353 133q-147 132 -147 342q0 205 145 338q143 131 369 131q269 0 418 -192
q151 -195 151 -514q0 -334 -159 -551q-165 -222 -441 -222q-114 0 -213.5 39.5t-158.5 102.5l104 94q86 -92 272 -92q207 3 322 182q117 178 117 447z" />
    <glyph glyph-name="question" unicode="?" horiz-adv-x="1064" 
d="M545 434h-144v98q5 61 28 92.5t97 75.5q155 91 226 173t71 190q0 117 -86 186.5t-227 69.5q-134 0 -209.5 -57.5t-75.5 -151.5q0 -30 8 -66h-141q-14 35 -14 86q0 123 110 224q111 102 328 102q204 0 336 -106q133 -109 133 -283q-11 -203 -174 -334q-85 -70 -176 -125
q-16 -10 -26.5 -17t-21 -13.5t-16 -13.5t-11 -11t-8 -13.5t-4.5 -13.5t-2.5 -17.5t-1 -19t0 -25.5t0.5 -30zM352 96q0 51 35 87t86 36t86 -36t35 -87q0 -50 -35 -84.5t-86 -34.5t-86 34.5t-35 84.5z" />
    <glyph glyph-name="at" unicode="@" horiz-adv-x="2144" 
d="M1348 225l-11 4q-44 -87 -139 -140.5t-201 -53.5q-196 0 -317 133t-121 324q0 192 121 325q119 131 317 131q106 0 201 -53.5t139 -140.5v172h138v-717q0 -71 37 -110.5t96 -39.5q141 5 219 132.5t78 377.5q0 348 -230 572q-232 221 -600 221q-366 0 -608 -248t-242 -622
q0 -373 228 -619q225 -246 585 -246q240 0 414 76l29 -53q13 -33 26 -51q-206 -93 -469 -93q-417 0 -678 279q-260 278 -260 707q0 425 277 708q278 281 698 281q429 0 692 -254q265 -256 265 -658q0 -312 -111 -465t-315 -153q-130 0 -194 71.5t-64 202.5zM782 731
q-86 -95 -86 -239q0 -145 86 -240q84 -96 232 -96q145 0 233 94q90 96 90 237q0 150 -89 245t-234 95q-148 0 -232 -96z" />
    <glyph glyph-name="A" unicode="A" horiz-adv-x="1376" 
d="M688 1280l-328 -842h656zM1184 0l-119 307h-752l-118 -307h-166l565 1434h188l566 -1434h-164z" />
    <glyph glyph-name="B" unicode="B" horiz-adv-x="1341" 
d="M1169 1071q0 -125 -73 -215.5t-211 -124.5q167 -20 261.5 -119t94.5 -243q0 -166 -127 -269q-126 -100 -336 -100h-567v1434h500q197 0 329 -97q129 -99 129 -266zM674 657h-305v-526h409q134 0 217.5 66t83.5 176q0 127 -106 205.5t-299 78.5zM369 1303v-521h260
q183 0 281 78t98 201q0 113 -83 177.5t-214 64.5h-342z" />
    <glyph glyph-name="C" unicode="C" horiz-adv-x="1409" 
d="M311 193q-211 211 -211 524q0 312 211 526q210 213 563 213q264 0 469 -153l-61 -119q-176 129 -416 129q-275 0 -438 -172q-166 -175 -166 -424q0 -252 166 -424t440 -172q240 0 414 127l61 -121q-205 -150 -466 -150q-353 0 -566 216z" />
    <glyph glyph-name="D" unicode="D" horiz-adv-x="1484" 
d="M1065 299q158 172 158 418t-158 418q-158 168 -426 168h-270v-1172h270q268 0 426 168zM1182 1229q200 -206 200 -512q0 -304 -200 -510q-204 -207 -543 -207h-428v1434h428q341 0 543 -205z" />
    <glyph glyph-name="E" unicode="E" horiz-adv-x="1206" 
d="M369 131h733v-131h-891v1434h891v-131h-733v-535h641v-133h-641v-504z" />
    <glyph glyph-name="F" unicode="F" horiz-adv-x="1183" 
d="M369 637v-637h-158v1434h891v-131h-733v-535h641v-131h-641z" />
    <glyph glyph-name="G" unicode="G" horiz-adv-x="1507" 
d="M889 1313q-126 0 -232 -35t-177.5 -94t-121.5 -137t-73 -162t-23 -172q0 -241 166 -416q164 -176 446 -176q220 0 369 110v334h-414v133h557v-530q-212 -191 -522 -191q-328 0 -547 216q-217 211 -217 522q0 312 219 528q219 213 549 213q292 0 486 -147l-62 -123
q-192 127 -403 127z" />
    <glyph glyph-name="H" unicode="H" horiz-adv-x="1474" 
d="M1106 0v616h-737v-616h-158v1434h158v-686h737v686h158v-1434h-158z" />
    <glyph glyph-name="I" unicode="I" horiz-adv-x="579" 
d="M211 1434h158v-1434h-158v1434z" />
    <glyph glyph-name="J" unicode="J" horiz-adv-x="1370" 
d="M1028 1434h158v-785q0 -324 -151 -498t-429 -174q-268 0 -403 150q-135 147 -135 362q0 100 34 164h156q-33 -73 -33 -155q0 -158 97 -269q94 -108 282 -108q204 0 314 138t110 390v785z" />
    <glyph glyph-name="K" unicode="K" horiz-adv-x="1275" 
d="M367 1434v-717l548 717h177v-13l-574 -743l207 -260q3 -3 8 -9.5t16 -20.5t21 -26q34 -46 49 -61q12 -17 45.5 -53t53.5 -53q101 -87 159 -78q90 0 158 53l61 -113q-39 -36 -107 -58t-126 -22q-135 0 -234 89q-49 43 -77 75q-19 22 -72 88l-313 402v-631h-158v1434h158z
" />
    <glyph glyph-name="L" unicode="L" horiz-adv-x="1071" 
d="M369 131h671v-131h-829v1434h158v-1303z" />
    <glyph glyph-name="M" unicode="M" horiz-adv-x="1976" 
d="M1051 18h-125l-510 1184l-107 -1202h-162l136 1434h184l522 -1209l520 1209h187l133 -1434h-162l-106 1202z" />
    <glyph glyph-name="N" unicode="N" horiz-adv-x="1546" 
d="M1335 0h-118l-848 1149v-1149h-158v1434h121l846 -1145v1145h157v-1434z" />
    <glyph glyph-name="O" unicode="O" horiz-adv-x="1687" 
d="M319 195q-219 219 -219 522t219 522q217 217 525 217q309 0 526 -217t217 -522t-217 -522q-218 -218 -526 -218q-307 0 -525 218zM434 1141q-172 -175 -172 -424q0 -250 172 -422q168 -174 410 -174q243 0 411 174q170 173 170 422q0 248 -170 424q-169 172 -411 172
q-241 0 -410 -172z" />
    <glyph glyph-name="P" unicode="P" horiz-adv-x="1265" 
d="M369 559v-559h-158v1434h559q190 0 305 -127q113 -128 113 -316q0 -185 -113 -307q-113 -125 -305 -125h-401zM369 1303v-613h370q132 0 209.5 84t77.5 219q0 137 -78 223.5t-209 86.5h-370z" />
    <glyph glyph-name="Q" unicode="Q" horiz-adv-x="1687" 
d="M432 1141q-170 -176 -170 -424t170 -424q168 -174 412 -174q243 0 411 174q170 176 170 424t-170 424q-169 172 -411 172q-243 0 -412 -172zM948 -12q64 -242 295 -242q39 0 93.5 17t86.5 40l60 -114q-104 -76 -246 -76q-105 0 -188.5 33.5t-133.5 93.5q-84 102 -120 242
q-290 15 -492 229q-203 212 -203 506q0 303 219 522q217 217 525 217q309 0 526 -217t217 -522q0 -280 -182 -486q-185 -209 -457 -243z" />
    <glyph glyph-name="R" unicode="R" horiz-adv-x="1388" 
d="M367 559v-559h-158v1434h588q191 0 305 -129q112 -127 112 -314q0 -169 -93 -286t-255 -140q3 -52 16.5 -110.5t39.5 -119.5t60 -110t83.5 -80.5t105.5 -31.5q91 0 162 59q27 -56 58 -111q-90 -84 -228 -84q-113 0 -202.5 62t-141.5 164q-91 180 -104 356h-348zM367 1303
v-613h399q130 0 208.5 84t78.5 219q0 136 -79 223t-208 87h-399z" />
    <glyph glyph-name="S" unicode="S" horiz-adv-x="1177" 
d="M594 1313q-126 0 -209.5 -66t-83.5 -174q0 -153 211 -229l231 -82q158 -49 252.5 -152.5t94.5 -226.5q0 -177 -138 -291q-139 -115 -358 -115q-196 0 -335 93.5t-183 240.5l149 39q30 -97 131 -163t236 -66q152 0 244 71t92 181q0 88 -64 153t-170 99l-231 77
q-324 105 -324 367q0 173 135 281q130 106 322 106q176 0 291.5 -86.5t148.5 -234.5l-143 -43q-53 221 -299 221z" />
    <glyph glyph-name="T" unicode="T" horiz-adv-x="1228" 
d="M35 1303v131h1159v-131h-502v-1303h-157v1303h-500z" />
    <glyph glyph-name="U" unicode="U" horiz-adv-x="1497" 
d="M1149 524v910h158v-910q0 -258 -160 -403q-159 -144 -397 -144q-241 0 -400 144q-160 145 -160 403v910h158v-910q0 -193 115 -299q113 -104 287 -104q173 0 286 104t113 299z" />
    <glyph glyph-name="V" unicode="V" horiz-adv-x="1302" 
d="M1243 1434l-512 -1434h-162l-510 1434h162l430 -1235l428 1235h164z" />
    <glyph glyph-name="W" unicode="W" horiz-adv-x="2033" 
d="M950 1386h133l353 -1126l372 1174h160l-452 -1434h-144l-354 1145l-356 -1145h-144l-452 1434h159l373 -1174z" />
    <glyph glyph-name="X" unicode="X" horiz-adv-x="1396" 
d="M1204 0l-506 625l-505 -625h-185v12l598 740l-545 669v13h179l458 -564l459 564h178v-13l-544 -669l598 -740v-12h-185z" />
    <glyph glyph-name="Y" unicode="Y" horiz-adv-x="1345" 
d="M229 1434l443 -705h2l442 705h176v-13l-540 -829v-592h-158v592l-541 829v13h176z" />
    <glyph glyph-name="Z" unicode="Z" horiz-adv-x="1296" 
d="M264 131h971v-131h-1176v123l920 1180h-866v131h1075v-125z" />
    <glyph glyph-name="a" unicode="a" 
d="M1001 1020h154v-1020h-154v203q-133 -226 -405 -226q-228 0 -367 154q-141 153 -141 379t141 379q138 153 367 153q273 0 405 -225v203zM242 510q0 -169 100 -281q102 -114 268 -114q168 0 281 110t113 285t-113 285t-281 110t-268 -112t-100 -283z" />
    <glyph glyph-name="b" unicode="b" 
d="M319 0h-153v1481h153v-664q132 225 406 225q228 0 369 -153q139 -154 139 -379t-139 -379q-142 -154 -369 -154q-273 0 -406 226v-203zM1079 510q0 171 -100 283t-268 112q-166 0 -279 -110q-115 -112 -115 -285t115 -285q113 -110 279 -110t268 114q100 112 100 281z
" />
    <glyph glyph-name="c" unicode="c" horiz-adv-x="1087" 
d="M254 123q-166 138 -166 387q0 248 166 389q166 140 410 143q194 0 360 -120l-74 -107q-122 90 -282 90q-190 0 -306 -110q-117 -111 -120 -285q3 -175 120 -283q115 -112 306 -112q160 0 282 90l74 -107q-168 -121 -360 -121q-244 3 -410 146z" />
    <glyph glyph-name="d" unicode="d" 
d="M1001 1481h154v-1481h-154v203q-133 -226 -405 -226q-228 0 -367 154q-141 153 -141 379t141 379q138 153 367 153q273 0 405 -225v664zM242 510q0 -169 100 -281q102 -114 268 -114q168 0 281 110t113 285t-113 285t-281 110t-268 -112t-100 -283z" />
    <glyph glyph-name="e" unicode="e" horiz-adv-x="1218" 
d="M1008 248l88 -92q-170 -179 -437 -179q-258 0 -415 154q-158 152 -158 375t158 381q155 155 391 155q100 3 190.5 -29.5t162 -97t114.5 -168.5t45 -235h-907v-16q0 -168 116 -275q114 -108 303 -108q202 0 349 135zM639 907q-135 0 -238 -71.5t-145 -204.5h731
q-31 141 -124 208.5t-224 67.5z" />
    <glyph glyph-name="f" unicode="f" horiz-adv-x="733" 
d="M705 1237q0 62 -41.5 94.5t-112.5 32.5q-77 0 -122.5 -58.5t-45.5 -181.5v-104h283v-123h-283v-897h-154v897h-170v123h170v86q0 395 322 395q137 0 217 -69.5t80 -180.5q0 -25 -10 -55h-140q7 28 7 41z" />
    <glyph glyph-name="g" unicode="g" horiz-adv-x="1318" 
d="M1001 1020h154v-1008q0 -236 -149 -364q-150 -129 -379 -129q-253 0 -434 141l61 121q152 -125 373 -125q171 0 272.5 99t101.5 270v178q-133 -226 -405 -226q-228 0 -367 154q-141 153 -141 379t141 379q138 153 367 153q273 0 405 -225v203zM242 510q0 -169 100 -281
q102 -114 268 -114q168 0 281 110t113 285t-113 285t-281 110t-268 -112t-100 -283z" />
    <glyph glyph-name="h" unicode="h" horiz-adv-x="1232" 
d="M1083 0h-153v580q0 164 -71.5 244.5t-190.5 80.5q-106 0 -213 -80q-60 -45 -97.5 -130.5t-38.5 -198.5v-496h-153v1481h153v-678q37 114 135.5 176.5t223.5 62.5q186 0 295.5 -117t109.5 -345v-580z" />
    <glyph glyph-name="i" unicode="i" horiz-adv-x="501" 
d="M174 1020h154v-1020h-154v1020zM172 1282q-32 31 -32 80.5t32 81.5q31 32 78.5 32t79.5 -32t32 -81.5t-32 -80.5q-32 -32 -79.5 -32t-78.5 32z" />
    <glyph glyph-name="j" unicode="j" horiz-adv-x="575" 
d="M248 -174v1194h153v-1200q0 -147 -84.5 -224t-218.5 -77q-131 0 -207.5 71t-76.5 183q0 57 14 92h143q-14 -28 -14 -74q0 -61 40 -98t101 -37q150 0 150 170zM246 1282q-31 31 -31 80.5t31 81.5t78 32t79 -32t32 -81.5t-32 -80.5q-32 -32 -79 -32t-78 32z" />
    <glyph glyph-name="k" unicode="k" horiz-adv-x="1073" 
d="M317 1481v-901l400 440h176v-14l-418 -459l211 -283q3 -3 18.5 -23.5t18.5 -23.5q2 -4 18 -20q16 -20 35 -39q45 -45 119 -45q78 0 131 41l53 -107q-70 -70 -200 -70q-78 0 -131 31q-26 13 -36 19t-26.5 18t-32.5 29q-25 27 -67 82q-27 31 -29 34l-240 336v-526h-153
v1481h153z" />
    <glyph glyph-name="l" unicode="l" horiz-adv-x="501" 
d="M174 1481h154v-1481h-154v1481z" />
    <glyph glyph-name="m" unicode="m" horiz-adv-x="1925" 
d="M1047 0h-154v580q0 164 -70.5 244.5t-187.5 80.5q-37 0 -75.5 -10.5t-82 -39.5t-77.5 -73t-57 -118t-24 -168v-496h-153v1020h153v-215q37 113 131.5 175t211.5 62q259 0 350 -239q102 239 358 239q192 0 298 -113.5t106 -348.5v-580h-154v580q0 164 -70.5 244.5
t-187.5 80.5q-36 0 -73.5 -9.5t-80.5 -36.5t-76.5 -69t-57.5 -114t-27 -164v-512z" />
    <glyph glyph-name="n" unicode="n" horiz-adv-x="1232" 
d="M1083 0h-153v580q0 164 -71.5 244.5t-190.5 80.5q-106 0 -213 -80q-60 -45 -97.5 -130.5t-38.5 -198.5v-496h-153v1020h153v-217q37 114 135.5 176.5t223.5 62.5q186 0 295.5 -117t109.5 -345v-580z" />
    <glyph glyph-name="o" unicode="o" horiz-adv-x="1243" 
d="M86 510q0 219 158 377q155 155 377 155q223 0 378 -155q158 -158 158 -377t-158 -377q-156 -156 -378 -156q-221 0 -377 156q-158 158 -158 377zM240 508q0 -165 112 -277q110 -116 269 -116q157 0 270 116q113 113 113 277t-113 280q-114 117 -270 117q-158 0 -269 -117
q-112 -115 -112 -280z" />
    <glyph glyph-name="p" unicode="p" 
d="M319 -459h-153v1479h153v-203q132 225 406 225q228 0 369 -153q139 -154 139 -379t-139 -379q-142 -154 -369 -154q-273 0 -406 226v-662zM1079 510q0 171 -100 283t-268 112q-166 0 -279 -110q-115 -112 -115 -285t115 -285q113 -110 279 -110q168 0 268 112t100 283z
" />
    <glyph glyph-name="q" unicode="q" horiz-adv-x="1318" 
d="M1001 1020h154v-1479h-154v662q-133 -226 -405 -226q-228 0 -367 154q-141 153 -141 379t141 379q138 153 367 153q273 0 405 -225v203zM242 510q0 -171 100 -283t268 -112t281 110t113 285t-113 285t-281 110t-268 -112t-100 -283z" />
    <glyph glyph-name="r" unicode="r" horiz-adv-x="722" 
d="M166 1020h153v-246q29 125 109.5 196.5t192.5 71.5q41 0 84 -16v-152q-40 21 -95 21q-129 0 -210 -126.5t-81 -379.5v-389h-153v1020z" />
    <glyph glyph-name="s" unicode="s" horiz-adv-x="884" 
d="M758 821l-137 -33q-40 119 -164 119q-83 0 -135 -46t-52 -111q0 -101 142 -148l151 -49q244 -80 244 -279q0 -136 -105 -215q-107 -82 -253 -82q-137 0 -239.5 65t-137.5 179l135 35q23 -66 89 -104.5t153 -38.5q89 0 146.5 45t57.5 116q0 103 -145 150l-143 47
q-248 79 -248 272q0 123 90 213q89 86 239 86q114 0 200.5 -57.5t111.5 -163.5z" />
    <glyph glyph-name="t" unicode="t" horiz-adv-x="829" 
d="M696 897h-331v-590q0 -98 40.5 -145t110.5 -47q64 0 106 36.5t42 96.5q0 44 -15 74h142q16 -37 16 -76v-17q0 -111 -80 -181.5t-213 -70.5q-139 0 -221 82t-82 258v580h-172v123h172l37 309h117v-309h331v-123z" />
    <glyph glyph-name="u" unicode="u" horiz-adv-x="1232" 
d="M150 1020h153v-580q0 -164 71.5 -244.5t190.5 -80.5q106 0 213 80q59 43 96.5 129.5t38.5 199.5v496h154v-1020h-154v217q-37 -114 -135 -177t-223 -63q-187 0 -296 116.5t-109 346.5v580z" />
    <glyph glyph-name="v" unicode="v" horiz-adv-x="1083" 
d="M868 1020h162l-401 -1020h-174l-402 1020h162l326 -864z" />
    <glyph glyph-name="w" unicode="w" horiz-adv-x="1691" 
d="M55 1020h162l301 -823l262 788h133l261 -788l301 823h161l-383 -1020h-149l-258 768l-258 -768h-148z" />
    <glyph glyph-name="x" unicode="x" horiz-adv-x="1155" 
d="M946 0l-368 442l-369 -442h-184v14l450 521l-409 471v14h176l336 -399l335 399h177v-14l-410 -471l450 -521v-14h-184z" />
    <glyph glyph-name="y" unicode="y" horiz-adv-x="1107" 
d="M215 1020l346 -832l328 832h178l-629 -1479h-155l196 473l-440 1006h176z" />
    <glyph glyph-name="z" unicode="z" horiz-adv-x="1130" 
d="M1067 125v-125h-1006v102l746 793h-698v125h911v-102l-746 -793h793z" />
    <glyph glyph-name="braceleft" unicode="{" horiz-adv-x="618" 
d="M96 510v98q119 15 146 33q32 19 32 70q0 22 -6 49q-11 52 -69 227q-62 189 -62 279q0 123 77.5 188.5t205.5 65.5q23 0 68 -5.5t51 -5.5v-110q-47 8 -113 8q-141 0 -141 -156q0 -81 65 -264q64 -180 64 -258q0 -133 -123 -170q123 -37 123 -170q0 -78 -64 -258
q-65 -183 -65 -264q0 -156 141 -156q66 0 113 8v-110q-6 0 -51 -5t-68 -5q-128 0 -205.5 65.5t-77.5 188.5q0 89 62 278q58 175 69 227q6 27 6 50q-2 24 -11 41t-19 26.5t-33.5 16t-39 9t-52.5 7.5q-10 2 -23 2z" />
    <glyph glyph-name="sterling" unicode="&#xa3;" horiz-adv-x="1282" 
d="M1188 131v-131h-1108v131q168 0 254 75t86 216q0 72 -27 158h-262v96h229q-5 13 -14 38t-17 48t-16 45q-29 77 -37 106q-30 84 -30 154q0 174 133 283q130 106 334 106q213 0 321 -102q107 -101 107 -230h-154q0 84 -72 139.5t-196 55.5q-142 0 -226.5 -68t-84.5 -184
q0 -55 22 -125q17 -60 31 -98q16 -43 18 -53l39 -115h395v-96h-362q27 -92 27 -164q0 -215 -166 -285v-6q120 6 315 6h461z" />
    <glyph glyph-name="yen" unicode="&#xa5;" horiz-adv-x="1380" 
d="M1157 336v-135h-387v-201h-158v201h-389v135h389v162h-389v135h363l-514 788v13h176l442 -705h2l443 705h176v-13l-514 -788h360v-135h-387v-162h387z" />
    <glyph glyph-name="guillemotleft" unicode="&#xab;" horiz-adv-x="1101" 
d="M471 172l-371 420v22l371 426l94 -75l-313 -361l313 -358zM891 172l-371 420v22l371 426l94 -75l-313 -361l313 -358z" />
    <glyph glyph-name="guillemotright" unicode="&#xbb;" horiz-adv-x="1101" 
d="M631 1040l370 -426v-22l-370 -420l-94 74l313 358l-313 361zM211 1040l371 -426v-22l-371 -420l-94 74l313 358l-313 361z" />
    <glyph glyph-name="adieresis" unicode="&#xe4;" 
d="M1001 1020h154v-1020h-154v203q-133 -226 -405 -226q-228 0 -367 154q-141 153 -141 379t141 379q138 153 367 153q273 0 405 -225v203zM242 510q0 -169 100 -281q102 -114 268 -114q168 0 281 110t113 285t-113 285t-281 110t-268 -112t-100 -283zM276 1323
q0 44 30.5 75.5t74.5 31.5t75 -31.5t31 -75.5q0 -43 -31 -73.5t-75 -30.5t-74.5 30.5t-30.5 73.5zM711 1323q0 45 30 76t74 31t75.5 -31.5t31.5 -75.5q0 -43 -31.5 -73.5t-75.5 -30.5t-74 30.5t-30 73.5z" />
    <glyph glyph-name="aring" unicode="&#xe5;" 
d="M1001 1020h154v-1020h-154v203q-133 -226 -405 -226q-228 0 -367 154q-141 153 -141 379t141 379q138 153 367 153q273 0 405 -225v203zM242 510q0 -169 100 -281q102 -114 268 -114q168 0 281 110t113 285t-113 285t-281 110t-268 -112t-100 -283zM414 1376
q0 86 58.5 145.5t143.5 59.5q86 0 145.5 -59.5t59.5 -145.5q0 -85 -59.5 -143.5t-145.5 -58.5q-84 0 -143 60t-59 142zM532 1462q-34 -35 -34 -85.5t34 -84.5t84.5 -34t85.5 34t35 84.5t-35 85.5t-85.5 35t-84.5 -35z" />
    <glyph glyph-name="egrave" unicode="&#xe8;" horiz-adv-x="1218" 
d="M1008 248l88 -92q-170 -179 -437 -179q-258 0 -415 154q-158 152 -158 375t158 381q155 155 391 155q100 3 190.5 -29.5t162 -97t114.5 -168.5t45 -235h-907v-16q0 -168 116 -275q114 -108 303 -108q202 0 349 135zM639 907q-135 0 -238 -71.5t-145 -204.5h731
q-31 141 -124 208.5t-224 67.5zM590 1174l-225 307h176l182 -307h-133z" />
    <glyph glyph-name="eacute" unicode="&#xe9;" horiz-adv-x="1218" 
d="M1008 248l88 -92q-170 -179 -437 -179q-258 0 -415 154q-158 152 -158 375t158 381q155 155 391 155q100 3 190.5 -29.5t162 -97t114.5 -168.5t45 -235h-907v-16q0 -168 116 -275q114 -108 303 -108q202 0 349 135zM639 907q-135 0 -238 -71.5t-145 -204.5h731
q-31 141 -124 208.5t-224 67.5zM494 1174l182 307h176l-225 -307h-133z" />
    <glyph glyph-name="ecircumflex" unicode="&#xea;" horiz-adv-x="1218" 
d="M1008 248l88 -92q-170 -179 -437 -179q-258 0 -415 154q-158 152 -158 375t158 381q155 155 391 155q100 3 190.5 -29.5t162 -97t114.5 -168.5t45 -235h-907v-16q0 -168 116 -275q114 -108 303 -108q202 0 349 135zM639 907q-135 0 -238 -71.5t-145 -204.5h731
q-31 141 -124 208.5t-224 67.5zM291 1174l235 307h166l238 -307h-121l-199 212l-198 -212h-121z" />
    <glyph glyph-name="oacute" unicode="&#xf3;" horiz-adv-x="1243" 
d="M86 510q0 219 158 377q155 155 377 155q223 0 378 -155q158 -158 158 -377t-158 -377q-156 -156 -378 -156q-221 0 -377 156q-158 158 -158 377zM240 508q0 -165 112 -277q110 -116 269 -116q157 0 270 116q113 113 113 277t-113 280q-114 117 -270 117q-158 0 -269 -117
q-112 -115 -112 -280zM526 1174l183 307h176l-226 -307h-133z" />
    <glyph glyph-name="odieresis" unicode="&#xf6;" horiz-adv-x="1243" 
d="M86 510q0 219 158 377q155 155 377 155q223 0 378 -155q158 -158 158 -377t-158 -377q-156 -156 -378 -156q-221 0 -377 156q-158 158 -158 377zM240 508q0 -165 112 -277q110 -116 269 -116q157 0 270 116q113 113 113 277t-113 280q-114 117 -270 117q-158 0 -269 -117
q-112 -115 -112 -280zM299 1323q0 45 30 76t74 31q47 0 77 -31t30 -76q0 -43 -31.5 -73.5t-75.5 -30.5t-74 30.5t-30 73.5zM733 1323q0 44 30.5 75.5t74.5 31.5t75 -31.5t31 -75.5q0 -43 -31 -73.5t-75 -30.5t-74.5 30.5t-30.5 73.5z" />
    <glyph glyph-name="udieresis" unicode="&#xfc;" horiz-adv-x="1232" 
d="M150 1020h153v-580q0 -164 71.5 -244.5t190.5 -80.5q106 0 213 80q59 43 96.5 129.5t38.5 199.5v496h154v-1020h-154v217q-37 -114 -135 -177t-223 -63q-187 0 -296 116.5t-109 346.5v580zM299 1323q0 45 30 76t74 31q47 0 77 -31t30 -76q0 -43 -31.5 -73.5t-75.5 -30.5
t-74 30.5t-30 73.5zM733 1323q0 44 30.5 75.5t74.5 31.5t75 -31.5t31 -75.5q0 -43 -31 -73.5t-75 -30.5t-74.5 30.5t-30.5 73.5z" />
    <glyph glyph-name="aogonek" unicode="&#x105;" 
d="M1001 1020h154v-1016q-100 -17 -158.5 -76.5t-58.5 -130.5q0 -60 44 -99.5t103 -39.5q63 0 112.5 38.5t72.5 104.5l76 -41q-24 -96 -96.5 -157.5t-168.5 -61.5q-100 0 -178 60q-80 62 -80 176q0 74 45.5 140t132.5 97v189q-133 -226 -405 -226q-228 0 -367 154
q-141 153 -141 379t141 379q138 153 367 153q273 0 405 -225v203zM242 510q0 -169 100 -281q102 -114 268 -114q168 0 281 110t113 285t-113 285t-281 110t-268 -112t-100 -283z" />
    <glyph glyph-name="eogonek" unicode="&#x119;" horiz-adv-x="1218" 
d="M1008 248l88 -92q-188 -115 -267 -191.5t-79 -157.5q0 -64 44.5 -106.5t102.5 -42.5q61 0 111 39.5t73 105.5l76 -43q-24 -96 -96 -157.5t-168 -61.5q-109 0 -184.5 63.5t-75.5 174.5q0 114 92 203q-63 -5 -66 -5q-258 0 -415 154q-158 152 -158 375t158 381
q155 155 391 155q100 3 190.5 -29.5t162 -97t114.5 -168.5t45 -235h-907v-16q0 -168 116 -275q114 -108 303 -108q202 0 349 135zM639 907q-135 0 -238 -71.5t-145 -204.5h731q-31 141 -124 208.5t-224 67.5z" />
    <glyph glyph-name="lslash" unicode="&#x142;" horiz-adv-x="591" 
d="M197 1481h153v-746l215 94v-108l-215 -94v-627h-153v561l-164 -72v107l164 74v811z" />
    <glyph glyph-name="nacute" unicode="&#x144;" horiz-adv-x="1232" 
d="M1083 0h-153v580q0 164 -71.5 244.5t-190.5 80.5q-106 0 -213 -80q-60 -45 -97.5 -130.5t-38.5 -198.5v-496h-153v1020h153v-217q37 114 135.5 176.5t223.5 62.5q186 0 295.5 -117t109.5 -345v-580zM510 1174l182 307h176l-225 -307h-133z" />
    <glyph glyph-name="Sacute" unicode="&#x15a;" horiz-adv-x="1177" 
d="M496 1567l163 284h168l-200 -284h-131zM594 1313q-126 0 -209.5 -66t-83.5 -174q0 -153 211 -229l231 -82q158 -49 252.5 -152.5t94.5 -226.5q0 -177 -138 -291q-139 -115 -358 -115q-196 0 -335 93.5t-183 240.5l149 39q30 -97 131 -163t236 -66q152 0 244 71t92 181
q0 88 -64 153t-170 99l-231 77q-324 105 -324 367q0 173 135 281q130 106 322 106q176 0 291.5 -86.5t148.5 -234.5l-143 -43q-53 221 -299 221z" />
    <glyph glyph-name="sacute" unicode="&#x15b;" horiz-adv-x="884" 
d="M758 821l-137 -33q-40 119 -164 119q-83 0 -135 -46t-52 -111q0 -101 142 -148l151 -49q244 -80 244 -279q0 -136 -105 -215q-107 -82 -253 -82q-137 0 -239.5 65t-137.5 179l135 35q23 -66 89 -104.5t153 -38.5q89 0 146.5 45t57.5 116q0 103 -145 150l-143 47
q-248 79 -248 272q0 123 90 213q89 86 239 86q114 0 200.5 -57.5t111.5 -163.5zM334 1174l182 307h176l-225 -307h-133z" />
    <glyph glyph-name="zdotaccent" unicode="&#x17c;" horiz-adv-x="1130" 
d="M1067 125v-125h-1006v102l746 793h-698v125h911v-102l-746 -793h793zM494 1233q-32 31 -32 80.5t32 81.5q31 32 78 32t79 -32q31 -32 31 -81.5t-31 -80.5q-32 -32 -79 -32t-78 32z" />
    <glyph glyph-name="quoteright" unicode="&#x2019;" horiz-adv-x="481" 
d="M156 985l-33 59q158 68 158 244q-19 -8 -45 -8q-38 0 -64.5 27.5t-26.5 64.5q0 49 30.5 79t86.5 30q59 0 91 -47.5t32 -110.5q0 -110 -58.5 -203t-170.5 -135z" />
    <glyph glyph-name="Euro" unicode="&#x20ac;" horiz-adv-x="1349" 
d="M432 627h617l-35 -111h-565q42 -183 169.5 -289t319.5 -106q144 0 248 39l8 -137q-128 -46 -252 -46q-274 0 -444 150t-213 389h-205v111h190q-6 41 -6 82q0 59 2 75h-184v111h199q44 251 208 405q166 156 449 156q176 0 332 -78l-49 -127q-124 62 -283 62
q-201 0 -327.5 -112.5t-166.5 -305.5h684l-34 -111h-666q-2 -25 -2 -75q0 -21 6 -82z" />
    <glyph glyph-name="f_f" unicode="&#xfb00;" horiz-adv-x="1466" 
d="M834 1333l-138 -51q-27 82 -145 82q-77 0 -122.5 -58.5t-45.5 -181.5v-104h580v86q0 395 321 395q137 0 217 -69.5t80 -180.5q0 -25 -10 -55h-139q6 24 6 41q0 62 -41.5 94.5t-112.5 32.5q-77 0 -122.5 -58.5t-45.5 -181.5v-104h283v-123h-283v-897h-153v897h-580v-897
h-154v897h-170v123h170v86q0 395 322 395q107 0 181.5 -45.5t101.5 -122.5z" />
    <glyph glyph-name="fi" unicode="&#xfb01;" horiz-adv-x="1259" 
d="M229 0v897h-170v123h170v92q0 389 402 389q124 0 217.5 -58.5t130.5 -176.5l-148 -41q-22 69 -76 104t-124 35q-248 0 -248 -252v-92h702v-1020h-153v897h-549v-897h-154z" />
    <glyph glyph-name="fl" unicode="&#xfb02;" horiz-adv-x="1234" 
d="M59 1020h170v92q0 389 402 389q106 0 229 -20q130 -21 201 -62v-1419h-154v1319q-107 45 -276 45q-248 0 -248 -252v-92h283v-123h-283v-897h-154v897h-170v123z" />
    <glyph glyph-name="null" horiz-adv-x="0" 
 />
    <glyph glyph-name="zero.oldstyle" horiz-adv-x="1404" 
d="M1135 891q163 -153 163 -381q0 -229 -163 -379q-165 -154 -435 -154q-265 0 -430 154q-164 150 -164 379t162 381q165 151 432 151q270 0 435 -151zM1143 510q0 170 -121 285q-118 112 -322 112q-199 0 -317 -112q-121 -115 -121 -285q0 -168 121 -283q120 -114 317 -114
q202 0 322 114q121 115 121 283z" />
    <glyph glyph-name="nine.oldstyle" horiz-adv-x="1257" 
d="M582 309q155 0 268 82q115 80 115 209q0 138 -111 223q-113 84 -258 84q-156 0 -260 -84q-103 -86 -103 -215q0 -137 105 -217q101 -82 244 -82zM997 401h-2q-59 -106 -175.5 -166.5t-248.5 -60.5q-201 0 -346 121q-147 120 -147 313q0 190 143 312t365 122
q269 0 418 -174t149 -467q0 -299 -160 -503q-163 -199 -442 -199q-244 0 -377 127l109 96q91 -88 268 -88q209 0 328 162q118 161 118 405z" />
    <glyph glyph-name="eight.oldstyle" horiz-adv-x="1343" 
d="M670 113q180 0 293 73q114 70 114 187q0 107 -108.5 177.5t-294.5 70.5h-10q-182 0 -290 -70.5t-108 -177.5q0 -116 115 -187q113 -73 289 -73zM670 -23q-246 0 -402 111q-157 112 -157 277q0 110 79 200.5t213 128.5q-109 41 -171 115t-62 162q0 148 141 250
q138 100 361 100q220 0 360 -98q139 -103 139 -250q0 -90 -63.5 -166.5t-169.5 -114.5q133 -38 214 -128t81 -199q0 -168 -158 -277q-156 -111 -405 -111zM922 1128q-94 58 -252 58q-156 0 -250 -58t-94 -155q0 -100 90.5 -166t247.5 -66h10q157 0 249.5 66t92.5 166
q0 97 -94 155z" />
    <glyph glyph-name="seven.oldstyle" horiz-adv-x="1081" 
d="M889 889h-838v131h1006v-111l-682 -1194h-172z" />
    <glyph glyph-name="six.oldstyle" horiz-adv-x="1284" 
d="M688 711q-153 0 -268 -80q-115 -83 -115 -211q0 -138 111 -221q112 -86 258 -86q157 0 260 86q102 83 102 213q0 136 -102 219q-106 80 -246 80zM272 618h2q59 106 175.5 167t248.5 61q201 0 349 -121q145 -121 145 -313q0 -190 -143 -312q-144 -123 -365 -123
q-268 0 -418 175q-149 174 -149 466q0 306 162 504q159 199 440 199q244 0 377 -127l-109 -96q-91 88 -268 88q-209 0 -328 -162t-119 -406z" />
    <glyph glyph-name="five.oldstyle" horiz-adv-x="1191" 
d="M571 -166q179 0 283 86t104 223q0 132 -95 219t-261 87q-215 0 -352 -113l-117 61l45 623h826v-131h-693l-28 -410q169 105 335 105q222 0 359 -125t137 -318q0 -188 -139 -315t-395 -127q-292 0 -482 158l90 102q174 -125 383 -125z" />
    <glyph glyph-name="four.oldstyle" horiz-adv-x="1331" 
d="M809 776l-567 -571h567v571zM809 -287v365h-754v100l813 842h95v-815h297v-127h-297v-365h-154z" />
    <glyph glyph-name="three.oldstyle" horiz-adv-x="1204" 
d="M547 -164q185 0 295 88q108 88 108 215q0 123 -94 205q-95 80 -244 80q-145 0 -215 -49l-71 92l475 430h-678v123h934v-90l-453 -383v-4q187 27 344 -88q158 -119 158 -314q0 -183 -148 -313q-148 -127 -409 -127q-307 0 -473 147l90 105q156 -117 381 -117z" />
    <glyph glyph-name="two.oldstyle" horiz-adv-x="1236" 
d="M117 0l-8 94l573 357q132 76 195 141t63 135q0 86 -90.5 132t-243.5 46q-157 0 -240.5 -46t-91.5 -114h-151q6 119 123 207q113 88 358 88q225 0 358.5 -82t133.5 -233q0 -112 -77 -197.5t-259 -193.5l-352 -211v-4q126 12 337 12h392v-131h-1020z" />
    <glyph glyph-name="one.oldstyle" horiz-adv-x="1062" 
d="M508 831l-371 -151l-39 131l484 209h80v-889h350v-131h-869v131h365v700z" />
    <glyph glyph-name="y.alt" horiz-adv-x="1107" 
d="M215 1020l346 -832l328 832h178l-379 -895q-1 -2 -4 -9.5t-9 -23.5t-13 -33q-9 -23 -20.5 -51t-14.5 -35q-18 -31 -41 -84q-12 -24 -22 -42t-22.5 -37t-18.5 -28t-24 -33.5t-26 -35.5t-16 -21t-18 -19.5t-16 -16t-18 -15.5t-16.5 -13t-19.5 -14t-17.5 -12t-20.5 -13
t-20 -13q-92 -57 -225 -57q-123 0 -236 73l52 127q95 -59 184 -59q131 0 221.5 90t169.5 264l-438 1006h176z" />
    <glyph glyph-name="g.alt" horiz-adv-x="1173" 
d="M877 653q0 116 -84 184t-215 68q-132 0 -221 -68.5t-89 -181.5t87.5 -180t224.5 -67q132 0 214.5 66t82.5 179zM174 53q-22 24 -34.5 58t-12.5 57v18q0 108 123 191q-135 117 -135 276q0 186 139 289q135 100 317 100q196 0 322 -102q88 27 88 96q0 24 -12 58h141
q14 -41 14 -72q0 -66 -42 -115.5t-111 -62.5q63 -86 63 -193q0 -179 -137 -280t-324 -101q-122 0 -221 45q-86 -53 -86 -110q0 -110 178 -113h369q71 0 127 -18.5t89.5 -46t56 -64t30.5 -69t8 -64.5q0 -135 -143.5 -223t-394.5 -88q-211 0 -371 57q-89 31 -138.5 93.5
t-49.5 148.5q0 72 42.5 133.5t104.5 101.5zM266 -12q-40 -24 -64 -65t-24 -81q0 -70 61.5 -117t153.5 -63q77 -14 189 -14q172 0 278.5 47.5t106.5 126.5q0 48 -34 83.5t-104 41.5q-62 4 -231 4h-123q-122 0 -209 37z" />
    <glyph glyph-name="a.alt" horiz-adv-x="1148" 
d="M469 614q209 0 369 -59v59q0 146 -79 218.5t-222 72.5q-189 0 -332 -110l-58 114q67 64 175 98.5t227 34.5q307 0 403 -211q27 -59 36 -109.5t9 -117.5v-604h-153v174q-45 -86 -147 -141.5t-224 -55.5q-167 0 -285 86q-118 81 -118 236q0 140 105.5 227.5t293.5 87.5z
M492 498q-129 0 -198 -55.5t-69 -141.5q0 -85 73.5 -136.5t199.5 -51.5q98 0 191.5 50t154.5 144v142q-162 49 -352 49z" />
  </font>
</defs>
</svg>
