<?xml version="1.0" standalone="no"?>
<!DOCTYPE svg PUBLIC "-//W3C//DTD SVG 1.1//EN" "http://www.w3.org/Graphics/SVG/1.1/DTD/svg11.dtd" >
<svg xmlns="http://www.w3.org/2000/svg" xmlns:xlink="http://www.w3.org/1999/xlink" version="1.1">
<metadata>
Created by FontForge 20170731 at Fri Oct 16 12:01:31 2020
 By Aleksey,,,
Copyright (c) Olivier Gourvat - Mostardesign Studio, 2014. All rights reserved.
</metadata>
<defs>
<font id="FilsonProThinItalic-Italic" horiz-adv-x="1329" >
  <font-face 
    font-family="FilsonProThin-Italic"
    font-weight="250"
    font-style="italic"
    font-stretch="normal"
    units-per-em="2048"
    panose-1="2 0 2 3 0 0 0 0 0 0"
    ascent="1638"
    descent="-410"
    x-height="1014"
    cap-height="1434"
    bbox="-234.014 -524 2216 1567"
    underline-thickness="102"
    underline-position="-409"
    unicode-range="U+0020-20AC"
  />
<missing-glyph horiz-adv-x="1378" 
d="M1174 0h-969l254 1436h968zM674 526h123q9 65 39 82q1 1 18 10t39 21.5t33 19.5q77 47 110 80q101 101 115 193q20 120 -55.5 193t-212.5 73q-150 0 -240 -72t-102 -155q-8 -60 2 -94h129q-9 27 0 90q11 52 60 84t122 32q34 0 66.5 -11t54.5 -27.5t38 -37t15.5 -40
t-12.5 -35.5l-4 -4q-4 -63 -53 -110.5t-166 -110.5q-72 -38 -86 -64q-19 -34 -33 -117zM596 295q-7 -43 16 -71.5t64 -28.5q42 0 76 28.5t45 71.5q8 41 -16.5 70.5t-67.5 29.5q-41 0 -75 -29.5t-42 -70.5z" />
    <glyph glyph-name=".notdef" horiz-adv-x="1378" 
d="M1174 0h-969l254 1436h968zM674 526h123q9 65 39 82q1 1 18 10t39 21.5t33 19.5q77 47 110 80q101 101 115 193q20 120 -55.5 193t-212.5 73q-150 0 -240 -72t-102 -155q-8 -60 2 -94h129q-9 27 0 90q11 52 60 84t122 32q34 0 66.5 -11t54.5 -27.5t38 -37t15.5 -40
t-12.5 -35.5l-4 -4q-4 -63 -53 -110.5t-166 -110.5q-72 -38 -86 -64q-19 -34 -33 -117zM596 295q-7 -43 16 -71.5t64 -28.5q42 0 76 28.5t45 71.5q8 41 -16.5 70.5t-67.5 29.5q-41 0 -75 -29.5t-42 -70.5z" />
    <glyph glyph-name=".null" horiz-adv-x="0" 
 />
    <glyph glyph-name="nonmarkingreturn" horiz-adv-x="681" 
 />
    <glyph glyph-name="space" unicode=" " horiz-adv-x="585" 
 />
    <glyph glyph-name="exclam" unicode="!" horiz-adv-x="411" 
d="M483 1434l-47 -260l-147 -773h-27l123 773l47 260h51zM158 31q12 53 59 53q39 0 45 -35q5 -34 -23 -57q-17 -15 -40 -15q-21 0 -33 15.5t-8 38.5z" />
    <glyph glyph-name="dollar" unicode="$" horiz-adv-x="1056" 
d="M748 1378l30 189h49l-30 -187q134 -4 220 -74t97 -180l-49 -12q-11 92 -87 152.5t-192 64.5l-102 -575l102 -35q113 -37 187 -123q72 -87 51 -213q-24 -137 -154 -240q-128 -101 -313 -104l-33 -188h-49l33 188q-146 6 -244 77t-131 177l53 16q28 -92 115 -154.5
t217 -68.5l109 631l-88 31q-261 89 -220 301q24 141 148 231q118 87 281 96zM973 385q18 104 -42.5 180t-166.5 109l-88 31l-109 -617q158 3 273 92q112 84 133 205zM371 1053q-34 -179 194 -256l74 -25l98 559q-138 -8 -240.5 -83.5t-125.5 -194.5z" />
    <glyph glyph-name="ampersand" unicode="&#x26;" horiz-adv-x="1619" 
d="M195 350q-7 -35 -7 -57q0 -125 101.5 -195.5t269.5 -70.5q108 0 234 69q129 72 225 180l33 37l-322 469q-487 -181 -534 -432zM1581 57l16 -43q-58 -37 -167 -37q-55 0 -101.5 18t-71.5 42q-34 34 -61 65l-121 174l-16 -18q-111 -126 -250 -203q-144 -78 -258 -78
q-186 0 -300 82t-114 226q0 175 166 313q168 138 399 219q-137 162 -137 322q0 71 27 128.5t67.5 91.5t91.5 57t94.5 31.5t80.5 8.5q114 0 188 -65.5t74 -163.5q0 -109 -123 -232q-121 -122 -285 -192l305 -445l283 299h64l-318 -338l125 -186q51 -59 87.5 -81.5
t111.5 -26.5q100 0 143 32zM1133 1188q2 6 2 33q0 79 -62.5 133.5t-157.5 54.5q-145 0 -239 -104q-60 -66 -60 -164q0 -148 134 -303q141 57 251 155q114 102 132 195z" />
    <glyph glyph-name="parenright" unicode=")" horiz-adv-x="538" 
d="M535 569q-25 -141 -78 -282.5t-115 -247.5q-57 -99 -133 -197q-67 -87 -113.5 -136.5t-107.5 -106.5l-33 24q129 117 274 322q88 126 155 288.5t97 335.5q49 227 -2 518q-19 106 -57 191q-59 140 -133 238l39 24q35 -49 57 -82.5t57.5 -105t59.5 -148.5q90 -323 33 -635z
" />
    <glyph glyph-name="period" unicode="." horiz-adv-x="409" 
d="M158 31q12 53 59 53q39 0 45 -35q5 -34 -23 -57q-17 -15 -40 -15q-21 0 -33 15.5t-8 38.5z" />
    <glyph glyph-name="zero" unicode="0" horiz-adv-x="1439" 
d="M1442 719q-55 -316 -256 -529t-473 -213q-269 0 -396 213q-125 210 -69 529q58 314 258 526q199 211 469 211q273 0 399 -211q126 -212 68 -526zM1389 719q53 299 -60 493q-114 197 -362 197t-430 -197q-184 -199 -236 -493q-53 -298 59 -494q114 -200 359 -200
q247 0 432 200q186 201 238 494z" />
    <glyph glyph-name="one" unicode="1" horiz-adv-x="667" 
d="M682 1366l-420 -182v49l451 201h30l-249 -1434h-52z" />
    <glyph glyph-name="two" unicode="2" horiz-adv-x="1198" 
d="M1108 0h-995l2 47l739 574q144 113 220 211t100 221q30 170 -68.5 263t-298.5 93q-175 0 -285 -69.5t-149 -182.5h-54q18 120 154 209q134 90 346 90q222 0 331 -105.5t77 -295.5q-24 -132 -107 -242t-237 -227l-690 -535h923z" />
    <glyph glyph-name="three" unicode="3" horiz-adv-x="1193" 
d="M741 815q-166 0 -254 -49l-16 41l713 579h-803l8 48h897l-2 -27l-684 -557v-6q67 20 156 20q207 0 323 -116q117 -120 82 -314q-35 -200 -203 -328q-170 -129 -434 -129q-132 0 -238.5 32.5t-160.5 88.5l35 35q51 -49 152 -78.5t220 -29.5q240 0 392 116q149 113 184 293
q30 178 -74 279q-108 102 -293 102z" />
    <glyph glyph-name="four" unicode="4" horiz-adv-x="1372" 
d="M1149 1337l-932 -862h780zM915 0l74 428h-862l6 33l1053 973h31l-168 -959h344l-9 -47h-344l-73 -428h-52z" />
    <glyph glyph-name="five" unicode="5" horiz-adv-x="1193" 
d="M338 764h-4l-2 2l-37 20l160 648h782l-8 -48h-737l-138 -565q198 94 400 94q248 0 352 -137q104 -141 70 -334q-34 -196 -193 -331q-160 -136 -408 -136q-123 0 -243.5 34.5t-184.5 86.5l37 37q56 -49 168.5 -79.5t227.5 -30.5q222 0 366 120q141 118 176 301
q34 175 -61 299q-94 123 -318 123q-191 0 -405 -102v-2z" />
    <glyph glyph-name="six" unicode="6" horiz-adv-x="1255" 
d="M297 680q-3 -16 -12 -76h8q78 134 233 213q157 80 301 80q202 0 328 -129q124 -130 86 -330q-38 -208 -201 -334q-165 -127 -372 -127q-263 0 -371 191q-112 189 -53 512q58 334 258 555q197 221 465 221q203 0 295 -92l-43 -33q-87 78 -263 78q-244 0 -424 -207
q-179 -203 -235 -522zM287 477q-8 -47 -4 -92q19 -171 121.5 -265.5t271.5 -94.5q187 0 334 114q146 113 180 299q34 179 -80 293q-113 113 -295 113q-161 0 -330 -105q-172 -109 -198 -262z" />
    <glyph glyph-name="seven" unicode="7" horiz-adv-x="1048" 
d="M1284 1434l-8 -48l-1026 -1386h-60l1029 1386h-914l8 48h971z" />
    <glyph glyph-name="eight" unicode="8" horiz-adv-x="1345" 
d="M1352 1094q-19 -114 -106.5 -203t-225.5 -131q157 -38 228 -132.5t48 -228.5q-34 -184 -209 -303q-177 -121 -419 -121q-243 0 -379 121q-137 122 -103 299q25 132 128.5 229.5t271.5 137.5q-120 42 -174.5 130t-34.5 200q27 159 184 262q153 102 369 102q217 0 334 -102
q116 -101 88 -260zM799 731q-81 0 -140 -6q-180 -30 -287.5 -116.5t-131.5 -213.5q-27 -163 94 -266q118 -106 340 -106q221 0 381 106q162 110 188 270q23 128 -58 213t-257 111q-52 8 -129 8zM676 784q44 -6 133 -6q85 0 131 6q146 29 241.5 113.5t116.5 196.5
q24 140 -79 227q-107 88 -299 88q-194 0 -328 -88t-162 -229q-21 -113 43.5 -196t202.5 -112z" />
    <glyph glyph-name="nine" unicode="9" horiz-adv-x="1255" 
d="M1210 754q2 18 5 36.5t4.5 27t1.5 11.5h-9q-75 -134 -229 -213q-155 -79 -301 -79q-203 0 -326 129q-125 128 -90 329q38 208 201 334q165 127 373 127q260 0 370 -187t54 -515q-58 -333 -256 -555q-201 -222 -467 -222q-94 0 -175.5 27t-117.5 66l41 32q86 -77 260 -77
q245 0 426 208q179 202 235 521zM1219 956q8 47 4 93q-20 171 -122.5 265.5t-271.5 94.5q-188 0 -331 -113q-145 -115 -179 -301q-34 -178 78 -293q109 -112 293 -112q166 0 332 106q170 105 197 260z" />
    <glyph glyph-name="at" unicode="@" horiz-adv-x="2193" 
d="M688 479q35 189 174 316q141 129 342 129q135 0 223 -64.5t119 -181.5l39 217h51l-127 -717q-18 -96 23.5 -144t130.5 -48q168 0 287.5 145.5t169.5 429.5q68 384 -144 633q-211 248 -622 248q-404 0 -723 -275q-317 -274 -391 -688q-74 -416 131 -688q202 -272 604 -272
q242 0 428 67l6 -22q1 -1 2 -4.5t2 -5.5l4 -5q-201 -73 -450 -73q-425 0 -639 282q-214 285 -138 721q76 433 412 719q334 287 762 287q429 0 655 -256q221 -258 150 -668q-54 -310 -187 -462t-329 -152q-248 0 -187 291l7 30q-67 -115 -178.5 -177t-245.5 -62
q-201 0 -295 131q-100 130 -66 319zM741 479q-30 -170 58 -286q85 -117 260 -117q167 0 293 108q127 109 157 289q30 177 -55 291q-85 113 -258 113q-175 0 -299 -115q-126 -114 -156 -283z" />
    <glyph glyph-name="A" unicode="A" horiz-adv-x="1335" 
d="M289 334l-195 -334h-57l846 1434h73l342 -1434h-59l-80 334h-870zM1147 381l-236 1005l-596 -1005h832z" />
    <glyph glyph-name="B" unicode="B" horiz-adv-x="1331" 
d="M1335 1090q-24 -131 -124 -228t-259 -135q178 -30 265.5 -135.5t60.5 -249.5q-30 -158 -166 -250t-330 -92h-551l252 1434h480q185 0 292 -88t80 -256zM801 698h-395l-117 -651h499q172 0 292 81t145 216q27 156 -87 255t-337 99zM954 1386h-428l-112 -641h344
q222 0 360 96t164 249q24 142 -68 219t-260 77z" />
    <glyph glyph-name="C" unicode="C" horiz-adv-x="1435" 
d="M887 25q254 0 467 143l14 -45q-231 -146 -487 -146q-353 0 -527 216q-172 211 -116 524t303 526q251 213 602 213q261 0 436 -147l-29 -43q-168 143 -415 143q-332 0 -562 -199q-229 -198 -282 -493q-52 -291 108 -492q156 -200 488 -200z" />
    <glyph glyph-name="D" unicode="D" horiz-adv-x="1472" 
d="M659 0h-428l252 1434h428q292 0 459 -209q165 -210 113 -508t-291 -508q-241 -209 -533 -209zM526 1386l-237 -1339h377q267 0 493 197q222 194 271 473q49 274 -103 473q-153 196 -424 196h-377z" />
    <glyph glyph-name="E" unicode="E" horiz-adv-x="1200" 
d="M1085 47l-6 -47h-848l252 1434h848l-8 -48h-797l-116 -661h696l-8 -47h-697l-112 -631h796z" />
    <glyph glyph-name="F" unicode="F" horiz-adv-x="1167" 
d="M401 678l-118 -678h-52l252 1434h848l-8 -48h-797l-116 -661h696l-8 -47h-697z" />
    <glyph glyph-name="G" unicode="G" horiz-adv-x="1517" 
d="M1360 170l78 434h-439l11 51h489l-92 -505q-226 -173 -537 -173q-331 0 -510 218q-180 215 -124 524q56 308 313 522q259 215 545 215q326 0 481 -119l-29 -43q-145 115 -461 115q-263 0 -505 -201q-238 -198 -291 -489q-49 -289 117 -492q163 -202 471 -202
q279 0 483 145z" />
    <glyph glyph-name="H" unicode="H" horiz-adv-x="1460" 
d="M1481 1434l-252 -1434h-51l114 657h-895l-114 -657h-52l252 1434h52l-129 -729h894l130 729h51z" />
    <glyph glyph-name="I" unicode="I" horiz-adv-x="514" 
d="M483 1434h52l-252 -1434h-52z" />
    <glyph glyph-name="J" unicode="J" horiz-adv-x="1374" 
d="M215 483q-37 -193 59 -327q94 -131 330 -131q246 0 409.5 163t217.5 465l139 781h51l-137 -781q-57 -324 -237 -500t-451 -176q-89 0 -161.5 18.5t-122.5 52.5t-86.5 81t-52.5 103t-20.5 120t9.5 131q9 65 51 138h57q-37 -54 -55 -138z" />
    <glyph glyph-name="K" unicode="K" horiz-adv-x="1214" 
d="M535 1434l-134 -754l785 754h67l-813 -785l213 -303q115 -163 204 -239t181 -76q99 0 176 53l25 -43q-44 -29 -107 -46.5t-104 -17.5q-113 0 -211 83t-207 255l-219 308l-108 -623h-52l252 1434h52z" />
    <glyph glyph-name="L" unicode="L" horiz-adv-x="1017" 
d="M997 47l-6 -47h-760l252 1434h52l-246 -1387h708z" />
    <glyph glyph-name="M" unicode="M" horiz-adv-x="2015" 
d="M1907 1372l-869 -1354h-63l-383 1354l-369 -1372h-53l383 1434h80l385 -1360l868 1360h80l-121 -1434h-53z" />
    <glyph glyph-name="N" unicode="N" horiz-adv-x="1556" 
d="M1325 0h-51l-754 1352l-237 -1352h-52l252 1434h52l751 -1350l240 1350h51z" />
    <glyph glyph-name="O" unicode="O" horiz-adv-x="1708" 
d="M362 195q-179 215 -126 522q52 304 311 522q257 217 563 217t487 -217q178 -216 125 -522q-52 -303 -309 -522q-259 -218 -565 -218q-304 0 -486 218zM289 717q-53 -287 114 -490q166 -202 451 -202q288 0 526 204q236 202 289 488q53 285 -115 489q-170 203 -452 203
q-283 0 -524 -203q-240 -205 -289 -489z" />
    <glyph glyph-name="P" unicode="P" horiz-adv-x="1249" 
d="M866 602h-479l-104 -602h-52l252 1434h531q180 0 268 -123q85 -122 55 -297q-34 -175 -161 -293q-128 -119 -310 -119zM526 1386l-131 -737h479q158 0 271 107q112 103 139 258t-47 264q-73 108 -231 108h-480z" />
    <glyph glyph-name="Q" unicode="Q" horiz-adv-x="1708" 
d="M289 717q-53 -287 114 -490q166 -202 451 -202q288 0 526 204q236 202 289 488q53 285 -115 489q-170 203 -452 203q-283 0 -524 -203q-240 -205 -289 -489zM893 -20l8 -33q25 -99 57 -156q24 -43 56 -72q72 -65 205 -65q84 0 159 37l17 -41q-90 -43 -176 -43
q-140 0 -199 45q-7 5 -22.5 15.5t-21 15t-15 14t-17.5 22.5q-33 46 -47 84q-5 13 -10 27t-6 16q-19 50 -27 91l-12 40q-305 3 -482 222q-177 212 -124 518q52 304 311 522q257 217 563 217t487 -217q178 -216 125 -522q-53 -300 -292 -508q-246 -214 -537 -229z" />
    <glyph glyph-name="R" unicode="R" horiz-adv-x="1368" 
d="M1348 68l18 -41q-77 -50 -176 -50q-65 0 -118.5 24.5t-88.5 64.5t-60.5 94.5t-38.5 111.5t-19 118.5t-5 113.5t6 98h-479l-104 -602h-52l252 1434h566q179 0 268 -123q85 -122 55 -297q-30 -173 -155 -289q-126 -120 -302 -123q-6 -51 -6 -108t6.5 -123.5t27 -126
t52 -109t84 -79t119.5 -29.5q82 0 150 41zM526 1386l-131 -737h514q158 0 271 107q112 103 139 258t-47 264q-74 108 -232 108h-514z" />
    <glyph glyph-name="S" unicode="S" horiz-adv-x="1161" 
d="M834 1409q-160 0 -287 -86q-128 -87 -152 -229q-35 -202 213 -285l250 -84q125 -40 205 -135q79 -94 55 -234q-27 -155 -174 -266q-149 -113 -362 -113q-173 0 -290.5 78t-156.5 199l58 18q33 -107 136 -177t261 -70q188 0 319 98q132 94 156 233q22 116 -44.5 200
t-186.5 122l-248 84q-288 95 -244 330q26 162 176 266q143 98 328 98q159 0 260.5 -75.5t112.5 -200.5l-52 -17q-8 109 -99.5 177.5t-233.5 68.5z" />
    <glyph glyph-name="T" unicode="T" horiz-adv-x="1216" 
d="M272 1386l9 48h1159l-8 -48h-555l-244 -1386h-51l243 1386h-553z" />
    <glyph glyph-name="U" unicode="U" horiz-adv-x="1501" 
d="M1329 510l164 924h51l-164 -924q-47 -257 -223 -393q-181 -140 -409 -140q-231 0 -365 140q-132 138 -86 393l164 924h51l-164 -924q-41 -233 78 -358q118 -127 328 -127q207 0 372 127q162 125 203 358z" />
    <glyph glyph-name="V" unicode="V" horiz-adv-x="1253" 
d="M1442 1434l-789 -1434h-55l-283 1434h58l266 -1358l745 1358h58z" />
    <glyph glyph-name="W" unicode="W" horiz-adv-x="2039" 
d="M543 0l-215 1434h53l203 -1368l651 1320h55l185 -1320l688 1368h53l-721 -1434h-63l-183 1303l-641 -1303h-65z" />
    <glyph glyph-name="X" unicode="X" horiz-adv-x="1306" 
d="M774 692l-680 -692h-67l723 735l-443 699h68l413 -656l646 656h67l-686 -699l465 -735h-68z" />
    <glyph glyph-name="Y" unicode="Y" horiz-adv-x="1243" 
d="M1434 1434l-682 -834l-105 -600h-51l104 600l-385 834h64l358 -781l633 781h64z" />
    <glyph glyph-name="Z" unicode="Z" horiz-adv-x="1243" 
d="M356 1434h1037l-9 -48l-1261 -1339h1073l-6 -47h-1139l6 47l1262 1339h-971z" />
    <glyph glyph-name="a" unicode="a" 
d="M188 508q41 227 207 377q165 151 404 151q171 0 281 -85t141 -234l53 297h49l-178 -1014h-49l49 295q-80 -148 -220.5 -233t-310.5 -85q-234 0 -350 152q-117 150 -76 379zM240 508q-38 -209 67 -346q103 -139 316 -139q207 0 366 135q156 135 197 350q38 206 -72 346
q-110 137 -326 137t-362 -137q-148 -136 -186 -346z" />
    <glyph glyph-name="b" unicode="b" 
d="M444 1481h50l-136 -762q85 150 224.5 233.5t308.5 83.5q236 0 352 -149q115 -151 74 -379q-41 -230 -209 -379q-172 -152 -406 -152q-169 0 -278.5 84t-140.5 234l-50 -295h-49zM518 858q-158 -134 -199 -350q-40 -214 74 -350q111 -135 318 -135q212 0 366 139
q152 140 189 346t-66 346q-104 137 -317 137q-208 0 -365 -133z" />
    <glyph glyph-name="c" unicode="c" horiz-adv-x="1105" 
d="M186 506q40 229 224 381q180 149 446 149q185 0 328 -110l-35 -39q-128 104 -303 104q-242 0 -404 -137q-164 -138 -204 -348q-34 -207 81 -346q113 -137 357 -137q173 0 338 104l20 -39q-181 -111 -366 -111q-263 0 -389 150q-127 151 -93 379z" />
    <glyph glyph-name="d" unicode="d" 
d="M1221 719l135 762h49l-260 -1481h-49l49 295q-80 -148 -220.5 -233t-310.5 -85q-234 0 -350 152q-117 150 -76 379q41 228 211 379q168 149 404 149q169 0 279 -84t139 -233zM989 158q156 135 197 350q40 214 -74 350q-115 133 -319 133q-216 0 -365 -137
q-153 -138 -190 -346q-38 -209 67 -346q106 -139 318 -139q207 0 366 135z" />
    <glyph glyph-name="e" unicode="e" horiz-adv-x="1212" 
d="M1063 168l27 -35q-184 -156 -435 -156q-249 0 -379 154q-131 152 -90 373t222 377q180 155 415 155q197 0 318 -121t86 -358h-979l-12 -55q-38 -203 81 -340q121 -139 347 -139q225 0 399 145zM813 991q-191 0 -338 -112q-153 -117 -213 -281h920q13 187 -89.5 290
t-279.5 103z" />
    <glyph glyph-name="f" unicode="f" horiz-adv-x="655" 
d="M963 1262l2 8q18 83 -32 135.5t-151 52.5q-109 0 -190 -84.5t-115 -259.5l-18 -100h321l-10 -45h-319l-170 -969h-50l170 969h-186l10 45h187l16 100q34 197 132 293t231 96q125 0 183.5 -64t39.5 -169q-3 -22 -19 -51h-49q17 21 17 43z" />
    <glyph glyph-name="g" unicode="g" horiz-adv-x="1327" 
d="M139 -358l29 43q145 -121 385 -121q207 0 358 127q153 128 187 332l47 272q-80 -148 -220.5 -233t-310.5 -85q-234 0 -350 152q-117 150 -76 379q41 227 207 377q165 151 404 151q171 0 281 -85t141 -234l53 297h49l-176 -991q-41 -226 -205 -365q-165 -139 -395 -139
q-252 0 -408 123zM240 508q-38 -209 67 -346q103 -139 316 -139q207 0 366 135q156 135 197 350q38 206 -72 346q-110 137 -326 137t-362 -137q-148 -136 -186 -346z" />
    <glyph glyph-name="h" unicode="h" horiz-adv-x="1222" 
d="M328 547l-95 -547h-49l260 1481h50l-127 -715q85 142 208 205q127 65 228 65q46 0 88 -6t84 -20.5t74.5 -38t61 -58t42 -81t17.5 -107.5t-11 -137l-102 -588h-49l102 588q41 218 -55 311q-95 92 -260 92q-42 0 -91 -12.5t-107.5 -45t-109.5 -81t-94.5 -128t-64.5 -177.5z
" />
    <glyph glyph-name="i" unicode="i" horiz-adv-x="434" 
d="M420 1014l-178 -1014h-49l178 1014h49zM449 1327q48 0 57 57q9 58 -37 58q-48 0 -57 -58q-9 -57 37 -57z" />
    <glyph glyph-name="j" unicode="j" horiz-adv-x="507" 
d="M444 1014h50l-207 -1166q-59 -329 -318 -329q-111 0 -164 64.5t-34 168.5q4 29 16 51h47l-14 -51q-14 -86 26.5 -137t126.5 -51q213 0 265 284zM522 1327q-44 0 -35 57q9 58 56 58q48 0 39 -58q-9 -57 -60 -57z" />
    <glyph glyph-name="k" unicode="k" horiz-adv-x="1015" 
d="M1001 70l15 -43q-71 -50 -158 -50q-51 0 -93 23.5t-89 67.5q-14 12 -53 61q-5 5 -23 29l-18 24l-260 344l-91 -526h-49l260 1481h50l-164 -930l592 463h71l-608 -477l244 -326q138 -184 239 -184q77 0 135 43z" />
    <glyph glyph-name="l" unicode="l" horiz-adv-x="434" 
d="M242 0h-49l260 1481h49z" />
    <glyph glyph-name="m" unicode="m" horiz-adv-x="1984" 
d="M1921 588l-102 -588h-50l103 588q40 220 -49 313q-90 90 -252 90q-113 0 -246 -90q-70 -47 -125.5 -140.5t-79.5 -213.5l-94 -547h-49l102 588q40 220 -49 313q-90 90 -252 90q-113 0 -246 -90q-70 -47 -125 -140.5t-79 -213.5l-95 -547h-49l178 1014h50l-43 -238
q81 134 198 197t219 63q340 0 355 -299q78 156 202 228q127 71 236 71q185 0 285 -100q101 -101 57 -348z" />
    <glyph glyph-name="n" unicode="n" horiz-adv-x="1222" 
d="M328 547l-95 -547h-49l178 1014h50l-45 -248q85 142 208 205q127 65 228 65q46 0 88 -6t84 -20.5t74.5 -38t61 -58t42 -81t17.5 -107.5t-11 -137l-102 -588h-49l102 588q41 218 -55 311q-95 92 -260 92q-42 0 -91 -12.5t-107.5 -45t-109.5 -81t-94.5 -128t-64.5 -177.5z
" />
    <glyph glyph-name="o" unicode="o" horiz-adv-x="1257" 
d="M274 131q-131 155 -90 373q41 223 224 377q183 155 401 155q217 0 350 -157q130 -158 90 -375q-41 -220 -223 -371q-184 -156 -405 -156q-220 0 -347 154zM236 504q-38 -202 79 -340q114 -141 314 -141q197 0 366 141q167 141 201 340q35 200 -82 344q-116 143 -315 143
q-198 0 -363 -143q-165 -140 -200 -344z" />
    <glyph glyph-name="p" unicode="p" 
d="M1317 506q-41 -226 -205 -377q-169 -152 -405 -152q-171 0 -281 85.5t-141 234.5l-135 -756h-50l262 1473h50l-54 -295q85 150 224.5 233.5t308.5 83.5q234 0 352 -151q115 -151 74 -379zM1266 506q37 208 -66 348q-104 137 -317 137q-209 0 -365 -135
q-158 -134 -199 -350q-37 -204 72 -344q109 -139 324 -139q213 0 364 139q149 137 187 344z" />
    <glyph glyph-name="q" unicode="q" horiz-adv-x="1327" 
d="M188 506q41 228 211 379q171 151 404 151q169 0 279 -84t139 -233l53 295h49l-262 -1473h-49l133 756q-80 -148 -222 -234t-313 -86q-238 0 -350 152q-113 149 -72 377zM240 506q-38 -208 63 -344q103 -139 315 -139q216 0 373 139q158 139 195 344q40 214 -74 350
q-114 135 -319 135q-214 0 -363 -137q-152 -137 -190 -348z" />
    <glyph glyph-name="r" unicode="r" horiz-adv-x="661" 
d="M362 1014h50l-52 -285q144 307 418 307q18 0 64 -4l-8 -49q-46 4 -64 4q-355 0 -469 -594l-68 -393h-49z" />
    <glyph glyph-name="s" unicode="s" horiz-adv-x="825" 
d="M838 864l-47 -16q-13 62 -69 102.5t-124 40.5q-119 0 -197 -69q-79 -70 -94 -158q-27 -148 152 -207l149 -47q208 -71 174 -258q-21 -124 -127 -199q-107 -76 -239 -76q-117 0 -196.5 50t-104.5 137l47 18q24 -75 91.5 -117t168.5 -42q114 0 203.5 64t107.5 165
q27 157 -147 215h2l-152 47q-213 71 -178 250q18 103 115 188q96 84 235 84q86 0 149 -45.5t81 -126.5z" />
    <glyph glyph-name="t" unicode="t" horiz-adv-x="749" 
d="M713 211l2 51h47v-51q-18 -102 -97 -168t-192 -66q-118 0 -176 70q-63 72 -29 260l117 662h-186l10 45h186l74 342h35l-60 -342h342l-10 -45h-342l-117 -662q-52 -284 164 -284q90 0 154 52.5t78 135.5z" />
    <glyph glyph-name="u" unicode="u" horiz-adv-x="1222" 
d="M1071 467l96 547h50l-179 -1014h-49l39 248q-82 -142 -205 -205q-129 -66 -227 -66q-54 0 -102 8.5t-95.5 29t-81 54t-58.5 83.5t-28.5 118t9.5 156l104 588h49l-104 -588q-41 -218 55 -311q95 -92 258 -92q109 0 254 92q75 47 133 140t82 212z" />
    <glyph glyph-name="v" unicode="v" horiz-adv-x="1009" 
d="M479 0l-239 1014h53l219 -955l561 955h53l-596 -1014h-51z" />
    <glyph glyph-name="w" unicode="w" horiz-adv-x="1701" 
d="M475 0l-235 1014h53l215 -948l485 905h51l164 -905l557 948h54l-592 -1014h-53l-166 899l-480 -899h-53z" />
    <glyph glyph-name="x" unicode="x" horiz-adv-x="1056" 
d="M616 508l-530 -508h-66l570 545l-324 469h66l299 -430l450 430h66l-492 -469l381 -545h-65z" />
    <glyph glyph-name="y" unicode="y" horiz-adv-x="1056" 
d="M246 -459l252 426l-265 1047h56l243 -989l590 989h56l-883 -1473h-49z" />
    <glyph glyph-name="z" unicode="z" horiz-adv-x="1095" 
d="M119 47h923l-6 -47h-983l8 51l1033 916h-813l8 47h876l-8 -49z" />
    <glyph glyph-name="braceleft" unicode="{" horiz-adv-x="507" 
d="M231 604l50 4q104 9 120 101q13 78 -20 258q-36 213 -14 344q18 102 91 158.5t171 56.5q42 0 65 -10l-8 -46q-15 9 -63 9q-80 0 -136 -47t-73 -136q-10 -59 20 -295q28 -251 21 -292q-21 -113 -119 -140q91 -28 70 -137q-13 -71 -119 -272q-114 -218 -129 -316
q-17 -88 22 -135t117 -47q55 0 68 8l-7 -45q-30 -10 -65 -10q-98 0 -152.5 57t-36.5 158q24 133 138 344q97 188 110 258q10 51 -10.5 72.5t-73.5 27.5l-47 5z" />
    <glyph glyph-name="sterling" unicode="&#xa3;" horiz-adv-x="1247" 
d="M524 539h-276l10 45h266q-2 26 -16 100q-3 16 -25 125q-19 87 -20 100q-6 26 -12 68q-9 59 0 117q26 159 174 264q143 98 338 98q185 0 264 -88q76 -88 61 -201h-55q15 93 -51 168q-71 74 -230 74q-170 0 -297 -86t-151 -229q-16 -54 12 -176q0 -1 21 -99q11 -50 24 -119
q7 -32 17 -116h405l-10 -45h-395q3 -79 -9 -144q-44 -241 -266 -348v-8q68 8 156 8h692l-6 -47h-1065l6 47h25q132 0 254 84q116 80 151 260q11 60 8 148z" />
    <glyph glyph-name="yen" unicode="&#xa5;" horiz-adv-x="1273" 
d="M766 600l-10 -63h418l-9 -45h-417l-33 -189h418l-11 -45h-417l-43 -258h-52l43 258h-415l10 45h416l32 189h-415l8 45h416l10 63l-385 834h63l359 -781l632 781h64z" />
    <glyph glyph-name="Euro" unicode="&#x20ac;" horiz-adv-x="1335" 
d="M391 537h-213l10 45h207q0 29 13 118q8 54 26 115h-203l7 45h208q85 267 281 432q194 164 494 164q155 0 264 -53l-31 -43q-101 49 -246 49q-259 0 -439 -145.5t-269 -403.5h725l-19 -45h-717q-17 -48 -28 -115q-12 -82 -12 -118h655l-23 -45h-635q-2 -234 131.5 -373
t380.5 -139q106 0 191 36l12 -43q-96 -41 -211 -41q-266 0 -413.5 151.5t-145.5 408.5z" />
    <glyph glyph-name="null" horiz-adv-x="0" 
 />
    <glyph glyph-name="zero.oldstyle" horiz-adv-x="1425" 
d="M1300 885q140 -152 99 -377q-41 -229 -232 -377q-195 -154 -462 -154q-270 0 -406 154q-137 152 -96 377q41 229 229 377q192 151 461 151q268 0 407 -151zM1135 164q173 136 211 344q37 205 -89 344q-125 137 -374 137q-247 0 -418 -137t-209 -344q-38 -206 88 -344
q124 -139 369 -139t422 139z" />
    <glyph glyph-name="nine.oldstyle" horiz-adv-x="1236" 
d="M1135 385q3 13 12 70h-8q-70 -120 -230 -195q-157 -74 -301 -74q-207 0 -332 119q-127 117 -92 305q34 189 199 310q162 116 371 116q261 0 374.5 -174t59.5 -477q-52 -305 -248 -514q-193 -205 -465 -205q-95 0 -176.5 24t-120.5 62l41 35q83 -74 264 -74q245 0 424 191
q176 191 228 481zM1143 573q8 43 2 86q-23 159 -126.5 244.5t-273.5 85.5q-188 0 -331 -104q-146 -107 -176 -275q-27 -168 86 -272q114 -105 294 -105q160 0 330 99q167 93 195 241z" />
    <glyph glyph-name="eight.oldstyle" horiz-adv-x="1345" 
d="M1337 1012q-17 -104 -104.5 -188t-222.5 -122q159 -37 231 -123t49 -208q-30 -172 -205 -283q-176 -111 -419 -111q-242 0 -377 111q-134 110 -107 279q21 121 123 210.5t270 127.5q-120 38 -176 119.5t-37 185.5q27 148 181 243t368 95q213 0 334 -95q116 -94 92 -241z
M784 678q-230 0 -376.5 -86.5t-171.5 -224.5q-27 -151 96 -246q125 -96 342 -96q225 0 379 98q157 95 184 246q25 140 -93.5 224.5t-359.5 84.5zM492 801q98 -82 303 -82q201 0 335 84q133 83 154 209q23 128 -83.5 208t-301.5 80t-326 -79q-136 -83 -157 -209
q-21 -130 76 -211z" />
    <glyph glyph-name="seven.oldstyle" horiz-adv-x="1040" 
d="M1210 1014l-10 -45l-1018 -1303h-61l1024 1301h-922l10 47h977z" />
    <glyph glyph-name="six.oldstyle" horiz-adv-x="1265" 
d="M289 629q-1 -6 -2.5 -19l-3 -26t-2.5 -25h8q72 122 227 195t299 73q206 0 334 -116q127 -120 92 -308q-35 -191 -197 -307q-162 -119 -372 -119q-261 0 -374.5 174.5t-59.5 477.5q55 308 249 514q193 205 463 205q95 0 176.5 -24t120.5 -62l-41 -35q-82 73 -266 73
q-247 0 -422 -190q-177 -192 -229 -481zM283 440q-8 -44 -4 -86q23 -156 127.5 -242.5t273.5 -86.5q191 0 334 104q144 105 174 274q27 171 -84 273q-113 104 -297 104q-158 0 -330 -96q-166 -97 -194 -244z" />
    <glyph glyph-name="five.oldstyle" horiz-adv-x="1165" 
d="M260 395l-6 -2v2l-37 21l150 598h780l-8 -47h-736l-131 -521q217 91 400 91q243 0 352 -127q109 -130 74 -312q-34 -184 -189 -309q-156 -123 -403 -123q-124 0 -244 31.5t-186 81.5l37 37q60 -44 173.5 -73.5t225.5 -29.5q224 0 362 111q141 113 170 276q30 163 -65 277
q-93 112 -317 112q-154 0 -402 -94z" />
    <glyph glyph-name="four.oldstyle" horiz-adv-x="1376" 
d="M1063 918l-901 -777h762zM840 -334l75 424h-843l6 37l1022 887h30l-155 -873h344l-8 -51h-344l-76 -424h-51z" />
    <glyph glyph-name="three.oldstyle" horiz-adv-x="1169" 
d="M664 440q-170 0 -250 -45l-25 37l701 531h-795l10 51h899l-4 -25l-676 -514l2 -6q68 18 154 18q208 0 328 -108q119 -109 84 -291q-34 -184 -199 -303q-168 -119 -432 -119q-286 0 -406 111l39 39q51 -47 152.5 -75t224.5 -28q239 0 389 105q151 109 178 270
q27 169 -77 260q-109 92 -297 92z" />
    <glyph glyph-name="two.oldstyle" horiz-adv-x="1234" 
d="M127 0l4 53l660 344q181 96 268.5 177.5t105.5 179.5q20 107 -88 171t-299 64q-183 0 -296.5 -48.5t-151.5 -127.5h-51q39 100 167 161.5t340 61.5q213 0 334 -75q123 -76 99 -207q-20 -111 -118 -204t-296 -194l-592 -309h922l-7 -47h-1001z" />
    <glyph glyph-name="one.oldstyle" horiz-adv-x="980" 
d="M750 1014l-172 -967h364l-6 -47h-803l6 47h387l160 899l-418 -182v49l451 201h31z" />
    <glyph glyph-name="y.alt" horiz-adv-x="1056" 
d="M500 -33l-264 1047h55l244 -989l589 989h56l-547 -916q-334 -579 -674 -579q-103 0 -182 49l30 43q83 -47 158 -47q258 0 535 403z" />
    <glyph glyph-name="g.alt" horiz-adv-x="1136" 
d="M389 348q-126 -52 -147 -147q-16 -100 45 -125q56 -25 127 -27l366 -8q169 0 224 -76t40 -164q-23 -129 -175.5 -205.5t-391.5 -76.5q-292 0 -416 127q-70 70 -55 176q21 134 199 250q-29 57 -15 125q18 109 154 180q-138 114 -108 287q27 153 178 262q150 108 331 108
q205 0 316 -135q57 13 102.5 49t55.5 88q9 31 0 43h51q3 -24 0 -45q-21 -122 -183 -174q51 -83 33 -196q-28 -156 -176 -263q-150 -108 -332 -108q-125 0 -223 55zM442 893q-134 -96 -155 -229q-22 -136 75 -228q101 -96 261 -96q158 0 292 96q133 95 154 228
q21 134 -74 229q-98 94 -260 94t-293 -94zM57 -178q-15 -85 47 -146t162 -87t215 -23q215 0 353.5 64t158.5 171q13 75 -32 131q-47 62 -187 62l-371 8q-118 9 -165 39q-161 -103 -181 -219z" />
    <glyph glyph-name="a.alt" horiz-adv-x="1118" 
d="M946 270l37 205q-177 57 -408 57q-170 0 -272.5 -69t-122.5 -180q-21 -124 70 -191t229 -67q111 0 244 65q129 63 223 180zM950 0h-49l33 199q-207 -222 -467 -222q-156 0 -260 82q-104 79 -80 222q24 132 144 215.5t309 83.5q214 0 409 -62l17 92q68 379 -289 379
q-211 0 -381 -108l-14 43q169 112 405 112q403 0 330 -426z" />
  </font>
</defs>
</svg>
