<?xml version="1.0" standalone="no"?>
<!DOCTYPE svg PUBLIC "-//W3C//DTD SVG 1.1//EN" "http://www.w3.org/Graphics/SVG/1.1/DTD/svg11.dtd" >
<svg xmlns="http://www.w3.org/2000/svg" xmlns:xlink="http://www.w3.org/1999/xlink" version="1.1">
<metadata>
Created by FontForge 20170731 at Fri Oct 16 12:01:31 2020
 By Aleksey,,,
Copyright (c) Olivier Gourvat - Mostardesign Studio, 2014. All rights reserved.
</metadata>
<defs>
<font id="FilsonProHeavy-Heavy" horiz-adv-x="1363" >
  <font-face 
    font-family="FilsonProHeavy"
    font-weight="800"
    font-stretch="normal"
    units-per-em="2048"
    panose-1="2 0 9 3 0 0 0 0 0 0"
    ascent="1638"
    descent="-410"
    x-height="1061"
    cap-height="1434"
    bbox="-215 -473 1999 1847"
    underline-thickness="102"
    underline-position="-409"
    unicode-range="U+0020-FB01"
  />
<missing-glyph horiz-adv-x="1378" 
d="M1174 0h-969v1436h969v-1436zM582 526h123q0 64 24 82q11 4 70 43q72 54 84 66q104 104 104 215q0 120 -89 193t-226 73q-141 0 -221 -67t-80 -160q0 -53 18 -94h129q-16 40 -16 90q0 51 44.5 83.5t117.5 32.5q86 0 135 -41t49 -110v-4q0 -65 -40.5 -113.5t-137.5 -107.5
q-64 -37 -76 -64t-12 -117zM545 295q0 -43 28.5 -71.5t69.5 -28.5q43 0 72.5 28.5t29.5 71.5q0 41 -29.5 70.5t-72.5 29.5q-41 0 -69.5 -29.5t-28.5 -70.5z" />
    <glyph glyph-name=".notdef" horiz-adv-x="1378" 
d="M1174 0h-969v1436h969v-1436zM582 526h123q0 64 24 82q11 4 70 43q72 54 84 66q104 104 104 215q0 120 -89 193t-226 73q-141 0 -221 -67t-80 -160q0 -53 18 -94h129q-16 40 -16 90q0 51 44.5 83.5t117.5 32.5q86 0 135 -41t49 -110v-4q0 -65 -40.5 -113.5t-137.5 -107.5
q-64 -37 -76 -64t-12 -117zM545 295q0 -43 28.5 -71.5t69.5 -28.5q43 0 72.5 28.5t29.5 71.5q0 41 -29.5 70.5t-72.5 29.5q-41 0 -69.5 -29.5t-28.5 -70.5z" />
    <glyph glyph-name=".null" horiz-adv-x="0" 
 />
    <glyph glyph-name="nonmarkingreturn" horiz-adv-x="681" 
 />
    <glyph glyph-name="space" unicode=" " horiz-adv-x="479" 
 />
    <glyph glyph-name="exclam" unicode="!" horiz-adv-x="628" 
d="M528 1434v-91l-90 -851h-245l-91 851v91h426zM102 164q0 82 59 136t150 54t152 -54t61 -136q0 -80 -61 -133.5t-152 -53.5q-90 0 -149.5 53.5t-59.5 133.5z" />
    <glyph glyph-name="dollar" unicode="$" horiz-adv-x="1212" 
d="M66 424l292 61q47 -170 209 -188v283l-67 24q-165 57 -268.5 166t-104.5 240q0 175 123 286q122 110 317 125v158h123v-160q294 -34 402 -319l-279 -111q-46 107 -123 137v-260l60 -20q376 -122 385 -418q0 -183 -127 -289q-125 -107 -318 -125v-161h-123v157
q-202 12 -340 123q-140 110 -161 291zM795 420q0 70 -105 117v-232q105 27 105 115zM469 1026q0 -74 98 -117v224q-98 -21 -98 -107z" />
    <glyph glyph-name="ampersand" unicode="&#x26;" horiz-adv-x="1630" 
d="M1028 145q-89 -96 -187.5 -132t-244.5 -36q-226 0 -377 115q-153 114 -153 307q0 143 93 253.5t251 174.5q-144 132 -144 285q0 167 133 256q131 88 308 88q173 0 282 -100q111 -102 111 -236q0 -102 -72.5 -195.5t-193.5 -154.5l157 -170l152 188h303v-65l-275 -332
q106 -121 168 -121q95 0 166 68l119 -223q-138 -138 -311 -138q-49 -7 -101.5 17.5t-85.5 52.5q-12 9 -51 51zM807 346l-238 266q-73 -32 -117 -85.5t-44 -110.5q0 -69 57 -114.5t145 -45.5q113 0 197 90zM573 1092q0 -60 89 -152q135 76 135 154q0 44 -31.5 78t-79.5 34
q-49 0 -81 -34t-32 -80z" />
    <glyph glyph-name="parenright" unicode=")" horiz-adv-x="706" 
d="M223 113q180 504 0 1005q-88 244 -188 389l211 117q117 -121 241 -354q68 -133 109 -306t41 -348t-41 -347.5t-109 -305.5q-124 -233 -241 -354l-211 117q99 138 188 387z" />
    <glyph glyph-name="comma" unicode="," horiz-adv-x="577" 
d="M123 -340l-74 117q76 30 144 104q66 72 69 144q-73 -1 -124.5 51.5t-53.5 120.5q-2 84 52.5 139t150.5 55q106 0 153 -72q47 -74 47 -151q0 -159 -108 -309q-107 -149 -256 -199z" />
    <glyph glyph-name="hyphen" unicode="-" horiz-adv-x="1001" 
d="M885 487h-770v295h770v-295z" />
    <glyph glyph-name="period" unicode="." horiz-adv-x="583" 
d="M82 164q0 84 59 138t150 54t152 -55t61 -137q0 -80 -61 -133.5t-152 -53.5q-90 0 -149.5 53.5t-59.5 133.5z" />
    <glyph glyph-name="zero" unicode="0" horiz-adv-x="1470" 
d="M1389 717q0 -316 -181 -527q-183 -213 -475 -213q-293 0 -473 213q-178 211 -178 527q0 317 178 528t473 211q294 0 475 -211t181 -528zM1034 717q0 196 -82 327q-83 130 -219 130q-137 0 -217 -130q-80 -133 -80 -327q0 -198 82 -326q79 -131 215 -131q137 0 219 131
t82 326z" />
    <glyph glyph-name="one" unicode="1" horiz-adv-x="884" 
d="M102 930l-88 268l535 236h203v-1434h-355v1042q-14 -7 -155 -59q-97 -36 -140 -53z" />
    <glyph glyph-name="two" unicode="2" horiz-adv-x="1290" 
d="M877 492l-277 -220q110 13 250 13h352v-285h-1083l-33 211l547 487q188 167 188 295q0 79 -53.5 125.5t-144.5 46.5q-104 0 -155.5 -54.5t-51.5 -141.5h-338q0 176 123 323q63 75 175 119.5t251 44.5q239 0 393 -127q151 -130 151 -342q0 -250 -294 -495z" />
    <glyph glyph-name="three" unicode="3" horiz-adv-x="1292" 
d="M567 264q125 0 206 67t81 161q0 92 -69 150t-169 58q-106 0 -188 -36l-125 178l381 305h-555v287h1030v-203l-385 -318q174 -9 305 -131q127 -121 127 -295q0 -219 -168 -362q-171 -148 -456 -148q-345 0 -539 179l164 219q187 -111 360 -111z" />
    <glyph glyph-name="four" unicode="4" horiz-adv-x="1390" 
d="M713 971l-312 -348h312v348zM711 0v348h-670v232l760 854h264v-811h278v-275h-278v-348h-354z" />
    <glyph glyph-name="five" unicode="5" horiz-adv-x="1290" 
d="M596 266q118 0 196 66t78 166q0 88 -67.5 144t-171.5 56q-73 0 -152 -28.5t-121 -75.5l-231 88l47 752h952v-287h-647l-16 -270h10q100 75 275 75q200 0 337 -131q140 -134 140 -321q0 -236 -162 -379q-163 -144 -447 -144q-355 0 -555 179l166 221q175 -111 369 -111z
" />
    <glyph glyph-name="six" unicode="6" horiz-adv-x="1366" 
d="M770 1163q-124 0 -227 -86q-102 -89 -111 -272h6q51 67 144 109t188 42q211 0 363 -131q153 -132 153 -348q0 -219 -160 -358q-160 -142 -419 -142q-287 0 -455 195q-168 192 -168 516q0 335 170 553q170 215 496 215q319 0 510 -203l-191 -196q-112 106 -299 106z
M694 694q-113 0 -178 -59.5t-65 -149.5q0 -94 66 -158.5t175 -64.5q101 0 171.5 62t70.5 153q0 96 -67.5 156.5t-172.5 60.5z" />
    <glyph glyph-name="seven" unicode="7" horiz-adv-x="1177" 
d="M737 1147h-680v287h1094v-209l-625 -1225h-401z" />
    <glyph glyph-name="eight" unicode="8" horiz-adv-x="1368" 
d="M686 858q89 0 142 49t53 115q0 63 -56 107.5t-141 44.5t-141 -44.5t-56 -107.5q0 -66 53.5 -115t145.5 -49zM684 -23q-270 0 -436 123q-166 120 -166 332q0 116 74 211t176 125q-80 28 -137 106q-62 77 -62 170q0 187 154 302q149 110 397 110q249 0 401 -113
q152 -116 152 -299q0 -94 -61 -170q-60 -78 -140 -106q97 -26 176 -123q74 -95 74 -213q0 -212 -164 -332q-166 -123 -438 -123zM684 268q108 0 177 53t69 130t-66 132.5t-174 55.5q-114 1 -183 -54t-69 -134q0 -76 69.5 -129.5t176.5 -53.5z" />
    <glyph glyph-name="nine" unicode="9" horiz-adv-x="1366" 
d="M596 268q126 0 227 88q102 88 111 271h-6q-47 -67 -140.5 -109.5t-191.5 -42.5q-211 0 -363 131q-153 132 -153 348q0 221 162 361q159 141 417 141q287 0 457 -194q166 -196 166 -519q0 -335 -170 -550q-171 -216 -494 -216t-512 201l191 197q113 -107 299 -107z
M672 737q113 0 178 59.5t65 149.5q0 94 -65 158.5t-174 64.5q-103 0 -173.5 -61.5t-70.5 -153.5q0 -96 67.5 -156.5t172.5 -60.5z" />
    <glyph glyph-name="question" unicode="?" horiz-adv-x="1114" 
d="M655 492h-299v65q5 75 35 126t111 103q106 68 149 119.5t43 118.5q0 66 -40 101.5t-105 35.5q-63 0 -109.5 -36t-46.5 -95q0 -44 21 -90h-326q-22 61 -22 119q0 69 30 137t87 127t152.5 96t213.5 37q225 0 362 -113q140 -116 140 -296q0 -128 -80.5 -233t-263.5 -222
q-52 -30 -52 -100zM295 164q0 82 59 136t150 54t152 -54t61 -136q0 -80 -61 -133.5t-152 -53.5q-90 0 -149.5 53.5t-59.5 133.5z" />
    <glyph glyph-name="at" unicode="@" horiz-adv-x="2076" 
d="M1579 111q118 2 184 121.5t66 347.5q0 327 -217 538t-570 211q-346 0 -575 -235t-229 -590q0 -353 215 -588q211 -231 555 -231q237 0 411 79q2 -4 35 -69l35 -68q-213 -100 -481 -100q-416 0 -674 276q-260 275 -260 701q0 425 276 704q273 279 692 279q425 0 689 -252
q262 -256 262 -655q0 -311 -115.5 -474t-318.5 -163q-270 0 -308 213q-52 -73 -140.5 -112.5t-182.5 -39.5q-197 0 -324 139t-127 349q0 211 129 352q127 139 326 139q192 0 295 -145v125h274v-748q0 -104 78 -104zM817 680q-63 -75 -63 -188t65 -187q64 -76 172 -76
q105 0 170.5 72t65.5 188t-66.5 190.5t-171.5 74.5q-107 0 -172 -74z" />
    <glyph glyph-name="A" unicode="A" horiz-adv-x="1456" 
d="M471 254l-94 -254h-375l555 1434h338l563 -1434h-381l-98 254h-508zM897 545l-170 504l-178 -504h348z" />
    <glyph glyph-name="B" unicode="B" horiz-adv-x="1376" 
d="M1247 1034q0 -90 -59.5 -168t-165.5 -118q121 -21 205 -125q82 -101 82 -211q0 -183 -146 -299q-143 -113 -381 -113h-630v1436l571 -2q233 -3 377 -109q147 -108 147 -291zM680 604h-166v-311h260q77 0 123.5 38.5t46.5 100.5q0 77 -64.5 124.5t-199.5 47.5zM514 1145
v-299h154q215 0 215 158q0 66 -49 103.5t-129 37.5h-191z" />
    <glyph glyph-name="C" unicode="C" horiz-adv-x="1417" 
d="M287 193q-219 216 -219 524t219 524q218 215 571 215q156 0 279 -48.5t249 -152.5l-176 -256q-152 140 -352 140q-191 0 -309 -121q-117 -120 -117 -301t117 -301q118 -121 309 -121q201 0 352 139l176 -256q-126 -104 -249 -152.5t-279 -48.5q-352 0 -571 216z" />
    <glyph glyph-name="D" unicode="D" horiz-adv-x="1562" 
d="M772 0h-620v1434h620q308 0 514 -209q207 -210 207 -508q0 -301 -207 -508q-206 -209 -514 -209zM705 1135h-191v-836h191q195 0 309 115.5t114 302.5t-114 302.5t-309 115.5z" />
    <glyph glyph-name="E" unicode="E" horiz-adv-x="1228" 
d="M1139 299v-299h-987v1434h987v-299h-625v-285h543v-283h-543v-268h625z" />
    <glyph glyph-name="F" unicode="F" horiz-adv-x="1204" 
d="M514 567v-567h-362v1434h985v-299h-623v-285h541v-283h-541z" />
    <glyph glyph-name="G" unicode="G" horiz-adv-x="1503" 
d="M68 717q0 310 217 524q218 215 569 215q273 0 514 -182l-190 -252q-140 113 -312 113q-212 0 -323 -123q-111 -126 -111 -299q0 -180 117 -297q114 -117 297 -117q131 0 227 41v186h-338v275h680v-600q-254 -224 -569 -224q-339 0 -557 218q-221 215 -221 522z" />
    <glyph glyph-name="H" unicode="H" horiz-adv-x="1521" 
d="M1370 1434v-1434h-362v541h-494v-541h-362v1434h362v-603h494v603h362z" />
    <glyph glyph-name="I" unicode="I" horiz-adv-x="665" 
d="M152 1434h362v-1434h-362v1434z" />
    <glyph glyph-name="J" unicode="J" horiz-adv-x="1339" 
d="M43 477q0 148 84 264h336q-70 -107 -70 -225q0 -99 55 -165t158 -66q124 0 181 83.5t57 258.5v807h362v-807q0 -323 -152 -486.5t-442 -163.5q-150 0 -265.5 45.5t-180.5 124.5q-123 149 -123 330z" />
    <glyph glyph-name="K" unicode="K" horiz-adv-x="1406" 
d="M709 274l-195 392v-666h-362v1434h362v-641l391 641h367v-50l-416 -645l160 -307q53 -107 90 -133q40 -29 96 -29q43 0 101 37l118 -252q-147 -78 -288 -78q-287 0 -424 297z" />
    <glyph glyph-name="L" unicode="L" horiz-adv-x="1198" 
d="M514 1434v-1135h645v-299h-1007v1434h362z" />
    <glyph glyph-name="M" unicode="M" horiz-adv-x="1898" 
d="M1380 784l-313 -768h-236l-313 768l-65 -784h-363l133 1434h355l370 -906l373 906h354l133 -1434h-362z" />
    <glyph glyph-name="N" unicode="N" horiz-adv-x="1515" 
d="M1364 0h-279l-571 797v-797h-362v1434h280l569 -787v787h363v-1434z" />
    <glyph glyph-name="O" unicode="O" horiz-adv-x="1658" 
d="M1372 195q-218 -218 -543 -218q-324 0 -542 218q-217 214 -217 522q0 307 217 524q218 215 542 215q325 0 543 -215q217 -217 217 -524q0 -308 -217 -522zM547 420q112 -121 282 -121t285 121q113 119 113 297q0 180 -113 299t-285 119t-282 -119q-113 -119 -113 -299
q0 -178 113 -297z" />
    <glyph glyph-name="P" unicode="P" horiz-adv-x="1341" 
d="M514 477v-477h-362v1434h657q223 0 354 -140q127 -142 127 -346q0 -205 -127 -338q-130 -133 -354 -133h-295zM514 1135v-371h252q71 0 115.5 51.5t44.5 130.5q0 83 -44.5 136t-115.5 53h-252z" />
    <glyph glyph-name="Q" unicode="Q" horiz-adv-x="1656" 
d="M1446 -80l110 -246q-162 -110 -360 -110q-223 0 -360 119q-142 121 -160 309q-265 52 -436 256q-172 202 -172 469q0 305 219 524q218 215 542 215q325 0 543 -215q217 -217 217 -524q0 -255 -159 -455q-159 -199 -412 -264q7 -71 60 -109.5t139 -38.5q116 0 229 70z
M545 420q115 -121 284 -121q170 0 285 121q111 120 111 297q0 179 -111 299q-113 119 -285 119q-171 0 -284 -119t-113 -299q0 -178 113 -297z" />
    <glyph glyph-name="R" unicode="R" horiz-adv-x="1458" 
d="M514 1126v-356h256q71 0 115.5 50t44.5 126q0 79 -44.5 129.5t-115.5 50.5h-256zM1294 950q0 -155 -82 -269.5t-225 -158.5q53 -243 213 -243q84 0 150 57l120 -242q-159 -117 -342 -117q-147 3 -246.5 79t-154.5 196q-59 122 -76 246h-137v-498h-362v1434h661
q223 0 354 -140q127 -139 127 -344z" />
    <glyph glyph-name="S" unicode="S" horiz-adv-x="1239" 
d="M51 410l307 65q52 -199 258 -199q89 0 143 34t54 96q0 88 -147 137l-160 57q-174 58 -282 172t-109 252q0 192 145 313q143 119 369 119q366 0 495 -338l-290 -117q-65 156 -203 156q-71 0 -114.5 -30.5t-43.5 -86.5q0 -88 139 -135l154 -53q394 -128 403 -436
q0 -212 -159 -326q-158 -113 -387 -113q-231 0 -387 117q-161 115 -185 316z" />
    <glyph glyph-name="T" unicode="T" horiz-adv-x="1239" 
d="M43 1135v299h1151v-299h-397v-1135h-363v1135h-391z" />
    <glyph glyph-name="U" unicode="U" horiz-adv-x="1476" 
d="M979 547v887h362v-887q0 -268 -172 -418q-178 -152 -432 -152q-255 0 -430 152q-172 150 -172 418v887h363v-887q0 -122 67 -192t172 -70q106 0 174 70.5t68 191.5z" />
    <glyph glyph-name="V" unicode="V" horiz-adv-x="1404" 
d="M864 0h-325l-510 1434h387l286 -953l287 953h387z" />
    <glyph glyph-name="W" unicode="W" horiz-adv-x="2035" 
d="M889 1386h262l238 -765l237 813h373l-453 -1434h-282l-246 801l-246 -801h-283l-452 1434h373l237 -813z" />
    <glyph glyph-name="X" unicode="X" horiz-adv-x="1431" 
d="M1024 0l-309 471l-309 -471h-404v49l502 709l-463 626v50h403l271 -400l270 400h406v-50l-463 -626l502 -709v-49h-406z" />
    <glyph glyph-name="Y" unicode="Y" horiz-adv-x="1527" 
d="M29 1434h411l324 -533l326 533h409v-50l-553 -798v-586h-362v580l-555 804v50z" />
    <glyph glyph-name="Z" unicode="Z" horiz-adv-x="1390" 
d="M537 299h794v-299h-1278v225l738 910h-676v299h1165v-228z" />
    <glyph glyph-name="a" unicode="a" 
d="M414 532q0 -121 66.5 -199.5t174.5 -78.5q107 0 176.5 73.5t69.5 194.5q0 127 -68.5 205t-181.5 78q-107 0 -172 -77t-65 -196zM893 920v141h352v-1061h-352v145q-107 -168 -322 -168q-223 0 -368 160q-144 156 -144 395q0 237 142 394q139 157 368 157q102 0 188 -43.5
t136 -119.5z" />
    <glyph glyph-name="b" unicode="b" horiz-adv-x="1361" 
d="M1303 532q0 -238 -142 -395q-145 -160 -370 -160q-213 0 -320 168v-145h-352v1481h352v-561q52 76 136.5 119.5t187.5 43.5q229 0 368 -157q140 -158 140 -394zM948 532q0 119 -64 196t-171 77q-113 0 -181.5 -78t-68.5 -205q0 -121 68.5 -194.5t175.5 -73.5
q108 0 174.5 78.5t66.5 199.5z" />
    <glyph glyph-name="c" unicode="c" horiz-adv-x="1140" 
d="M225 135q-170 156 -170 395q0 240 170 396q171 157 439 157q246 0 442 -161q-1 -1 -28 -39l-54 -76q-10 -14 -84 -117q-110 98 -256 98q-122 0 -198 -71.5t-76 -186.5t76 -187.5t198 -72.5q145 0 256 99q40 -56 84 -115q27 -38 54 -77t28 -40q-201 -160 -442 -160
q-267 0 -439 158z" />
    <glyph glyph-name="d" unicode="d" 
d="M414 532q0 -121 66.5 -199.5t174.5 -78.5q107 0 176.5 73.5t69.5 194.5q0 127 -68.5 205t-181.5 78q-107 0 -172 -77t-65 -196zM893 920v561h352v-1481h-352v145q-107 -168 -322 -168q-223 0 -368 160q-144 156 -144 395q0 237 142 394q139 157 368 157q102 0 188 -43.5
t136 -119.5z" />
    <glyph glyph-name="e" unicode="e" horiz-adv-x="1263" 
d="M680 -23q-283 0 -455 158q-168 155 -168 391q0 234 164 398q164 159 428 159q253 0 408 -149q157 -151 157 -424q0 -35 -2 -45h-817q5 -83 92.5 -144t223.5 -61q154 0 290 115q6 -6 86 -99q64 -77 89 -102q-188 -197 -496 -197zM805 780q-49 30 -115.5 37.5t-127.5 -7
t-107.5 -56t-55.5 -101.5h484q-9 85 -78 127z" />
    <glyph glyph-name="f" unicode="f" horiz-adv-x="839" 
d="M537 1153v-109h225v-249h-221v-795h-353v795h-135v249h135v66q0 89 24 158.5t62.5 113t92 71.5t107.5 39t114 11q162 0 259 -84t97 -225q0 -35 -10 -68h-260q8 8 8 33q0 82 -74 82q-35 0 -53 -25t-18 -63z" />
    <glyph glyph-name="g" unicode="g" 
d="M897 145q-107 -168 -324 -168q-225 0 -370 160q-144 159 -144 395q0 232 142 392q141 159 368 159q97 0 184 -44t142 -119v141h352v-942q0 -306 -168 -449t-432 -143q-320 0 -512 143l133 254q159 -114 322 -114q157 0 230 74t77 261zM414 532q0 -121 67 -200.5
t176 -79.5q107 0 175.5 74t68.5 196q0 128 -69 207.5t-179 79.5q-108 0 -173.5 -78.5t-65.5 -198.5z" />
    <glyph glyph-name="h" unicode="h" horiz-adv-x="1265" 
d="M471 0h-352v1481h352v-559q106 161 315 161q375 0 375 -489v-594h-352v573q0 228 -168 228q-85 0 -127.5 -62t-42.5 -166v-573z" />
    <glyph glyph-name="i" unicode="i" horiz-adv-x="593" 
d="M473 1061v-1061h-352v1061h352zM88 1323q0 80 57.5 130t153.5 50t153.5 -50t57.5 -130q0 -78 -59.5 -128t-151.5 -50q-93 0 -152 50t-59 128z" />
    <glyph glyph-name="j" unicode="j" horiz-adv-x="673" 
d="M201 -123v1184h352v-1141q0 -89 -23.5 -158.5t-62 -113t-91.5 -71.5t-107 -39t-113 -11q-168 0 -269.5 82.5t-101.5 226.5q0 30 10 68h266q-2 -6 -2 -33q0 -82 72 -82q70 0 70 88zM166 1323q0 80 57.5 130t153.5 50t153.5 -50t57.5 -130q0 -78 -59.5 -128t-151.5 -50
q-93 0 -152 50t-59 128z" />
    <glyph glyph-name="k" unicode="k" horiz-adv-x="1265" 
d="M469 1481v-848l285 428h379v-47l-340 -441l122 -204q58 -88 140 -88q56 0 108 34q78 -147 119 -231q-125 -107 -297 -107q-132 0 -220 60.5t-173 214.5l-123 223v-475h-352v1481h352z" />
    <glyph glyph-name="l" unicode="l" horiz-adv-x="589" 
d="M471 1481v-1481h-352v1481h352z" />
    <glyph glyph-name="m" unicode="m" horiz-adv-x="1857" 
d="M1255 801q-143 0 -143 -223v-578h-352v580q0 99 -36 160t-108 61q-145 0 -145 -223v-578h-352v1061h352v-141q41 78 111.5 120.5t156.5 42.5q217 0 305 -168q107 168 332 168q104 0 182.5 -42t118.5 -117q76 -141 76 -330v-594h-352v580q0 99 -37 160t-109 61z" />
    <glyph glyph-name="n" unicode="n" horiz-adv-x="1265" 
d="M471 0h-352v1061h352v-139q106 161 315 161q375 0 375 -489v-594h-352v573q0 99 -42.5 163.5t-125.5 64.5q-85 0 -127.5 -62t-42.5 -166v-573z" />
    <glyph glyph-name="o" unicode="o" horiz-adv-x="1306" 
d="M1077 922q174 -162 174 -392q0 -229 -174 -391t-424 -162q-248 0 -422 162q-176 164 -176 391q0 228 176 392q173 161 422 161q251 0 424 -161zM469 721q-74 -77 -74 -191t74 -188q71 -74 184 -74t187 74q71 74 71 188t-71 191q-74 74 -187 74t-184 -74z" />
    <glyph glyph-name="p" unicode="p" 
d="M950 528q0 120 -67 198.5t-174 78.5q-108 0 -177 -72.5t-69 -193.5q0 -129 68.5 -207t181.5 -78q107 0 172 77.5t65 196.5zM471 139v-588h-352v1510h352v-146q110 168 322 168q223 0 368 -157q144 -159 144 -400q0 -233 -140 -391q-143 -158 -370 -158
q-101 0 -186.5 43.5t-137.5 118.5z" />
    <glyph glyph-name="q" unicode="q" horiz-adv-x="1357" 
d="M479 727q-65 -80 -65 -199q0 -121 63 -196q66 -78 172 -78q113 0 181.5 78t68.5 207q0 121 -68.5 193.5t-175.5 72.5q-110 0 -176 -78zM1243 1061v-1510h-352v588q-52 -75 -137.5 -118.5t-186.5 -43.5q-228 0 -368 158t-140 391q0 241 144 400q142 157 368 157
q210 0 320 -168v146h352z" />
    <glyph glyph-name="r" unicode="r" horiz-adv-x="851" 
d="M119 1061h340v-227q16 86 72 148t118 83q55 18 105 18q36 0 71 -6v-344q-55 15 -133 15q-102 0 -161.5 -59.5t-59.5 -158.5v-530h-352v1061z" />
    <glyph glyph-name="s" unicode="s" horiz-adv-x="1009" 
d="M43 276l256 103q35 -146 203 -146q123 0 123 70q0 20 -16.5 35.5t-59.5 34.5l-176 73q-283 102 -283 316q0 145 125 233t307 88q291 0 404 -241l-264 -101q-35 95 -144 95q-43 0 -71.5 -20t-28.5 -52q0 -46 88 -76l141 -57q307 -114 307 -328q0 -155 -131 -240
q-133 -86 -325 -86q-174 0 -294.5 73.5t-160.5 225.5z" />
    <glyph glyph-name="t" unicode="t" horiz-adv-x="966" 
d="M952 315q0 -158 -99.5 -248t-270.5 -90q-385 0 -385 381v437h-154v266h184l47 260h273v-260h278v-266h-278v-455q0 -82 67 -82q72 0 72 92q0 49 -16 92h252q27 -49 30 -127z" />
    <glyph glyph-name="u" unicode="u" horiz-adv-x="1265" 
d="M795 1061h352v-1061h-352v139q-107 -162 -314 -162q-377 0 -377 488v596h353v-576q0 -227 168 -227q170 0 170 229v574z" />
    <glyph glyph-name="v" unicode="v" horiz-adv-x="1269" 
d="M874 1061h383l-454 -1061h-334l-459 1061h383l240 -674z" />
    <glyph glyph-name="w" unicode="w" horiz-adv-x="1695" 
d="M410 1061l157 -584l168 555h223l170 -555l156 584h389l-377 -1061h-284l-164 549l-164 -549h-285l-376 1061h387z" />
    <glyph glyph-name="x" unicode="x" horiz-adv-x="1269" 
d="M1272 0h-381l-256 319l-256 -319h-381v37l426 510l-383 481v33h397l197 -268l196 268h398v-33l-383 -481l426 -510v-37z" />
    <glyph glyph-name="y" unicode="y" horiz-adv-x="1243" 
d="M209 -449l240 543l-439 967h391l224 -615l233 615h379l-674 -1510h-354z" />
    <glyph glyph-name="z" unicode="z" horiz-adv-x="1212" 
d="M573 274h578v-274h-1088v199l549 587h-526v275h1034v-203z" />
    <glyph glyph-name="braceleft" unicode="{" horiz-adv-x="825" 
d="M389 616v-20q83 -18 126.5 -70t43.5 -114q0 -75 -61 -224q-62 -151 -62 -227q0 -141 137 -141q55 0 199 16v-215q-194 -18 -250 -18q-169 0 -282 82q-115 83 -115 249q0 67 17.5 131t56.5 156q35 84 53 148q8 24 7 43.5t-5 33t-20.5 24.5t-27 16.5t-37.5 11.5t-38 7.5
t-43 5.5q-15 2 -22 3v184q103 14 132 25q83 31 54 121q-13 44 -53.5 148.5t-53.5 148.5q-20 61 -20 137q0 167 115 250q113 82 282 82q46 0 250 -19v-215q-153 17 -199 17q-137 0 -137 -142q0 -74 62 -225q61 -149 61 -225q0 -62 -43.5 -114.5t-126.5 -70.5z" />
    <glyph glyph-name="sterling" unicode="&#xa3;" horiz-adv-x="1312" 
d="M985 717v-156h-283q13 -44 13 -80q0 -113 -94 -207q125 11 251 11h363v-285h-1161v276q309 27 309 193q0 29 -14 92h-254v156h184q-78 200 -78 315q0 183 146 305q143 119 358 119q98 0 179 -27.5t134.5 -72t91 -104t54 -122t16.5 -126.5h-323q0 64 -41.5 101.5
t-118.5 37.5q-69 0 -109.5 -33.5t-40.5 -95.5q0 -99 82 -297h336z" />
    <glyph glyph-name="yen" unicode="&#xa5;" horiz-adv-x="1581" 
d="M1303 373v-162h-330v-211h-363v211h-331v162h331v149h-331v162h260l-484 700v50h412l324 -533l325 533h410v-50l-486 -700h263v-162h-330v-149h330z" />
    <glyph glyph-name="guillemotleft" unicode="&#xab;" horiz-adv-x="1333" 
d="M655 535v67l418 481l193 -180l-289 -336l285 -329l-189 -185zM59 535v67l418 481l193 -180l-289 -336l287 -329l-191 -185z" />
    <glyph glyph-name="guillemotright" unicode="&#xbb;" horiz-adv-x="1333" 
d="M68 903l192 180l418 -481v-67l-418 -482l-188 185l284 329zM664 903l192 180l418 -481v-67l-418 -482l-190 185l286 329z" />
    <glyph glyph-name="adieresis" unicode="&#xe4;" 
d="M414 532q0 -121 66.5 -199.5t174.5 -78.5q107 0 176.5 73.5t69.5 194.5q0 127 -68.5 205t-181.5 78q-107 0 -172 -77t-65 -196zM893 920v141h352v-1061h-352v145q-107 -168 -322 -168q-223 0 -368 160q-144 156 -144 395q0 237 142 394q139 157 368 157q102 0 188 -43.5
t136 -119.5zM279 1245q-43 33 -52 85t11 98t68 78t108 28q78 0 132 -49t54 -121q0 -71 -53.5 -118.5t-132.5 -47.5q-82 0 -135 47zM801 1245q-54 47 -54 119t54 121t133.5 49t134.5 -49t55 -121t-55 -119t-134.5 -47t-133.5 47z" />
    <glyph glyph-name="aring" unicode="&#xe5;" 
d="M414 532q0 -121 66.5 -199.5t174.5 -78.5q107 0 176.5 73.5t69.5 194.5q0 127 -68.5 205t-181.5 78q-107 0 -172 -77t-65 -196zM893 920v141h352v-1061h-352v145q-107 -168 -322 -168q-223 0 -368 160q-144 156 -144 395q0 237 142 394q139 157 368 157q102 0 188 -43.5
t136 -119.5zM406 1413q0 109 76 176.5t190 67.5q117 0 192.5 -67.5t75.5 -176.5q0 -107 -75.5 -173t-192.5 -66q-115 0 -190.5 66t-75.5 173zM592 1487q-25 -21 -29.5 -53t7.5 -60.5t40 -48t62 -16.5q36 -3 64 16.5t40 48t7.5 60.5t-29.5 53q-32 29 -81.5 29t-80.5 -29z" />
    <glyph glyph-name="egrave" unicode="&#xe8;" horiz-adv-x="1263" 
d="M680 -23q-283 0 -455 158q-168 155 -168 391q0 234 164 398q164 159 428 159q253 0 408 -149q157 -151 157 -424q0 -35 -2 -45h-817q5 -83 92.5 -144t223.5 -61q154 0 290 115q6 -6 86 -99q64 -77 89 -102q-188 -197 -496 -197zM805 780q-49 30 -115.5 37.5t-127.5 -7
t-107.5 -56t-55.5 -101.5h484q-9 85 -78 127zM539 1186l-314 356h363l192 -356h-241z" />
    <glyph glyph-name="eacute" unicode="&#xe9;" horiz-adv-x="1263" 
d="M680 -23q-283 0 -455 158q-168 155 -168 391q0 234 164 398q164 159 428 159q253 0 408 -149q157 -151 157 -424q0 -35 -2 -45h-817q5 -83 92.5 -144t223.5 -61q154 0 290 115q6 -6 86 -99q64 -77 89 -102q-188 -197 -496 -197zM805 780q-49 30 -115.5 37.5t-127.5 -7
t-107.5 -56t-55.5 -101.5h484q-9 85 -78 127zM471 1186l195 356h360l-313 -356h-242z" />
    <glyph glyph-name="ecircumflex" unicode="&#xea;" horiz-adv-x="1263" 
d="M680 -23q-283 0 -455 158q-168 155 -168 391q0 234 164 398q164 159 428 159q253 0 408 -149q157 -151 157 -424q0 -35 -2 -45h-817q5 -83 92.5 -144t223.5 -61q154 0 290 115q6 -6 86 -99q64 -77 89 -102q-188 -197 -496 -197zM805 780q-49 30 -115.5 37.5t-127.5 -7
t-107.5 -56t-55.5 -101.5h484q-9 85 -78 127zM256 1186l205 356h338l207 -356h-230l-145 188l-146 -188h-229z" />
    <glyph glyph-name="oacute" unicode="&#xf3;" horiz-adv-x="1306" 
d="M1077 922q174 -162 174 -392q0 -229 -174 -391t-424 -162q-248 0 -422 162q-176 164 -176 391q0 228 176 392q173 161 422 161q251 0 424 -161zM469 721q-74 -77 -74 -191t74 -188q71 -74 184 -74t187 74q71 74 71 188t-71 191q-74 74 -187 74t-184 -74zM481 1186
l195 356h360l-313 -356h-242z" />
    <glyph glyph-name="odieresis" unicode="&#xf6;" horiz-adv-x="1306" 
d="M1077 922q174 -162 174 -392q0 -229 -174 -391t-424 -162q-248 0 -422 162q-176 164 -176 391q0 228 176 392q173 161 422 161q251 0 424 -161zM469 721q-74 -77 -74 -191t74 -188q71 -74 184 -74t187 74q71 74 71 188t-71 191q-74 74 -187 74t-184 -74zM258 1245
q-43 33 -52 85t11 98t68 78t108 28q78 0 132.5 -49t54.5 -121q0 -71 -54 -118.5t-133 -47.5q-82 0 -135 47zM780 1245q-54 47 -54 119t54 121t134 49t135 -49t55 -121t-55 -119t-135 -47t-134 47z" />
    <glyph glyph-name="udieresis" unicode="&#xfc;" horiz-adv-x="1265" 
d="M795 1061h352v-1061h-352v139q-107 -162 -314 -162q-377 0 -377 488v596h353v-576q0 -227 168 -227q170 0 170 229v574zM240 1245q-43 33 -52 85t11 98t68 78t108 28q78 0 132 -49t54 -121q0 -71 -53.5 -118.5t-132.5 -47.5q-82 0 -135 47zM762 1245q-54 47 -54 119
t54 121t133.5 49t134.5 -49q56 -49 56 -121t-56 -119t-135 -47t-133 47z" />
    <glyph glyph-name="aogonek" unicode="&#x105;" 
d="M1245 1061v-1061h-37q-98 0 -151.5 -30.5t-71.5 -73.5q-14 -34 -14 -58q0 -43 27 -69.5t71 -26.5q81 0 133 104l162 -84q-43 -104 -132.5 -164.5t-199.5 -60.5q-47 0 -95 13t-94.5 40t-76 78.5t-29.5 118.5q0 61 38.5 123t117.5 106v129q-107 -168 -322 -168
q-223 0 -368 160q-144 156 -144 395q0 237 142 394q139 157 368 157q102 0 188 -43.5t136 -119.5v141h352zM414 532q0 -121 66.5 -199.5t174.5 -78.5q107 0 176.5 73.5t69.5 194.5q0 127 -68.5 205t-181.5 78q-107 0 -172 -77t-65 -196z" />
    <glyph glyph-name="eogonek" unicode="&#x119;" horiz-adv-x="1263" 
d="M680 -23q-283 0 -455 158q-168 155 -168 391q0 234 164 398q164 159 428 159q253 0 408 -149q157 -151 157 -424q0 -35 -2 -45h-817q5 -83 92.5 -144t223.5 -61q154 0 290 115q6 -6 86 -99q64 -77 89 -102q-88 -94 -207 -143q-66 -37 -68 -39q-76 -61 -76 -150
q0 -44 29 -71t74 -27q83 0 135 104l162 -84q-41 -103 -131 -164t-199 -61q-106 0 -203 60q-94 58 -94 184q0 112 82 194zM805 780q-49 30 -115.5 37.5t-127.5 -7t-107.5 -56t-55.5 -101.5h484q-9 85 -78 127z" />
    <glyph glyph-name="lslash" unicode="&#x142;" horiz-adv-x="729" 
d="M518 674v-674h-352v506l-146 -68v205l146 70v768h352v-600l176 86v-209z" />
    <glyph glyph-name="nacute" unicode="&#x144;" horiz-adv-x="1265" 
d="M471 0h-352v1061h352v-139q106 161 315 161q375 0 375 -489v-594h-352v573q0 99 -42.5 163.5t-125.5 64.5q-85 0 -127.5 -62t-42.5 -166v-573zM463 1186l194 356h361l-313 -356h-242z" />
    <glyph glyph-name="Sacute" unicode="&#x15a;" horiz-adv-x="1239" 
d="M51 410l307 65q52 -199 258 -199q89 0 143 34t54 96q0 88 -147 137l-160 57q-174 58 -282 172t-109 252q0 192 145 313q143 119 369 119q366 0 495 -338l-290 -117q-65 156 -203 156q-71 0 -114.5 -30.5t-43.5 -86.5q0 -88 139 -135l154 -53q394 -128 403 -436
q0 -212 -159 -326q-158 -113 -387 -113q-231 0 -387 117q-161 115 -185 316zM459 1538l166 309h352l-279 -309h-239z" />
    <glyph glyph-name="sacute" unicode="&#x15b;" horiz-adv-x="1009" 
d="M43 276l256 103q35 -146 203 -146q123 0 123 70q0 20 -16.5 35.5t-59.5 34.5l-176 73q-283 102 -283 316q0 145 125 233t307 88q291 0 404 -241l-264 -101q-35 95 -144 95q-43 0 -71.5 -20t-28.5 -52q0 -46 88 -76l141 -57q307 -114 307 -328q0 -155 -131 -240
q-133 -86 -325 -86q-174 0 -294.5 73.5t-160.5 225.5zM346 1186l195 356h360l-313 -356h-242z" />
    <glyph glyph-name="zdotaccent" unicode="&#x17c;" horiz-adv-x="1212" 
d="M573 274h578v-274h-1088v199l549 587h-526v275h1034v-203zM418 1364q0 75 53 123.5t137 48.5q80 0 135.5 -49.5t55.5 -122.5t-55.5 -120.5t-135.5 -47.5q-84 0 -137 47t-53 121z" />
    <glyph glyph-name="quoteright" unicode="&#x2019;" horiz-adv-x="534" 
d="M180 793l-80 118q67 32 109.5 96t44.5 132q-71 -1 -118.5 47.5t-47.5 113.5q-5 79 48 130t143 51q98 0 145 -68q45 -65 45 -139q0 -155 -76 -289q-75 -135 -213 -192z" />
    <glyph glyph-name="Euro" unicode="&#x20ac;" horiz-adv-x="1476" 
d="M291 762h-219v149h229q47 247 231 396q183 149 476 149q218 0 405 -117l-119 -276q-134 76 -262 76q-284 0 -366 -228h569q-7 -17 -61 -149h-537q-2 -6 -2 -51q0 -19 6 -60h485l-63 -149h-383q42 -101 134 -157t228 -56q146 0 289 51v-297q-129 -66 -301 -66
q-290 0 -483 146q-193 144 -240 379h-235v149h223q-4 12 -4 64v47z" />
    <glyph glyph-name="f_f" unicode="&#xfb00;" horiz-adv-x="1679" 
d="M1376 1153v-109h226v-249h-222v-795h-352v795h-487v-795h-353v795h-135v249h135v66q0 89 24 158.5t62.5 113t92 71.5t107.5 39t114 11q162 0 259 -84t97 -225l-262 -35q0 82 -74 82q-35 0 -53 -25t-18 -63v-109h491v66q0 89 24 158.5t62 113t91.5 71.5t107.5 39t114 11
q162 0 259.5 -84t97.5 -225q0 -35 -10 -68h-261q9 9 9 33q0 82 -74 82q-35 0 -53.5 -25t-18.5 -63z" />
    <glyph glyph-name="fi" unicode="&#xfb01;" horiz-adv-x="1486" 
d="M188 0v811h-135v250h135v22q0 122 47.5 210t131.5 132q149 78 335 78q114 0 224 -46.5t180 -131.5l-184 -176q-77 92 -209 92q-73 0 -124.5 -42t-51.5 -116v-22h829v-1061h-352v811h-473v-811h-353z" />
    <glyph glyph-name="null" horiz-adv-x="0" 
 />
    <glyph glyph-name="zero.oldstyle" horiz-adv-x="1370" 
d="M1124 926q168 -155 168 -394q0 -237 -168 -395q-171 -160 -440 -160q-270 0 -438 160q-168 155 -168 395q0 239 168 394q168 157 438 157q269 0 440 -157zM946 532q0 112 -69 193q-70 82 -193 82q-118 0 -188 -82q-72 -84 -72 -193q0 -110 72 -194t188 -84q118 0 190 84
t72 194z" />
    <glyph glyph-name="nine.oldstyle" horiz-adv-x="1335" 
d="M582 18q126 0 227 78q95 77 104 240h-6q-51 -61 -141.5 -99t-183.5 -38q-210 0 -357 118q-151 118 -151 314q0 198 157 325t412 127q284 0 451 -176q163 -175 163 -467q0 -303 -167 -497q-171 -195 -488 -195q-313 0 -506 184l191 187q119 -101 295 -101zM655 438
q112 0 177 54t65 133q0 77 -68 131.5t-170 54.5q-100 0 -169.5 -52.5t-69.5 -127.5q0 -86 65.5 -139.5t169.5 -53.5z" />
    <glyph glyph-name="eight.oldstyle" horiz-adv-x="1372" 
d="M684 780q91 0 146 37.5t55 93.5q0 53 -57.5 94.5t-139.5 41.5q-84 0 -141.5 -41.5t-57.5 -94.5t53.5 -92t141.5 -39zM692 578q-114 0 -182 -47t-68 -115q0 -67 70.5 -113.5t175.5 -46.5t174.5 46.5t69.5 113.5q0 68 -66.5 115t-173.5 47zM1120 96q-170 -114 -432 -114
q-261 0 -434 114q-172 114 -172 295q0 102 69 186t179 121q-82 31 -134.5 98.5t-52.5 145.5q0 161 154 270q152 107 391 107t391 -107q152 -109 152 -270q0 -81 -51.5 -147t-137.5 -97q108 -38 178 -122t70 -185q0 -181 -170 -295z" />
    <glyph glyph-name="seven.oldstyle" horiz-adv-x="1155" 
d="M715 776h-666v285h1079v-201l-577 -1089h-385z" />
    <glyph glyph-name="six.oldstyle" horiz-adv-x="1355" 
d="M762 1047q-131 0 -225 -76q-98 -76 -107 -242h6q51 61 142 99t184 38q207 0 356 -116q152 -122 152 -316q0 -199 -156 -325q-157 -127 -414 -127q-284 0 -448 176q-166 175 -166 467q0 302 168 497q171 195 487 195q313 0 506 -184l-190 -187q-119 101 -295 101zM688 627
q-112 0 -177 -54t-65 -133q0 -77 68 -131.5t170 -54.5q100 0 170 52.5t70 127.5q0 86 -65.5 139.5t-170.5 53.5z" />
    <glyph glyph-name="five.oldstyle" horiz-adv-x="1245" 
d="M578 23q111 0 187.5 56.5t76.5 141.5q0 76 -61.5 124t-164.5 48q-161 0 -268 -98l-227 100l41 666h930v-268h-633l-13 -230h11q89 59 233 68q225 0 363 -111q135 -114 135 -299q0 -210 -156 -342q-156 -129 -432 -129q-341 0 -547 176l166 207q186 -110 359 -110z" />
    <glyph glyph-name="four.oldstyle" horiz-adv-x="1384" 
d="M715 668l-305 -336h305v336zM715 -229v301h-668v221l707 768h305v-729h268v-260h-268v-301h-344z" />
    <glyph glyph-name="three.oldstyle" horiz-adv-x="1271" 
d="M561 27q125 0 204 54.5t79 135.5q0 83 -69 138t-167 55q-104 0 -186 -43l-125 172l360 254h-532v268h1020v-184l-375 -281q171 -9 299 -119q125 -107 125 -264q0 -196 -166 -328q-165 -131 -455 -131q-341 0 -536 162l166 203q170 -92 358 -92z" />
    <glyph glyph-name="two.oldstyle" horiz-adv-x="1241" 
d="M760 336l-88 -49q-2 -2 -11.5 -7.5t-11.5 -7.5q89 13 297 13h205v-285h-1055q0 2 -6 207l569 371q69 43 87 62t24 60q0 44 -44.5 71.5t-111.5 27.5q-76 0 -126 -33t-50 -92h-346q0 41 7.5 80.5t26 81t45.5 77t69 67.5t94.5 54.5t123.5 35.5t154 13q231 0 367.5 -95
t136.5 -261q0 -125 -82 -207q-84 -84 -274 -184z" />
    <glyph glyph-name="one.oldstyle" horiz-adv-x="1198" 
d="M483 696l-342 -110l-84 260l580 215h190v-776h322v-285h-999v285h333v411z" />
    <glyph glyph-name="y.alt" horiz-adv-x="1243" 
d="M449 94l-439 967h391l224 -615l233 615h379l-430 -969q-101 -229 -156 -307q-175 -258 -465 -258q-201 0 -354 102l115 252q101 -67 223 -67q159 0 279 280z" />
    <glyph glyph-name="g.alt" horiz-adv-x="1316" 
d="M788 555q54 46 53.5 119.5t-55.5 122.5q-59 47 -143 47q-90 0 -148.5 -48t-58.5 -122q0 -72 57.5 -119t149.5 -47q89 0 145 47zM616 -246q342 0 342 92q0 37 -114 37h-209q-171 0 -266 25q-56 -21 -56 -64q0 -90 303 -90zM987 1124h293q25 -48 25 -84q0 -114 -193 -157
q68 -86 68 -211q0 -184 -160 -299t-383 -115q-140 0 -256 64q-37 -27 -37 -72q0 -66 176 -66h359q109 0 195 -28.5t132 -75.5q84 -90 84 -184q0 -141 -135 -248q-74 -57 -213.5 -89t-327.5 -32q-245 0 -419 61q-95 33 -148 96.5t-53 149.5q0 66 50.5 129t125.5 94
q-82 52 -82 168q0 102 119 181q-109 100 -109 268q0 199 160 305q157 104 379 104q194 0 315 -65q39 33 39 84q0 2 -4 22z" />
    <glyph glyph-name="a.alt" horiz-adv-x="1249" 
d="M440 -23q-157 0 -272 95t-115 258q0 156 127 245t320 89q146 0 297 -60v33q0 73 -68 123q-70 49 -156 49q-201 0 -333 -100l-117 215q173 159 487 159q365 0 480 -221q33 -63 44 -119t11 -129v-614h-352v139q-125 -162 -353 -162zM584 481q-87 0 -134 -37.5t-47 -95.5
q0 -45 37.5 -76.5t102.5 -31.5q154 0 258 96v100q-96 45 -217 45z" />
  </font>
</defs>
</svg>
