<?xml version="1.0" standalone="no"?>
<!DOCTYPE svg PUBLIC "-//W3C//DTD SVG 1.1//EN" "http://www.w3.org/Graphics/SVG/1.1/DTD/svg11.dtd" >
<svg xmlns="http://www.w3.org/2000/svg" xmlns:xlink="http://www.w3.org/1999/xlink" version="1.1">
<metadata>
Created by FontForge 20170731 at Fri Oct 16 12:01:30 2020
 By Aleksey,,,
Copyright (c) Olivier Gourvat - Mostardesign Studio, 2014. All rights reserved.
</metadata>
<defs>
<font id="FilsonProBold-Bold" horiz-adv-x="1347" >
  <font-face 
    font-family="FilsonProBold"
    font-weight="700"
    font-stretch="normal"
    units-per-em="2048"
    panose-1="2 0 8 3 0 0 0 0 0 0"
    ascent="1638"
    descent="-410"
    x-height="1051"
    cap-height="1434"
    bbox="-195 -504 1993 1851"
    underline-thickness="102"
    underline-position="-409"
    unicode-range="U+0020-FB01"
  />
<missing-glyph horiz-adv-x="1378" 
d="M1174 0h-969v1436h969v-1436zM582 526h123q0 64 24 82q11 4 70 43q72 54 84 66q104 104 104 215q0 120 -89 193t-226 73q-141 0 -221 -67t-80 -160q0 -53 18 -94h129q-16 40 -16 90q0 51 44.5 83.5t117.5 32.5q86 0 135 -41t49 -110v-4q0 -65 -40.5 -113.5t-137.5 -107.5
q-64 -37 -76 -64t-12 -117zM545 295q0 -43 28.5 -71.5t69.5 -28.5q43 0 72.5 28.5t29.5 71.5q0 41 -29.5 70.5t-72.5 29.5q-41 0 -69.5 -29.5t-28.5 -70.5z" />
    <glyph glyph-name=".notdef" horiz-adv-x="1378" 
d="M1174 0h-969v1436h969v-1436zM582 526h123q0 64 24 82q11 4 70 43q72 54 84 66q104 104 104 215q0 120 -89 193t-226 73q-141 0 -221 -67t-80 -160q0 -53 18 -94h129q-16 40 -16 90q0 51 44.5 83.5t117.5 32.5q86 0 135 -41t49 -110v-4q0 -65 -40.5 -113.5t-137.5 -107.5
q-64 -37 -76 -64t-12 -117zM545 295q0 -43 28.5 -71.5t69.5 -28.5q43 0 72.5 28.5t29.5 71.5q0 41 -29.5 70.5t-72.5 29.5q-41 0 -69.5 -29.5t-28.5 -70.5z" />
    <glyph glyph-name=".null" horiz-adv-x="0" 
 />
    <glyph glyph-name="nonmarkingreturn" horiz-adv-x="681" 
 />
    <glyph glyph-name="space" unicode=" " horiz-adv-x="499" 
 />
    <glyph glyph-name="exclam" unicode="!" horiz-adv-x="600" 
d="M485 1434v-60l-73 -895h-224l-73 895v60h370zM106 154q0 78 55.5 129t137.5 51t138.5 -52.5t56.5 -127.5t-56.5 -126t-138.5 -51t-137.5 51t-55.5 126z" />
    <glyph glyph-name="dollar" unicode="$" horiz-adv-x="1140" 
d="M655 -143h-131v176q-183 15 -309 123q-129 105 -147 274l270 53q41 -157 186 -178v291l-53 18q-338 120 -338 406q0 158 107.5 261t283.5 120v170h131v-174q270 -35 377 -293l-250 -121q-48 101 -127 137v-270l52 -16q178 -62 265 -170t89 -228q0 -178 -117 -280
q-118 -103 -289 -121v-178zM764 424q0 74 -109 127v-240q109 27 109 113zM428 1016q0 -72 96 -119v229q-96 -24 -96 -110z" />
    <glyph glyph-name="ampersand" unicode="&#x26;" horiz-adv-x="1622" 
d="M1016 119l-10 10q-146 -152 -416 -152q-222 0 -371 113q-151 115 -151 303q0 261 333 430q-122 149 -122 295q0 107 69 189.5t168 117.5q95 31 182 31q155 0 267 -100q110 -101 110 -240q0 -102 -69.5 -195t-188.5 -161l176 -197l111 156q4 7 20.5 30.5t20.5 30.5h278
v-61l-256 -359l66 -69q59 -53 110 -53q99 0 168 75l105 -202q-134 -134 -291 -134q-167 0 -309 142zM827 342l-254 287q-89 -32 -144.5 -91.5t-55.5 -129.5q0 -79 65 -130t162 -51q127 0 227 115zM559 1102q0 -68 96 -172q142 86 142 176q0 47 -31.5 83t-83.5 36
q-53 0 -88 -35.5t-35 -87.5z" />
    <glyph glyph-name="parenright" unicode=")" horiz-adv-x="710" 
d="M233 16q94 258 94 534.5t-94 536.5q-95 260 -196 408l194 113q116 -119 248 -383q70 -142 113 -321.5t43 -352.5q0 -226 -78 -465q-75 -225 -164 -373q-76 -124 -162 -217l-194 113q102 150 196 407z" />
    <glyph glyph-name="comma" unicode="," horiz-adv-x="538" 
d="M117 -332l-68 113q76 27 141 98q62 71 62 137q-62 -1 -109 45.5t-49 104.5q-5 71 42.5 118.5t131.5 47.5q93 0 133 -64q39 -62 39 -135q0 -138 -92 -280q-91 -138 -231 -185z" />
    <glyph glyph-name="hyphen" unicode="-" horiz-adv-x="976" 
d="M854 520h-731v246h731v-246z" />
    <glyph glyph-name="period" unicode="." horiz-adv-x="569" 
d="M92 154q0 78 55.5 129t137.5 51t138 -52.5t56 -127.5t-56 -126t-138 -51t-137.5 51t-55.5 126z" />
    <glyph glyph-name="zero" unicode="0" horiz-adv-x="1449" 
d="M1364 717q0 -312 -176 -524q-177 -213 -465 -213q-292 0 -463 210q-174 210 -174 527q0 318 174 528q172 211 463 211q290 0 465 -211q176 -212 176 -528zM967 369q92 139 92 348q0 208 -92 350q-91 141 -244 141t-242 -139q-90 -143 -90 -352q0 -208 90 -348
q89 -142 242 -142q152 0 244 142z" />
    <glyph glyph-name="one" unicode="1" horiz-adv-x="841" 
d="M92 963l-78 239l518 232h175v-1434h-312v1077q-43 -18 -157 -61l-63 -22.5t-54 -19.5t-29 -11z" />
    <glyph glyph-name="two" unicode="2" horiz-adv-x="1259" 
d="M838 489l-293 -249q102 12 223 12h410v-252h-1051l-31 188l545 502q193 169 193 303q0 94 -61 148.5t-165 54.5q-117 0 -176 -63.5t-59 -157.5h-299q0 162 116 311q61 76 171 123t247 47q240 0 383 -125q144 -126 144 -336q0 -255 -297 -506z" />
    <glyph glyph-name="three" unicode="3" horiz-adv-x="1267" 
d="M573 236q127 0 211 75q84 78 84 172q0 105 -75 168q-78 66 -179 66q-102 0 -190 -39l-119 160l410 344h-588v252h1010v-181l-387 -325q171 -15 301 -148q129 -132 129 -295q0 -213 -166 -360q-171 -148 -445 -148q-333 0 -524 173l152 194q187 -108 376 -108z" />
    <glyph glyph-name="four" unicode="4" horiz-adv-x="1351" 
d="M707 983l-322 -369h322v369zM707 0v358h-670v187l770 889h211v-820h285v-256h-285v-358h-311z" />
    <glyph glyph-name="five" unicode="5" horiz-adv-x="1265" 
d="M590 236q136 0 217.5 73t81.5 185q0 91 -73.5 156t-192.5 65q-186 0 -291 -105l-207 82l47 742h926v-252h-656l-20 -303h10q103 75 275 75q199 0 346 -135q147 -138 147 -325q0 -232 -158 -375q-160 -142 -440 -142q-343 0 -534 173l151 194q188 -108 371 -108z" />
    <glyph glyph-name="six" unicode="6" horiz-adv-x="1333" 
d="M733 1192q-119 0 -219 -100q-101 -101 -113 -281h9q53 64 138 103.5t179 39.5q209 0 367 -131q159 -132 159 -352q0 -215 -157 -354q-158 -140 -408 -140q-272 0 -436 197q-164 194 -164 510q0 338 166 555q163 217 467 217q149 0 281.5 -55.5t218.5 -155.5l-187 -170
q-111 117 -301 117zM686 713q-124 0 -195 -65t-71 -163q0 -96 72 -174q69 -75 188 -75q111 0 186 69q78 69 78 168q0 107 -70.5 173.5t-187.5 66.5z" />
    <glyph glyph-name="seven" unicode="7" horiz-adv-x="1150" 
d="M762 1182h-709v252h1075v-189l-651 -1245h-350z" />
    <glyph glyph-name="eight" unicode="8" horiz-adv-x="1351" 
d="M674 856h4q103 0 161 54.5t58 131.5q0 69 -61.5 115.5t-159.5 46.5t-159.5 -46.5t-61.5 -115.5q0 -77 58 -131.5t161 -54.5zM684 643q-66 4 -121.5 -12t-90.5 -45.5t-55 -68.5t-20 -78.5t20 -78t58 -65.5q75 -57 201 -57q128 0 203 57t75 143q0 88 -72 146.5t-198 58.5z
M1104 102q-162 -125 -428 -125t-428 125q-164 123 -164 336q0 96 72 197q70 98 182 133q-85 30 -141 110t-56 164q0 190 150 304q146 110 385 110q238 0 387 -110q147 -114 147 -304q0 -84 -56 -164t-140 -110q112 -35 182 -133q72 -101 72 -197q0 -213 -164 -336z" />
    <glyph glyph-name="nine" unicode="9" horiz-adv-x="1333" 
d="M600 242q119 0 219 100q101 101 113 281h-8q-42 -62 -131.5 -103t-186.5 -41q-206 0 -366 133t-160 351q0 214 158 354q157 139 407 139q274 0 438 -194q162 -195 162 -512q0 -335 -164 -553q-168 -220 -469 -220q-149 0 -281 55.5t-218 155.5l186 170q110 -116 301 -116
zM647 721q125 0 195.5 64.5t70.5 162.5q0 99 -69 174q-70 76 -191 76q-109 0 -186 -68q-78 -72 -78 -169q0 -107 70.5 -173.5t187.5 -66.5z" />
    <glyph glyph-name="question" unicode="?" horiz-adv-x="1103" 
d="M643 496v-19h-285q0 109 25 170q21 55 125 121q123 77 172 133t49 131q0 74 -52.5 119t-133.5 45q-77 0 -130 -41t-53 -108q0 -39 27 -103h-291q-28 58 -28 133q0 141 125 260t350 119q215 0 354 -115q137 -113 137 -303q0 -134 -84.5 -242.5t-275.5 -226.5
q-31 -22 -31 -73zM309 154q0 78 55.5 129t137.5 51t138 -52.5t56 -127.5t-56 -126t-138 -51t-137.5 51t-55.5 126z" />
    <glyph glyph-name="at" unicode="@" horiz-adv-x="2070" 
d="M1546 123q119 5 184.5 119t65.5 336q0 315 -209 518q-211 202 -547 202q-335 0 -555 -227q-221 -232 -221 -569q0 -338 207 -565q206 -226 535 -226q235 0 409 82l82 -158q-221 -106 -491 -106q-413 0 -672 274q-258 276 -258 699q0 420 274 700q273 279 690 279
q421 0 682 -252q263 -254 263 -651q0 -316 -114.5 -469.5t-324.5 -153.5q-135 0 -200.5 56t-77.5 169q-50 -68 -138 -106.5t-182 -38.5q-192 0 -315 135t-123 332q0 200 125 334q124 133 319 133q188 0 299 -135v114h201v-717q0 -108 92 -108zM782 707q-71 -83 -71 -205
q0 -124 75 -205q73 -82 195 -82q118 0 194 77.5t76 205.5t-76 209t-198 81q-126 0 -195 -81z" />
    <glyph glyph-name="A" unicode="A" horiz-adv-x="1443" 
d="M438 268l-98 -268h-328l553 1434h309l562 -1434h-332l-103 268v-4h-563v4zM911 524l-190 574l-197 -574h387z" />
    <glyph glyph-name="B" unicode="B" horiz-adv-x="1355" 
d="M1212 1042q0 -96 -62.5 -179t-170.5 -120q126 -21 213 -125q86 -103 86 -215q0 -180 -139 -292q-138 -111 -369 -111h-600v1436l539 -2q223 0 364 -105q139 -109 139 -287zM653 610h-166v-358h283q82 0 134 43.5t52 114.5q0 90 -61 145q-64 55 -242 55zM487 1182v-351
h131q273 0 273 197q0 72 -51 113t-131 41h-222z" />
    <glyph glyph-name="C" unicode="C" horiz-adv-x="1421" 
d="M297 193q-217 214 -217 524t217 524q215 215 569 215q153 0 270.5 -43t243.5 -137l-131 -242q-184 140 -381 140q-213 0 -340 -130q-127 -133 -127 -327q0 -196 127 -326q125 -131 340 -131q198 0 381 139l131 -241q-127 -95 -244 -138t-270 -43q-353 0 -569 216z" />
    <glyph glyph-name="D" unicode="D" horiz-adv-x="1550" 
d="M1028 387q121 133 121 330q0 196 -121 332q-124 133 -321 133h-220v-930h220q198 0 321 135zM1260 1229q208 -205 208 -512q0 -305 -208 -510q-210 -207 -553 -207h-537v1434h537q345 0 553 -205z" />
    <glyph glyph-name="E" unicode="E" horiz-adv-x="1218" 
d="M1122 252v-252h-952v1434h952v-252h-635v-353h551v-251h-551v-326h635z" />
    <glyph glyph-name="F" unicode="F" horiz-adv-x="1198" 
d="M487 578v-578h-317v1434h952v-252h-635v-353h551v-251h-551z" />
    <glyph glyph-name="G" unicode="G" horiz-adv-x="1503" 
d="M80 717q0 308 213 524q212 215 561 215q271 0 516 -184l-158 -236q-178 132 -348 129q-101 0 -182 -27.5t-133 -72t-87.5 -104.5t-50 -121.5t-14.5 -126.5q0 -195 125 -320q122 -125 318 -125q153 0 264 54v204h-363v254h660v-583q-249 -220 -559 -220q-325 0 -543 218
q-219 216 -219 522z" />
    <glyph glyph-name="H" unicode="H" horiz-adv-x="1519" 
d="M1350 1434v-1434h-318v559h-545v-559h-317v1434h317v-623h545v623h318z" />
    <glyph glyph-name="I" unicode="I" horiz-adv-x="657" 
d="M170 1434h317v-1434h-317v1434z" />
    <glyph glyph-name="J" unicode="J" horiz-adv-x="1351" 
d="M883 1436h317v-803q0 -324 -153 -490t-443 -166q-118 0 -214 31t-158 81t-104 117t-59.5 135.5t-17.5 139.5q0 133 72 240h293q-64 -101 -64 -217q0 -111 64.5 -185.5t183.5 -74.5q150 0 216.5 94.5t66.5 294.5v803z" />
    <glyph glyph-name="K" unicode="K" horiz-adv-x="1359" 
d="M700 268l-219 391v-4v-655h-313v1434h313v-658l424 658h326v-41l-447 -662l181 -317q65 -115 100 -138q37 -30 100 -30q39 0 101 35l114 -226q-122 -78 -276 -78q-255 0 -404 291z" />
    <glyph glyph-name="L" unicode="L" horiz-adv-x="1177" 
d="M487 1434v-1182h650v-252h-967v1434h317z" />
    <glyph glyph-name="M" unicode="M" horiz-adv-x="1921" 
d="M1421 872l-358 -856h-205l-358 856l-76 -872h-318l134 1434h319l402 -965l401 965h319l134 -1434h-318z" />
    <glyph glyph-name="N" unicode="N" horiz-adv-x="1529" 
d="M1360 0h-242l-633 872v-870h-317v1432h244l630 -865v865h318v-1434z" />
    <glyph glyph-name="O" unicode="O" horiz-adv-x="1648" 
d="M299 195q-219 219 -219 522t219 522q217 217 526 217q310 0 527 -217t217 -522t-217 -522q-218 -218 -527 -218q-308 0 -526 218zM520 1038q-127 -127 -127 -321q0 -195 127 -322t305 -127t305 127q125 125 125 322q0 196 -125 321q-127 127 -305 127t-305 -127z" />
    <glyph glyph-name="P" unicode="P" horiz-adv-x="1318" 
d="M487 506v-506h-317v1434h629q214 0 338 -136q123 -135 123 -333q0 -196 -123 -328q-125 -131 -338 -131h-312zM487 1182v-426h271q84 0 133 58t49 153q0 98 -49 156.5t-133 58.5h-271z" />
    <glyph glyph-name="Q" unicode="Q" horiz-adv-x="1652" 
d="M522 1038q-127 -127 -127 -321q0 -195 127 -322t305 -127q179 0 306 127q124 124 124 322q0 197 -124 321q-127 127 -306 127q-178 0 -305 -127zM1440 -86l98 -223q-165 -113 -360 -113q-207 0 -338 119q-134 122 -140 291q-262 49 -442 256q-180 204 -180 473
q0 304 221 522q217 217 528 217q309 0 529 -217q219 -219 219 -522q0 -254 -166 -453q-166 -202 -408 -266q1 -78 54.5 -119t146.5 -41q48 0 118 22t120 54z" />
    <glyph glyph-name="R" unicode="R" horiz-adv-x="1443" 
d="M483 1167v-403h281q84 0 132 54.5t48 146.5q0 93 -48 147.5t-132 54.5h-281zM1262 963q0 -154 -81.5 -270.5t-222.5 -160.5q34 -138 89 -206t149 -68q81 0 145 61l113 -219q-88 -68 -155 -95.5t-164 -27.5q-141 0 -238.5 79.5t-151.5 201.5q-57 126 -71 252h-191v-510
h-315v1434h637q212 0 336 -136q121 -139 121 -335z" />
    <glyph glyph-name="S" unicode="S" horiz-adv-x="1206" 
d="M57 399l283 56q59 -197 260 -197q96 0 155.5 38t59.5 110q0 49 -37.5 85.5t-128.5 67.5l-155 53q-365 126 -365 426q0 191 135 305q134 113 348 113q169 0 293 -80t187 -233l-258 -129q-67 162 -222 162q-80 0 -127 -34t-47 -100q0 -100 154 -153l151 -53
q378 -117 381 -424q0 -210 -151 -322q-152 -113 -363 -113q-215 0 -372 115q-160 115 -181 307z" />
    <glyph glyph-name="T" unicode="T" horiz-adv-x="1222" 
d="M49 1167v267h1125v-267h-408v-1167h-313v1167h-404z" />
    <glyph glyph-name="U" unicode="U" horiz-adv-x="1492" 
d="M1022 543v891h317v-891q0 -266 -170 -416q-169 -150 -424 -150q-252 0 -421 150q-170 150 -170 416v891h317v-891q0 -139 77 -219t197 -80t198.5 80.5t78.5 218.5z" />
    <glyph glyph-name="V" unicode="V" horiz-adv-x="1384" 
d="M838 0h-293l-506 1434h336l317 -1018l318 1018h336z" />
    <glyph glyph-name="W" unicode="W" horiz-adv-x="2039" 
d="M903 1386h236l262 -831l268 879h324l-451 -1434h-252l-270 868l-270 -868h-252l-451 1434h324l268 -879z" />
    <glyph glyph-name="X" unicode="X" horiz-adv-x="1404" 
d="M1024 0l-322 500l-321 -500h-373v41l514 717l-469 635v41h371l278 -426l279 426h371v-41l-469 -635l514 -717v-41h-373z" />
    <glyph glyph-name="Y" unicode="Y" horiz-adv-x="1492" 
d="M406 1434l339 -560h3l339 560h369v-41l-551 -805v-588h-317v584l-551 809v41h369z" />
    <glyph glyph-name="Z" unicode="Z" horiz-adv-x="1376" 
d="M479 252h834v-252h-1254v205l777 977h-717v252h1143v-207z" />
    <glyph glyph-name="a" unicode="a" 
d="M375 528q0 -131 74.5 -217t195.5 -86t198 76.5t77 210.5q0 142 -77.5 227.5t-205.5 85.5q-119 0 -190.5 -83.5t-71.5 -213.5zM911 907v144h306v-1051h-306v154q-124 -177 -329 -177q-233 0 -373 158q-139 157 -139 395q0 232 135 388q131 155 370 155q101 0 190.5 -45
t145.5 -121z" />
    <glyph glyph-name="b" unicode="b" 
d="M1278 530q0 -238 -139 -395q-140 -158 -373 -158q-206 0 -330 177v-154h-305v1481h305v-574q56 76 145.5 121t190.5 45q239 0 373 -155q133 -157 133 -388zM973 528q0 130 -71.5 213.5t-190.5 83.5q-128 0 -205.5 -85.5t-77.5 -227.5q0 -134 76.5 -210.5t197.5 -76.5
t196 86t75 217z" />
    <glyph glyph-name="c" unicode="c" horiz-adv-x="1130" 
d="M227 135q-161 151 -161 391t161 394q159 153 426 153q220 0 430 -155l-139 -224q-117 105 -276 105q-133 0 -215 -75.5t-82 -197.5t82 -197t215 -75q160 0 276 104l139 -223q-210 -155 -430 -155q-268 0 -426 155z" />
    <glyph glyph-name="d" unicode="d" horiz-adv-x="1349" 
d="M375 528q0 -131 74.5 -217t195.5 -86t198 76.5t77 210.5q0 142 -77.5 227.5t-205.5 85.5q-119 0 -190.5 -83.5t-71.5 -213.5zM911 907v574h306v-1481h-306v154q-124 -177 -329 -177q-233 0 -373 158q-139 157 -139 395q0 232 135 388q131 155 370 155q101 0 190.5 -45
t145.5 -121z" />
    <glyph glyph-name="e" unicode="e" horiz-adv-x="1261" 
d="M641 825q-94 0 -168.5 -47t-97.5 -139h526q-13 88 -88 137t-172 49zM981 352l176 -168q-189 -207 -489 -207q-284 0 -443 156q-159 153 -159 387t163 393q165 160 416 160q233 0 404 -160q165 -162 165 -458h-845q5 -101 92.5 -164.5t228.5 -63.5q160 0 291 125z" />
    <glyph glyph-name="f" unicode="f" horiz-adv-x="821" 
d="M512 1161v-119h236v-231h-236v-811h-305v811h-148v231h148v70q0 202 97.5 296.5t266.5 94.5q164 0 250 -87.5t86 -225.5q0 -34 -10 -57h-235q8 8 8 34q0 93 -80 93q-78 0 -78 -99z" />
    <glyph glyph-name="g" unicode="g" horiz-adv-x="1349" 
d="M375 528q0 -131 74.5 -217t195.5 -86t198 76.5t77 210.5q0 142 -77.5 227.5t-205.5 85.5q-119 0 -190.5 -83.5t-71.5 -213.5zM911 1051h306v-977q0 -291 -162 -434q-165 -142 -408 -142q-313 0 -497 146l120 237q48 -43 144 -82q87 -37 172 -37q325 0 325 277v115
q-124 -177 -329 -177q-233 0 -373 158q-139 157 -139 395q0 232 135 388q131 155 370 155q101 0 190.5 -45t145.5 -121v144z" />
    <glyph glyph-name="h" unicode="h" horiz-adv-x="1257" 
d="M438 0h-305v1481h305v-574q120 166 326 166q375 0 375 -502v-571h-305v565q0 256 -195 256q-98 0 -149.5 -69t-51.5 -189v-563z" />
    <glyph glyph-name="i" unicode="i" horiz-adv-x="575" 
d="M440 1051v-1051h-305v1051h305zM154 1206q-56 47 -56 122.5t56 125.5q52 49 137 49q82 0 138 -49.5t56 -124.5q0 -73 -56 -121.5t-138 -48.5q-84 0 -137 47z" />
    <glyph glyph-name="j" unicode="j" horiz-adv-x="655" 
d="M215 -160v1211h305v-1162q0 -202 -97.5 -296.5t-266.5 -94.5q-167 0 -259 89.5t-92 224.5q0 31 13 57h241q-2 -6 -2 -35q0 -92 80 -92q78 0 78 98zM231 1206q-55 47 -55 122.5t55 125.5q52 49 138 49q82 0 138 -49.5t56 -124.5q0 -73 -56 -121.5t-138 -48.5
q-85 0 -138 47z" />
    <glyph glyph-name="k" unicode="k" horiz-adv-x="1222" 
d="M434 1481v-856l299 426h338v-41l-348 -439l137 -219q61 -94 144 -94q60 0 112 37l115 -215q-115 -103 -275 -103q-199 0 -311 160l-211 340v-477h-305v1481h305z" />
    <glyph glyph-name="l" unicode="l" horiz-adv-x="575" 
d="M440 1481v-1481h-305v1481h305z" />
    <glyph glyph-name="m" unicode="m" horiz-adv-x="1863" 
d="M1264 821q-174 0 -174 -258v-563h-304v565q0 256 -176 256q-174 0 -174 -258v-563h-305v1051h305v-144q108 166 281 166q232 0 321 -176q92 176 332 176q375 0 375 -502v-571h-305v565q0 256 -176 256z" />
    <glyph glyph-name="n" unicode="n" horiz-adv-x="1255" 
d="M436 0h-305v1051h305v-144q120 166 326 166q375 0 375 -502v-571h-306v565q0 256 -194 256q-98 0 -149.5 -69t-51.5 -189v-563z" />
    <glyph glyph-name="o" unicode="o" horiz-adv-x="1286" 
d="M238 133q-172 153 -172 393q0 241 172 394q170 153 405 153q239 0 408 -153q170 -156 170 -394q0 -240 -170 -393q-169 -156 -408 -156q-235 0 -405 156zM362 526q0 -120 84 -204q82 -82 197 -82t199 84q82 82 82 202q0 121 -82 203t-199 82q-115 0 -197 -82
q-84 -84 -84 -203z" />
    <glyph glyph-name="p" unicode="p" 
d="M973 522q0 131 -75 217t-196 86q-122 0 -198 -76.5t-76 -209.5q0 -142 77.5 -228t205.5 -86q119 0 190.5 83.5t71.5 213.5zM436 143v-622h-305v1530h305v-154q123 176 330 176q233 0 373 -158q139 -157 139 -395q0 -230 -133 -387q-135 -156 -373 -156q-101 0 -190.5 45
t-145.5 121z" />
    <glyph glyph-name="q" unicode="q" 
d="M375 522q0 -130 71.5 -213.5t190.5 -83.5q128 0 205.5 86t77.5 228q0 133 -76.5 209.5t-198.5 76.5q-121 0 -195.5 -86t-74.5 -217zM1217 1051v-1530h-306v622q-56 -76 -145.5 -121t-190.5 -45q-238 0 -370 156q-135 156 -135 387q0 238 139 395q140 158 373 158
q206 0 329 -176v154h306z" />
    <glyph glyph-name="r" unicode="r" horiz-adv-x="821" 
d="M131 1051h297v-230q13 65 47 117t76.5 81t85.5 42.5t80 11.5q39 0 78 -8v-301q-55 14 -129 14q-98 0 -164 -56t-66 -151v-571h-305v1051z" />
    <glyph glyph-name="s" unicode="s" horiz-adv-x="985" 
d="M49 246l221 125q19 -78 81 -118t141 -40q57 0 97 22t40 58q0 52 -78 80l-184 78q-84 30 -143 74.5t-83 92.5q-37 75 -37 134q0 152 117 237q119 84 295 84q265 0 379 -221l-236 -109q-34 101 -149 101q-46 0 -81.5 -24.5t-35.5 -61.5q0 -52 99 -90l157 -62
q176 -51 230 -153q41 -78 41 -150q0 -155 -123 -240q-124 -86 -308 -86q-144 0 -268 62q-122 58 -172 207z" />
    <glyph glyph-name="t" unicode="t" horiz-adv-x="937" 
d="M272 1309h236v-258h291v-240h-291v-492q0 -92 78 -92q80 0 80 99q0 50 -15 90h242q25 -55 25 -125q0 -135 -92 -224.5t-259 -89.5q-364 0 -364 371v463h-158v240h180z" />
    <glyph glyph-name="u" unicode="u" horiz-adv-x="1257" 
d="M819 1051h305v-1051h-305v143q-120 -166 -325 -166q-375 0 -375 502v572h305v-566q0 -256 194 -256q98 0 149.5 69t51.5 189v564z" />
    <glyph glyph-name="v" unicode="v" horiz-adv-x="1226" 
d="M870 1051h334l-438 -1051h-303l-440 1051h333l256 -709z" />
    <glyph glyph-name="w" unicode="w" horiz-adv-x="1699" 
d="M371 1051l182 -633l190 604h213l191 -604l182 633h336l-82 -240l-293 -811h-260l-180 596l-180 -596h-260l-293 811l-82 240h336z" />
    <glyph glyph-name="x" unicode="x" horiz-adv-x="1224" 
d="M1212 0h-348l-252 330l-252 -330h-348v41l418 502l-379 473v35h357l204 -289l205 289h357v-35l-379 -473l417 -502v-41z" />
    <glyph glyph-name="y" unicode="y" horiz-adv-x="1218" 
d="M367 1051l249 -658l250 658h336l-680 -1530h-307l240 567l-432 963h344z" />
    <glyph glyph-name="z" unicode="z" horiz-adv-x="1198" 
d="M510 244h623v-244h-1067v178l589 633h-561v240h1004v-181z" />
    <glyph glyph-name="braceleft" unicode="{" horiz-adv-x="780" 
d="M387 539v-33q148 -41 148 -176q0 -70 -62 -238q-61 -165 -61 -246q0 -143 135 -143q34 0 178 16v-194q-170 -17 -221 -17q-154 0 -264 78q-109 80 -109 236q0 100 78 348q2 2 20 55q2 6 14 40t17 50q10 42 10 62q0 16 -28 22l-170 39v168l170 39q28 6 28 23q0 43 -41 151
q-12 31 -20 55q-78 248 -78 349q0 155 109 235q110 78 264 78q61 0 221 -16v-195q-144 16 -178 16q-135 0 -135 -143q0 -81 61 -246q62 -168 62 -237q0 -135 -148 -176z" />
    <glyph glyph-name="sterling" unicode="&#xa3;" horiz-adv-x="1304" 
d="M967 717v-148h-305q26 -86 2 -171t-93 -146v-16q115 16 285 16h369v-252h-1151v252q154 14 226 53t83 103q6 51 2.5 77t-18.5 84h-252v148h192q-82 207 -82 323q0 183 142 301q142 115 354 115q97 0 177 -26.5t133 -69.5t89 -99.5t52 -115t16 -117.5h-287q0 74 -47.5 118
t-136.5 44q-88 0 -141.5 -44.5t-53.5 -119.5q0 -94 84 -309h361z" />
    <glyph glyph-name="yen" unicode="&#xa5;" horiz-adv-x="1538" 
d="M1276 410v-158h-348v-252h-318v252h-350v158h350v151h-350v158h258l-459 674v41h369l340 -560h2l340 560h369v-41l-461 -674h258v-158h-348v-151h348z" />
    <glyph glyph-name="guillemotleft" unicode="&#xab;" horiz-adv-x="1296" 
d="M637 588v57l407 469l173 -156l-295 -342l292 -337l-170 -158zM70 588v57l407 469l172 -156l-295 -342l293 -337l-170 -158z" />
    <glyph glyph-name="guillemotright" unicode="&#xbb;" horiz-adv-x="1296" 
d="M80 958l172 156l407 -469v-57l-407 -467l-170 158l293 337zM647 958l172 156l408 -469v-57l-408 -467l-170 158l293 337z" />
    <glyph glyph-name="adieresis" unicode="&#xe4;" 
d="M375 528q0 -131 74.5 -217t195.5 -86t198 76.5t77 210.5q0 142 -77.5 227.5t-205.5 85.5q-119 0 -190.5 -83.5t-71.5 -213.5zM911 907v144h306v-1051h-306v154q-124 -177 -329 -177q-233 0 -373 158q-139 157 -139 395q0 232 135 388q131 155 370 155q101 0 190.5 -45
t145.5 -121zM240 1360q0 72 51 119t127 47q74 0 126 -48.5t52 -117.5t-52 -115.5t-126 -46.5q-75 0 -126.5 46.5t-51.5 115.5zM748 1360q0 72 50.5 119t125.5 47t127.5 -48.5t52.5 -117.5t-52.5 -115.5t-127.5 -46.5t-125.5 46.5t-50.5 115.5z" />
    <glyph glyph-name="aring" unicode="&#xe5;" 
d="M375 528q0 -131 74.5 -217t195.5 -86t198 76.5t77 210.5q0 142 -77.5 227.5t-205.5 85.5q-119 0 -190.5 -83.5t-71.5 -213.5zM911 907v144h306v-1051h-306v154q-124 -177 -329 -177q-233 0 -373 158q-139 157 -139 395q0 232 135 388q131 155 370 155q101 0 190.5 -45
t145.5 -121zM418 1397q0 103 72.5 170t179.5 67q109 0 181.5 -66.5t72.5 -170.5q0 -102 -72.5 -169t-181.5 -67q-107 0 -179.5 67t-72.5 169zM590 1473q-31 -29 -30.5 -76t32.5 -76q31 -31 78.5 -31t79.5 31q31 29 31 76t-31 76t-80 29t-80 -29z" />
    <glyph glyph-name="egrave" unicode="&#xe8;" horiz-adv-x="1261" 
d="M641 825q-94 0 -168.5 -47t-97.5 -139h526q-13 88 -88 137t-172 49zM981 352l176 -168q-189 -207 -489 -207q-284 0 -443 156q-159 153 -159 387t163 393q165 160 416 160q233 0 404 -160q165 -162 165 -458h-845q5 -101 92.5 -164.5t228.5 -63.5q160 0 291 125z
M545 1182l-303 354h321l203 -354h-221z" />
    <glyph glyph-name="eacute" unicode="&#xe9;" horiz-adv-x="1261" 
d="M641 825q-94 0 -168.5 -47t-97.5 -139h526q-13 88 -88 137t-172 49zM981 352l176 -168q-189 -207 -489 -207q-284 0 -443 156q-159 153 -159 387t163 393q165 160 416 160q233 0 404 -160q165 -162 165 -458h-845q5 -101 92.5 -164.5t228.5 -63.5q160 0 291 125z
M483 1182l203 354h322l-303 -354h-222z" />
    <glyph glyph-name="ecircumflex" unicode="&#xea;" horiz-adv-x="1261" 
d="M641 825q-94 0 -168.5 -47t-97.5 -139h526q-13 88 -88 137t-172 49zM981 352l176 -168q-189 -207 -489 -207q-284 0 -443 156q-159 153 -159 387t163 393q165 160 416 160q233 0 404 -160q165 -162 165 -458h-845q5 -101 92.5 -164.5t228.5 -63.5q160 0 291 125z
M268 1182l215 354h301l217 -354h-215l-151 188l-152 -188h-215z" />
    <glyph glyph-name="oacute" unicode="&#xf3;" horiz-adv-x="1286" 
d="M238 133q-172 153 -172 393q0 241 172 394q170 153 405 153q239 0 408 -153q170 -156 170 -394q0 -240 -170 -393q-169 -156 -408 -156q-235 0 -405 156zM362 526q0 -120 84 -204q82 -82 197 -82t199 84q82 82 82 202q0 121 -82 203t-199 82q-115 0 -197 -82
q-84 -84 -84 -203zM506 1182l203 354h321l-303 -354h-221z" />
    <glyph glyph-name="odieresis" unicode="&#xf6;" horiz-adv-x="1286" 
d="M238 133q-172 153 -172 393q0 241 172 394q170 153 405 153q239 0 408 -153q170 -156 170 -394q0 -240 -170 -393q-169 -156 -408 -156q-235 0 -405 156zM362 526q0 -120 84 -204q82 -82 197 -82t199 84q82 82 82 202q0 121 -82 203t-199 82q-115 0 -197 -82
q-84 -84 -84 -203zM211 1360q0 72 51 119t127 47q74 0 126 -48.5t52 -117.5t-52 -115.5t-126 -46.5q-75 0 -126.5 46.5t-51.5 115.5zM719 1360q0 72 50.5 119t125.5 47t127.5 -48.5t52.5 -117.5t-52.5 -115.5t-127.5 -46.5t-125.5 46.5t-50.5 115.5z" />
    <glyph glyph-name="udieresis" unicode="&#xfc;" horiz-adv-x="1257" 
d="M819 1051h305v-1051h-305v143q-120 -166 -325 -166q-375 0 -375 502v572h305v-566q0 -256 194 -256q98 0 149.5 69t51.5 189v564zM197 1360q0 72 51 119t127 47q74 0 126 -48.5t52 -117.5t-52 -115.5t-126 -46.5q-75 0 -126.5 46.5t-51.5 115.5zM705 1360q0 72 50.5 119
t125.5 47t127.5 -48.5t52.5 -117.5t-52.5 -115.5t-127.5 -46.5t-125.5 46.5t-50.5 115.5z" />
    <glyph glyph-name="aogonek" unicode="&#x105;" 
d="M375 528q0 -131 74.5 -217t195.5 -86t198 76.5t77 210.5q0 142 -77.5 227.5t-205.5 85.5q-119 0 -190.5 -83.5t-71.5 -213.5zM911 1051h306v-1051q-61 0 -108 -14t-72 -33.5t-41 -45t-20.5 -44t-4.5 -35.5q0 -100 98 -100q77 0 129 108l156 -72q-45 -106 -129.5 -167.5
t-194.5 -61.5q-105 0 -188 57q-88 58 -88 185q0 147 157 239v138q-124 -177 -329 -177q-233 0 -373 158q-139 157 -139 395q0 232 135 388q131 155 370 155q101 0 190.5 -45t145.5 -121v144z" />
    <glyph glyph-name="eogonek" unicode="&#x119;" horiz-adv-x="1263" 
d="M864 -35q-51 -60 -51 -143q0 -43 26 -68.5t70 -25.5q78 0 131 108l156 -72q-44 -102 -129 -165.5t-190 -63.5q-45 -2 -92 10.5t-89.5 39t-70.5 75t-29 111.5q0 116 90 206h-18q-284 0 -443 156q-159 153 -159 387t163 393q165 160 416 160q233 0 404 -160
q165 -162 165 -458h-845q5 -101 92.5 -164.5t228.5 -63.5q160 0 291 125l176 -168q-64 -70 -149 -118q-112 -57 -144 -101zM641 825q-94 0 -168.5 -47t-97.5 -139h526q-13 88 -88 137t-172 49z" />
    <glyph glyph-name="lslash" unicode="&#x142;" horiz-adv-x="712" 
d="M477 653v-653h-305v512l-145 -68v193l145 68v776h305v-633l189 90v-197z" />
    <glyph glyph-name="nacute" unicode="&#x144;" horiz-adv-x="1255" 
d="M436 0h-305v1051h305v-144q120 166 326 166q375 0 375 -502v-571h-306v565q0 256 -194 256q-98 0 -149.5 -69t-51.5 -189v-563zM428 1182l203 354h321l-303 -354h-221z" />
    <glyph glyph-name="Sacute" unicode="&#x15a;" horiz-adv-x="1206" 
d="M57 399l283 56q59 -197 260 -197q96 0 155.5 38t59.5 110q0 49 -37.5 85.5t-128.5 67.5l-155 53q-365 126 -365 426q0 191 135 305q134 113 348 113q169 0 293 -80t187 -233l-258 -129q-67 162 -222 162q-80 0 -127 -34t-47 -100q0 -100 154 -153l151 -53
q378 -117 381 -424q0 -210 -151 -322q-152 -113 -363 -113q-215 0 -372 115q-160 115 -181 307zM420 1536l178 315h322l-279 -315h-221z" />
    <glyph glyph-name="sacute" unicode="&#x15b;" horiz-adv-x="987" 
d="M358 1182l203 354h322l-303 -354h-222zM49 246l221 125q19 -78 81 -118t141 -40q57 0 97 22t40 58q0 52 -78 80l-184 78q-84 30 -143 74.5t-83 92.5q-37 75 -37 134q0 152 117 237q119 84 295 84q265 0 379 -221l-236 -109q-34 101 -149 101q-46 0 -81.5 -24.5
t-35.5 -61.5q0 -52 99 -90l157 -62q176 -51 230 -153q41 -78 41 -150q0 -155 -123 -240q-124 -86 -308 -86q-144 0 -268 62q-122 58 -172 207z" />
    <glyph glyph-name="zdotaccent" unicode="&#x17c;" horiz-adv-x="1198" 
d="M510 244h623v-244h-1067v178l589 633h-561v240h1004v-181zM422 1360q0 72 51 119t127 47q74 0 126 -48.5t52 -117.5t-52 -115.5t-126 -46.5q-75 0 -126.5 46.5t-51.5 115.5z" />
    <glyph glyph-name="quoteright" unicode="&#x2019;" horiz-adv-x="520" 
d="M174 868l-68 113q150 53 150 184q-62 -1 -109 45.5t-49 104.5q-5 71 42.5 118.5t131.5 47.5q94 0 134 -64q38 -61 38 -135q0 -149 -69 -261t-201 -153z" />
    <glyph glyph-name="Euro" unicode="&#x20ac;" horiz-adv-x="1443" 
d="M287 778h-211v150h225q50 241 229 383q180 145 461 145q203 0 385 -108l-94 -248q-138 78 -283 78q-285 0 -374 -250h589l-57 -150h-565q-3 -62 2 -125h516l-57 -149h-424q38 -115 139.5 -180.5t237 -68t292.5 53.5v-270q-124 -62 -286 -62q-288 0 -475 146
q-187 144 -234 381h-227v149h213q-8 55 -2 125z" />
    <glyph glyph-name="f_f" unicode="&#xfb00;" horiz-adv-x="1642" 
d="M1333 1161v-119h236v-231h-236v-811h-305v811h-516v-811h-305v811h-148v231h148v70q0 202 97.5 296.5t266.5 94.5q164 0 250 -87.5t86 -225.5l-237 -23q0 93 -80 93q-78 0 -78 -99v-119h516v70q0 201 98 296t267 95q164 0 250 -87.5t86 -225.5q0 -31 -11 -57h-235
q8 8 8 34q0 93 -80 93q-78 0 -78 -99z" />
    <glyph glyph-name="fi" unicode="&#xfb01;" horiz-adv-x="1423" 
d="M209 0v811h-150v231h150v41q0 420 483 420q150 0 262.5 -63t157.5 -191l-289 -80q-31 91 -131 91q-178 0 -178 -177v-41h776v-1042h-305v811h-471v-811h-305z" />
    <glyph glyph-name="null" horiz-adv-x="0" 
 />
    <glyph glyph-name="zero.oldstyle" horiz-adv-x="1370" 
d="M1124 918q166 -156 166 -392q0 -235 -166 -391q-172 -158 -440 -158q-269 0 -438 158q-166 156 -166 391q0 236 166 392q165 155 438 155q272 0 440 -155zM903 315q82 88 82 211t-82 211t-219 88q-133 0 -215 -88q-84 -90 -84 -211t84 -211t215 -90q135 0 219 90z" />
    <glyph glyph-name="nine.oldstyle" horiz-adv-x="1300" 
d="M584 -10q135 0 225 86.5t102 247.5h-8q-51 -57 -136 -93t-177 -36q-208 0 -361 118q-157 121 -157 316q0 194 155 319q152 125 402 125q268 0 432 -176q160 -177 160 -461q0 -304 -162 -499q-164 -197 -463 -197q-148 0 -278 50t-214 140l183 166q109 -106 297 -106z
M631 414q125 0 193.5 56t68.5 146q0 83 -74 148q-76 61 -182 61q-111 0 -185.5 -54.5t-74.5 -143.5q0 -97 68.5 -155t185.5 -58z" />
    <glyph glyph-name="eight.oldstyle" 
d="M666 758h16q98 0 157.5 48t59.5 112q0 58 -64.5 101.5t-160.5 43.5t-160.5 -43.5t-64.5 -101.5q0 -64 59.5 -112t157.5 -48zM682 569h-16q-126 0 -199.5 -49t-73.5 -123q0 -73 79.5 -121.5t201.5 -48.5t201 48.5t79 121.5q0 74 -73.5 123t-198.5 49zM1096 96
q-168 -119 -422 -119q-252 0 -420 119q-170 120 -170 293q0 101 62 184.5t176 120.5q-89 34 -134 98.5t-45 141.5q0 159 152 268q151 109 379 109t379 -109t151 -268q0 -77 -45 -141.5t-133 -98.5q114 -37 176 -120.5t62 -184.5q0 -174 -168 -293z" />
    <glyph glyph-name="seven.oldstyle" horiz-adv-x="1124" 
d="M737 805h-690v246h1059v-174l-627 -1117h-334z" />
    <glyph glyph-name="six.oldstyle" horiz-adv-x="1323" 
d="M727 1061q-136 0 -226 -86.5t-102 -247.5h9q51 57 136 93t177 36q207 0 362 -119q156 -120 156 -315q0 -193 -154 -320q-155 -125 -403 -125q-270 0 -430 177q-162 174 -162 460q0 303 164 500t461 197q148 0 277 -50t214 -141l-182 -166q-110 107 -297 107zM680 639
q-125 0 -193.5 -57.5t-68.5 -147.5q0 -84 76 -145q73 -64 180 -64t183.5 57.5t76.5 141.5q0 97 -69 156t-185 59z" />
    <glyph glyph-name="five.oldstyle" horiz-adv-x="1208" 
d="M563 -14q125 0 203 62.5t78 156.5q0 84 -60 137t-178 53q-166 0 -284 -100l-203 108l39 648h891v-242h-635l-13 -256h11q110 70 260 70q213 0 346 -121q131 -122 131 -297q0 -208 -150 -340q-149 -131 -417 -131q-325 0 -521 178l150 190q198 -116 352 -116z" />
    <glyph glyph-name="four.oldstyle" horiz-adv-x="1339" 
d="M715 686l-322 -377h322v377zM715 -240v301h-672v187l686 803h289v-742h264v-248h-264v-301h-303z" />
    <glyph glyph-name="three.oldstyle" horiz-adv-x="1249" 
d="M567 -16q126 0 210.5 62t84.5 149q0 95 -76 159t-178 64q-110 0 -190 -51l-117 161l389 281h-567v242h1005v-162l-385 -293q169 -15 299 -133q129 -120 129 -266q0 -193 -165 -324q-171 -133 -443 -133q-335 0 -522 156l152 174q164 -86 374 -86z" />
    <glyph glyph-name="two.oldstyle" horiz-adv-x="1239" 
d="M776 334l-135 -76l-27 -16q52 10 291 10h244v-252h-1049l-10 186l584 369q78 48 105.5 83.5t27.5 80.5q0 121 -201 121q-95 0 -150 -41.5t-55 -108.5h-305q0 144 109 256q56 59 162 93t245 34q228 0 365 -92t137 -252q0 -130 -74 -213q-77 -83 -264 -182z" />
    <glyph glyph-name="one.oldstyle" horiz-adv-x="1165" 
d="M485 719l-350 -119l-74 236l562 215h165v-801h330v-250h-975v250h342v469z" />
    <glyph glyph-name="y.alt" horiz-adv-x="1218" 
d="M367 1051l249 -658l250 658h336l-426 -971q-16 -32 -59 -148q-32 -63 -37 -75q-36 -72 -92 -150q-81 -108 -217 -170q-100 -39 -219 -39q-175 0 -326 103l106 239q106 -71 228 -71q115 0 190 114q52 83 105 205l-432 963h344z" />
    <glyph glyph-name="g.alt" horiz-adv-x="1286" 
d="M780 526q56 53 56 133q0 84 -58 136q-57 51 -147 51q-93 0 -155 -52.5t-62 -131.5q0 -80 61.5 -133.5t157.5 -53.5q90 0 147 51zM612 -291q334 0 334 109q0 31 -33.5 50t-87.5 19h-280q-127 0 -178 39q-74 -38 -74 -98q0 -119 319 -119zM977 1114h260q29 -29 29 -80
q0 -65 -50 -112t-141 -60q58 -76 58 -207q0 -185 -152 -297q-150 -112 -358 -112q-127 0 -248 41q-29 -19 -29 -56q0 -40 45.5 -60.5t116.5 -20.5h362q104 0 183 -30.5t120 -78t60 -94.5t18 -90q0 -145 -151 -254q-150 -105 -490 -105q-602 0 -602 309q0 71 51 139.5
t115 96.5q-74 53 -74 160q0 101 115 190q-98 91 -98 266q0 90 31 162t81 118.5t117 77t135 43.5t140 13q182 0 317 -72q43 27 43 82q0 19 -4 31z" />
    <glyph glyph-name="a.alt" horiz-adv-x="1220" 
d="M567 483q-101 0 -148.5 -42.5t-47.5 -106.5q0 -46 40 -81.5t105 -35.5q162 0 287 113v112q-131 41 -236 41zM434 -23q-144 0 -260 93q-113 91 -113 256q0 148 125 239q127 92 322 92q138 0 289 -45v29q0 82 -74 129t-145 47q-207 0 -336 -100l-113 192q164 164 467 164
q346 0 455 -219q51 -107 51 -244v-610h-305v143q-132 -166 -363 -166z" />
  </font>
</defs>
</svg>
