<?xml version="1.0" standalone="no"?>
<!DOCTYPE svg PUBLIC "-//W3C//DTD SVG 1.1//EN" "http://www.w3.org/Graphics/SVG/1.1/DTD/svg11.dtd" >
<svg xmlns="http://www.w3.org/2000/svg" xmlns:xlink="http://www.w3.org/1999/xlink" version="1.1">
<metadata>
Created by FontForge 20170731 at Fri Oct 16 12:01:32 2020
 By Aleksey,,,
Copyright (c) Olivier Gourvat - Mostardesign Studio, 2014. All rights reserved.
</metadata>
<defs>
<font id="FilsonProBlack-Black" horiz-adv-x="1282" >
  <font-face 
    font-family="FilsonProBlack"
    font-weight="900"
    font-stretch="normal"
    units-per-em="2048"
    panose-1="2 0 10 3 0 0 0 0 0 0"
    ascent="1638"
    descent="-410"
    x-height="1077"
    cap-height="1434"
    bbox="-246 -612 2003 1843"
    underline-thickness="102"
    underline-position="-409"
    unicode-range="U+0020-FB01"
  />
<missing-glyph horiz-adv-x="1378" 
d="M1174 0h-969v1434h969v-1434zM582 526h123q0 64 24 82q11 4 70 43q72 54 84 66q104 104 104 215q0 120 -89 193t-226 73q-141 0 -221 -67t-80 -160q0 -53 18 -94h129q-16 40 -16 90q0 51 44.5 83.5t117.5 32.5q86 0 135 -41t49 -110v-4q0 -65 -40.5 -113.5t-137.5 -107.5
q-64 -37 -76 -64t-12 -117zM545 295q0 -43 28.5 -71.5t69.5 -28.5q43 0 72.5 28.5t29.5 71.5q0 41 -29.5 70.5t-72.5 29.5q-41 0 -69.5 -29.5t-28.5 -70.5z" />
    <glyph glyph-name=".notdef" horiz-adv-x="1378" 
d="M1174 0h-969v1434h969v-1434zM582 526h123q0 64 24 82q11 4 70 43q72 54 84 66q104 104 104 215q0 120 -89 193t-226 73q-141 0 -221 -67t-80 -160q0 -53 18 -94h129q-16 40 -16 90q0 51 44.5 83.5t117.5 32.5q86 0 135 -41t49 -110v-4q0 -65 -40.5 -113.5t-137.5 -107.5
q-64 -37 -76 -64t-12 -117zM545 295q0 -43 28.5 -71.5t69.5 -28.5q43 0 72.5 28.5t29.5 71.5q0 41 -29.5 70.5t-72.5 29.5q-41 0 -69.5 -29.5t-28.5 -70.5z" />
    <glyph glyph-name=".null" horiz-adv-x="0" 
 />
    <glyph glyph-name="nonmarkingreturn" horiz-adv-x="681" 
 />
    <glyph glyph-name="space" unicode=" " horiz-adv-x="454" 
 />
    <glyph glyph-name="exclam" unicode="!" horiz-adv-x="673" 
d="M592 1300l-113 -790h-282l-113 790v134h508v-134zM96 180q0 91 66.5 150t169.5 59q100 0 168.5 -59.5t68.5 -149.5q0 -86 -68.5 -144.5t-168.5 -58.5q-103 0 -169.5 57.5t-66.5 145.5z" />
    <glyph glyph-name="dollar" unicode="$" horiz-adv-x="1310" 
d="M59 426l347 80q41 -183 219 -201v246l-80 31q-189 62 -279 137q-140 113 -143 282q0 195 141 318q138 123 361 135v139h114v-141q334 -30 455 -369l-344 -98q-41 109 -111 133v-217l80 -27q228 -78 324.5 -183.5t101.5 -268.5q0 -197 -141 -311q-144 -114 -365 -129v-140
h-114v135q-239 11 -387 127t-179 322zM827 408q0 63 -88 100v-195q88 24 88 95zM543 1038q0 -56 82 -96v180q-82 -21 -82 -84z" />
    <glyph glyph-name="ampersand" unicode="&#x26;" horiz-adv-x="1628" 
d="M1286 -23q-158 0 -291 109q-165 -109 -399 -109q-230 0 -385 119q-158 122 -158 316q0 144 99.5 258t261.5 166q-77 49 -126.5 122t-49.5 146q0 169 125.5 260.5t345.5 91.5q195 0 311 -96q110 -98 110 -230q0 -103 -78 -199t-200 -143l127 -131l154 144h337v-68
l-301 -295q91 -114 158 -114q66 0 160 79l141 -256q-176 -170 -342 -170zM766 352l-209 236q-52 -29 -79 -73t-27 -83q0 -56 45.5 -93.5t119.5 -37.5q93 0 150 51zM588 1079q0 -35 16 -59.5t60 -61.5q70 31 98.5 56.5t28.5 64.5t-32 70t-73 31q-48 0 -73 -29.5t-25 -71.5z
" />
    <glyph glyph-name="parenright" unicode=")" horiz-adv-x="765" 
d="M309 518q0 266 -98 553q-104 296 -199 428l262 150q61 -65 106.5 -123.5t104.5 -157.5q59 -98 109 -225q48 -128 79.5 -292.5t31.5 -332.5t-31.5 -332t-79.5 -292q-52 -130 -109 -226q-58 -98 -103.5 -156t-107.5 -124l-262 149q95 133 199 430q98 290 98 551z" />
    <glyph glyph-name="comma" unicode="," horiz-adv-x="608" 
d="M121 -373l-84 127q69 34 145 119q75 87 78 160q-83 0 -136.5 57.5t-53.5 132.5q0 95 62 158t165 63q120 0 176 -77q55 -79 55 -164q0 -182 -125 -350q-127 -171 -282 -226z" />
    <glyph glyph-name="hyphen" unicode="-" horiz-adv-x="983" 
d="M879 440h-775v365h775v-365z" />
    <glyph glyph-name="period" unicode="." horiz-adv-x="606" 
d="M68 180q0 91 66 150t169 59q101 0 169.5 -59.5t68.5 -149.5q0 -86 -69 -144.5t-169 -58.5q-102 0 -168.5 57.5t-66.5 145.5z" />
    <glyph glyph-name="zero" unicode="0" horiz-adv-x="1464" 
d="M1393 717q0 -314 -183 -527t-481 -213q-299 0 -479 213q-178 211 -178 527q0 317 178 528t479 211q300 0 481 -211q183 -213 183 -528zM981 717q0 180 -68.5 291.5t-183.5 111.5q-112 0 -179 -111.5t-67 -291.5q0 -179 67.5 -291.5t178.5 -112.5t182 115q70 113 70 289z
" />
    <glyph glyph-name="one" unicode="1" horiz-adv-x="929" 
d="M389 989l-283 -110l-104 313l561 242h248v-1434h-422v989z" />
    <glyph glyph-name="two" unicode="2" horiz-adv-x="1314" 
d="M913 494l-219 -172q95 14 287 14h268v-336h-1134l-35 246l520 465q100 91 141 150.5t41 129.5q0 59 -45 94t-114 35q-164 0 -164 -162h-396q0 210 142 355q140 143 428 143q243 0 399 -129q154 -133 154 -350q0 -258 -273 -483z" />
    <glyph glyph-name="three" unicode="3" horiz-adv-x="1308" 
d="M422 645l-131 205l338 248h-508v336h1059v-236l-381 -305q182 0 311 -105q127 -109 127 -296q0 -226 -168 -369q-172 -146 -479 -146q-356 0 -563 189l186 258q183 -113 336 -113q128 0 199 53.5t71 143.5q0 80 -58.5 126t-152.5 46q-93 0 -186 -35z" />
    <glyph glyph-name="four" unicode="4" horiz-adv-x="1433" 
d="M711 954l-297 -321h297v321zM705 0v332h-668v301l743 801h346v-801h267v-301h-267v-332h-421z" />
    <glyph glyph-name="five" unicode="5" horiz-adv-x="1316" 
d="M600 311q97 0 167.5 54t70.5 141q0 82 -58 126t-143 44q-63 0 -136 -31t-110 -78l-268 101l45 766h993v-336h-633l-12 -224h10q94 76 275 76q201 0 327 -123q127 -124 127 -319q0 -242 -165 -385q-172 -146 -461 -146q-374 0 -584 189l186 258q165 -113 369 -113z" />
    <glyph glyph-name="six" unicode="6" horiz-adv-x="1402" 
d="M821 1124q-45 0 -86.5 -7t-87 -26t-79.5 -50t-59 -83t-32 -120l-4 -39h6q52 73 152.5 117.5t197.5 44.5q212 0 357 -127q143 -128 143 -345q0 -225 -162 -368q-163 -144 -436 -144q-309 0 -483 195q-174 192 -174 526q0 126 25.5 236.5t81 207t137.5 166t201.5 109
t266.5 39.5q329 0 529 -188l-197 -236q-142 92 -297 92zM702 670q-94 0 -151 -53.5t-57 -129.5q0 -78 56 -130t155 -52q91 0 150.5 52t59.5 130t-62.5 130.5t-150.5 52.5z" />
    <glyph glyph-name="seven" unicode="7" horiz-adv-x="1193" 
d="M688 1098h-637v336h1123v-238l-586 -1196h-482z" />
    <glyph glyph-name="eight" unicode="8" horiz-adv-x="1411" 
d="M711 870h-6q73 0 116 40t43 89q0 51 -46 90t-111 39q-66 0 -113 -38.5t-47 -88.5t46 -90.5t118 -40.5zM707 -23q-284 0 -461 121q-178 120 -178 326q0 134 84 227q83 92 180 117q-71 18 -135 94q-68 74 -68 187q0 179 160 294q155 113 418 113q264 0 419 -113
q156 -114 156 -294q0 -113 -65 -187q-67 -76 -138 -94q85 -20 176 -111q88 -91 88 -233q0 -206 -176 -326q-180 -121 -460 -121zM565 358q51 -45 142 -45q90 0 141 45q53 47 53 109q0 63 -54.5 108.5t-139.5 45.5q-88 0 -142.5 -45t-54.5 -109q0 -63 55 -109z" />
    <glyph glyph-name="nine" unicode="9" horiz-adv-x="1400" 
d="M582 309q58 0 109.5 12.5t104 42t87.5 89t43 143.5l4 39h-6q-52 -73 -153 -117.5t-198 -44.5q-210 0 -354 129q-145 127 -145 342q0 225 164 369q162 143 434 143q309 0 485 -194q172 -193 172 -527q0 -126 -25.5 -236.5t-81.5 -207t-138 -166t-201.5 -109t-266.5 -39.5
q-327 0 -528 189l197 235q142 -92 297 -92zM700 764q94 0 151.5 53t57.5 129q0 78 -56 130t-155 52q-91 0 -151 -52t-60 -130t62.5 -130t150.5 -52z" />
    <glyph glyph-name="question" unicode="?" horiz-adv-x="1126" 
d="M455 934h-377q-17 66 -17 104q0 156 136 289q135 129 362 129q231 0 369 -108q139 -109 139 -287q0 -125 -70 -221t-239 -211l-6 -4q-14 -8 -28.5 -20.5t-30 -35.5t-15.5 -45l-2 -14h-322q0 4 -1 19.5t-1 19.5q-1 36 -0.5 61.5t9.5 51.5t30 59q32 48 101 96q57 40 94 68
q27 21 53 57q27 34 27 72q4 64 -52.5 89t-114.5 -2.5t-57 -90.5q0 -44 13 -76zM274 180q0 91 66.5 150t169.5 59q101 0 169.5 -59.5t68.5 -149.5q0 -86 -69 -144.5t-169 -58.5q-103 0 -169.5 57.5t-66.5 145.5z" />
    <glyph glyph-name="at" unicode="@" horiz-adv-x="2072" 
d="M1221 106q-51 -80 -142 -122.5t-186 -42.5q-204 0 -336 147q-135 147 -135 375q0 231 135 381q131 149 336 149q203 0 291 -162v142h383v-795q0 -98 59 -98q114 0 180 127.5t66 361.5q0 348 -230 572q-232 221 -600 221q-366 0 -608 -248q-241 -247 -241 -622
q0 -374 227 -619q225 -246 586 -246q239 0 413 76l29 -53q12 -30 27 -51q-206 -93 -469 -93q-417 0 -678 279q-260 278 -260 707q0 426 276 708q278 281 698 281q430 0 693 -254q264 -255 264 -658q0 -309 -119 -483q-120 -178 -307 -178q-135 0 -229.5 49t-122.5 149z
M813 463q0 -98 52 -161.5t136 -63.5q85 0 136 63.5t51 161.5q0 100 -51 163.5t-136 63.5q-84 0 -136 -64t-52 -163z" />
    <glyph glyph-name="A" unicode="A" horiz-adv-x="1478" 
d="M520 240l-86 -240h-444l555 1434h381l569 -1434h-457l-92 240h-426zM874 575l-137 404l-149 -404h286z" />
    <glyph glyph-name="B" unicode="B" horiz-adv-x="1392" 
d="M1280 1020q0 -187 -190 -266q115 -21 184 -125q67 -101 67 -203q0 -194 -145 -309q-147 -117 -391 -117h-680v1434h623q235 0 385 -111q147 -114 147 -303zM743 596h-188v-250h225q71 0 109.5 34.5t38.5 86.5q0 53 -50.5 91t-134.5 38zM555 1098v-248h127q90 0 139 33
t49 86q0 60 -44.5 94.5t-123.5 34.5h-147z" />
    <glyph glyph-name="C" unicode="C" horiz-adv-x="1423" 
d="M274 195q-223 213 -223 522q0 308 223 524q221 215 576 215q160 0 290 -56t263 -173l-244 -279q-124 139 -309 139q-166 0 -266 -106q-103 -109 -103 -264t103 -264q101 -107 266 -107q185 0 309 139l244 -278q-133 -117 -263 -173.5t-290 -56.5q-355 0 -576 218z" />
    <glyph glyph-name="D" unicode="D" horiz-adv-x="1581" 
d="M799 0h-674v1434h674q311 0 520 -209t209 -508q0 -302 -209 -508q-209 -209 -520 -209zM739 1065h-184v-696h184q166 0 262.5 94t96.5 254t-97 254.5t-262 93.5z" />
    <glyph glyph-name="E" unicode="E" horiz-adv-x="1249" 
d="M1167 369v-369h-1042v1434h1042v-369h-612v-186h535v-328h-535v-182h612z" />
    <glyph glyph-name="F" unicode="F" horiz-adv-x="1216" 
d="M555 551v-551h-430v1434h1034v-369h-604v-186h526v-328h-526z" />
    <glyph glyph-name="G" unicode="G" horiz-adv-x="1501" 
d="M1362 1278l-240 -279q-104 88 -272 88q-166 0 -266 -106q-103 -109 -103 -264t103 -264q101 -107 266 -107q98 0 172 23v157h-297v310h707v-627q-262 -232 -582 -232q-355 0 -576 218q-223 213 -223 522q0 308 223 524q221 215 576 215q285 0 512 -178z" />
    <glyph glyph-name="H" unicode="H" horiz-adv-x="1529" 
d="M1405 1434v-1434h-430v512h-420v-512h-430v1434h430v-572h420v572h430z" />
    <glyph glyph-name="I" unicode="I" horiz-adv-x="679" 
d="M125 1434h430v-1434h-430v1434z" />
    <glyph glyph-name="J" unicode="J" horiz-adv-x="1306" 
d="M27 473q0 165 104 299h383q-78 -122 -78 -235q0 -81 40.5 -136t117.5 -55q174 0 174 270v818h430v-818q0 -320 -151.5 -479.5t-442.5 -159.5q-156 0 -276.5 48t-184.5 127q-116 144 -116 321z" />
    <glyph glyph-name="K" unicode="K" horiz-adv-x="1437" 
d="M711 285l-158 393v-678h-430v1434h430v-615l342 615h430v-60l-371 -618l129 -293q47 -104 78 -125q35 -27 86 -27q48 0 103 37l125 -293q-98 -42 -162 -63q-59 -15 -144 -15q-329 0 -458 308z" />
    <glyph glyph-name="L" unicode="L" horiz-adv-x="1234" 
d="M125 1434h430v-1065h643v-369h-1073v1434z" />
    <glyph glyph-name="M" unicode="M" horiz-adv-x="1867" 
d="M1319 653l-244 -639h-282l-244 639l-53 -653h-428l131 1434h409l326 -816l326 816h409l131 -1434h-428z" />
    <glyph glyph-name="N" unicode="N" horiz-adv-x="1492" 
d="M1368 0h-334l-479 684v-684h-430v1434h336l477 -672v672h430v-1434z" />
    <glyph glyph-name="O" unicode="O" horiz-adv-x="1654" 
d="M1391 193q-213 -216 -564 -216q-350 0 -563 216q-211 211 -211 524q0 312 211 526q213 213 563 213q351 0 564 -213q211 -214 211 -526q0 -313 -211 -524zM575 453q91 -107 252 -107t252 107q92 109 92 264t-92 264q-90 106 -252 106t-252 -106q-92 -109 -92 -264
t92 -264z" />
    <glyph glyph-name="P" unicode="P" horiz-adv-x="1370" 
d="M776 1065h-221v-285h221q53 0 90 42.5t37 97.5q0 58 -37 101.5t-90 43.5zM821 438h-266v-438h-430v1434h696q237 0 377 -146q135 -147 135 -364q0 -214 -135 -349q-134 -137 -377 -137z" />
    <glyph glyph-name="Q" unicode="Q" horiz-adv-x="1654" 
d="M1450 -70l127 -280q-168 -109 -358 -109q-244 0 -395 120t-193 337q-268 56 -422 256q-156 200 -156 463q0 312 211 526q213 213 563 213q351 0 564 -213q211 -214 211 -526q0 -259 -150 -459q-150 -199 -416 -258q40 -131 197 -131q113 0 217 61zM575 453
q91 -107 252 -107t252 107q92 109 92 264t-92 264q-90 106 -252 106t-252 -106q-92 -109 -92 -264t92 -264z" />
    <glyph glyph-name="R" unicode="R" horiz-adv-x="1468" 
d="M655 483h-102v-483h-430v1434h696q241 0 377 -142q135 -144 135 -358q0 -158 -78 -269t-219 -155q13 -97 57 -148t111 -51q80 0 156 49l131 -272q-163 -111 -375 -111q-295 8 -397 267q-49 116 -62 239zM774 1065h-221v-285h221q53 0 90 42.5t37 97.5q0 58 -37 101.5
t-90 43.5z" />
    <glyph glyph-name="S" unicode="S" horiz-adv-x="1275" 
d="M37 426l346 80q44 -201 254 -201q168 0 168 103q0 71 -121 112l-162 62q-188 62 -278 137q-141 114 -144 282q0 204 156 330q152 125 391 125q398 0 524 -373l-344 -98q-26 74 -64.5 108.5t-107.5 34.5q-59 0 -97 -24t-38 -66q0 -68 117 -108l160 -56
q228 -78 324.5 -183.5t101.5 -268.5q0 -217 -168 -330q-171 -115 -418 -115q-253 0 -410.5 117t-189.5 332z" />
    <glyph glyph-name="T" unicode="T" horiz-adv-x="1273" 
d="M41 1065v369h1192v-369h-389v-1065h-422v1065h-381z" />
    <glyph glyph-name="U" unicode="U" horiz-adv-x="1454" 
d="M109 555v879h430v-879q0 -96 52.5 -152.5t133.5 -56.5q82 0 136 56.5t54 152.5v879h431v-879q0 -271 -179 -424q-180 -154 -442 -154q-263 0 -440 154q-176 153 -176 424z" />
    <glyph glyph-name="V" unicode="V" horiz-adv-x="1427" 
d="M901 0h-377l-512 1434h463l240 -854l239 854h463z" />
    <glyph glyph-name="W" unicode="W" horiz-adv-x="2023" 
d="M862 1386h303l201 -665l195 713h442l-455 -1434h-327l-209 698l-209 -698h-328l-455 1434h443l194 -713z" />
    <glyph glyph-name="X" unicode="X" horiz-adv-x="1474" 
d="M1028 0l-291 426l-291 -426h-452v59l483 699l-454 616v60h456l258 -361l258 361h457v-60l-455 -616l484 -699v-59h-453z" />
    <glyph glyph-name="Y" unicode="Y" horiz-adv-x="1579" 
d="M16 1434h473l302 -492l303 492h471v-60l-559 -788v-586h-431v578l-559 796v60z" />
    <glyph glyph-name="Z" unicode="Z" horiz-adv-x="1409" 
d="M618 369h740v-369h-1317v254l680 811h-615v369h1197v-258z" />
    <glyph glyph-name="a" unicode="a" horiz-adv-x="1382" 
d="M1282 0h-422v133q-92 -156 -307 -156t-360 160q-146 158 -146 402q0 242 146 403q146 158 360 158t307 -158v135h422v-1077zM524 711q-55 -67 -55 -172t55 -172q53 -68 144 -68q89 0 145 68q53 68 53 172t-53 172q-55 67 -145 67q-92 0 -144 -67z" />
    <glyph glyph-name="b" unicode="b" horiz-adv-x="1380" 
d="M520 133v-133h-422v1481h422v-539q93 158 307 158q217 0 363 -158q143 -158 143 -403q0 -247 -143 -402q-145 -160 -363 -160q-216 0 -307 156zM858 367q53 68 53 172t-53 172q-55 67 -145 67q-92 0 -144 -67q-55 -67 -55 -172t55 -172q53 -68 144 -68q89 0 145 68z" />
    <glyph glyph-name="c" unicode="c" horiz-adv-x="1153" 
d="M223 141q-180 162 -180 398q0 237 180 399q177 162 453 162q283 0 457 -168l-203 -248q-104 90 -225 90q-104 0 -172 -66t-68 -169t68 -169.5t172 -66.5q121 0 225 90l203 -248q-174 -168 -457 -168q-274 0 -453 164z" />
    <glyph glyph-name="d" unicode="d" horiz-adv-x="1382" 
d="M1282 0h-422v133q-92 -156 -307 -156t-360 160q-146 158 -146 402q0 242 146 403q146 158 360 158t307 -158v539h422v-1481zM524 711q-55 -67 -55 -172t55 -172q53 -68 144 -68q89 0 145 68q53 68 53 172t-53 172q-55 67 -145 67q-92 0 -144 -67z" />
    <glyph glyph-name="e" unicode="e" horiz-adv-x="1280" 
d="M678 -23q-290 0 -461 160q-172 156 -172 398q0 234 162 399q163 166 440 166q257 0 428 -148q166 -150 166 -401q0 -58 -10 -96h-793q0 -55 76 -107q76 -55 201 -55q160 0 291 104l174 -233q-184 -187 -502 -187zM795 764q-44 31 -106 38t-117.5 -7.5t-94.5 -53
t-39 -92.5h422q-3 74 -65 115z" />
    <glyph glyph-name="f" unicode="f" horiz-adv-x="870" 
d="M176 772h-131v279h131v57q0 110 39.5 191.5t108.5 125.5q128 78 288 78q55 0 106 -8t104 -29.5t91.5 -54t63 -86t24.5 -121.5q0 -34 -8 -86h-297q4 28 4 31q0 31 -16 49.5t-45 18.5q-61 0 -61 -72v-94h208v-279h-198v-772h-412v772z" />
    <glyph glyph-name="g" unicode="g" horiz-adv-x="1361" 
d="M862 133q-43 -72 -127 -114t-188 -42q-213 0 -357 164q-143 162 -143 398q0 235 143 397q144 164 357 164q214 0 307 -158v135h410v-938q0 -323 -172 -473q-173 -147 -457 -147q-330 0 -537 139l154 276q178 -106 332 -106q278 0 278 305zM516 715q-57 -69 -57 -176
q0 -105 57 -174q57 -72 146 -72q88 0 145 72q53 71 53 174q0 105 -53 176q-54 69 -145 69q-92 0 -146 -69z" />
    <glyph glyph-name="h" unicode="h" horiz-adv-x="1284" 
d="M1196 0h-422v590q0 182 -127 182q-125 0 -125 -182v-590h-422v1481h422v-537q94 156 299 156q375 0 375 -469v-631z" />
    <glyph glyph-name="i" unicode="i" horiz-adv-x="622" 
d="M522 0h-422v1077h422v-1077zM76 1331q0 -83 63.5 -135.5t171.5 -52.5t172 52.5t64 135.5q0 87 -61.5 138t-174.5 51t-174 -51t-61 -138z" />
    <glyph glyph-name="j" unicode="j" horiz-adv-x="694" 
d="M182 -123v1200h412v-1163q0 -110 -39.5 -191.5t-108.5 -125.5q-128 -78 -288 -78q-404 0 -404 299q0 34 8 86h308q-4 -28 -4 -31q0 -68 59 -68q57 0 57 72zM152 1331q0 87 61 138t174 51t174.5 -51t61.5 -138q0 -83 -64 -135.5t-172 -52.5t-171.5 52.5t-63.5 135.5z" />
    <glyph glyph-name="k" unicode="k" horiz-adv-x="1331" 
d="M98 1481h422v-834l260 430h441v-55l-326 -444l102 -183q47 -80 129 -80q51 0 107 33l123 -254q-150 -117 -332 -117q-143 0 -243 66t-167 215l-94 215v-473h-422v1481z" />
    <glyph glyph-name="l" unicode="l" horiz-adv-x="622" 
d="M100 1481h422v-1481h-422v1481z" />
    <glyph glyph-name="m" unicode="m" horiz-adv-x="1849" 
d="M1763 0h-422v602q0 168 -98 168q-100 0 -100 -168v-602h-422v602q0 168 -98 168q-101 0 -101 -168v-602h-422v1077h422v-135q29 73 95.5 115.5t152.5 42.5q190 0 285 -154q74 89 148.5 121.5t180.5 32.5q85 0 153 -32.5t109 -82t68.5 -114.5t38 -124.5t10.5 -117.5v-629z
" />
    <glyph glyph-name="n" unicode="n" horiz-adv-x="1284" 
d="M1196 0h-422v590q0 182 -127 182q-125 0 -125 -182v-590h-422v1077h422v-133q94 156 299 156q375 0 375 -469v-631z" />
    <glyph glyph-name="o" unicode="o" horiz-adv-x="1331" 
d="M1114 938q174 -162 174 -399q0 -238 -174 -400t-448 -162q-273 0 -447 162q-176 164 -176 400q0 235 176 399q174 162 447 162q274 0 448 -162zM500 707q-66 -66 -66 -168t66 -168t166 -66q99 0 165 66t66 168t-66 168q-65 65 -165 65q-101 0 -166 -65z" />
    <glyph glyph-name="p" unicode="p" horiz-adv-x="1382" 
d="M100 1077h422v-133q92 156 307 156q217 0 363 -158q143 -158 143 -403q0 -247 -143 -402q-145 -160 -363 -160q-214 0 -307 158v-594h-422v1536zM860 367q53 68 53 172t-53 172q-55 67 -145 67q-92 0 -144 -67q-55 -67 -55 -172t55 -172q53 -68 144 -68q89 0 145 68z" />
    <glyph glyph-name="q" unicode="q" horiz-adv-x="1380" 
d="M860 944v133h422v-1536h-422v594q-93 -158 -307 -158q-215 0 -360 160q-146 158 -146 402q0 242 146 403q146 158 360 158q215 0 307 -156zM524 711q-55 -67 -55 -172t55 -172q53 -68 144 -68q89 0 145 68q53 68 53 172t-53 172q-55 67 -145 67q-92 0 -144 -67z" />
    <glyph glyph-name="r" unicode="r" horiz-adv-x="892" 
d="M100 1077h406v-227q12 73 51.5 128t93.5 81q93 41 158 41q11 0 61 -4v-410q-49 14 -135 14q-213 0 -213 -231v-469h-422v1077z" />
    <glyph glyph-name="s" unicode="s" horiz-adv-x="1026" 
d="M31 324l307 69q27 -131 176 -131q100 0 100 53q0 18 -14 29.5t-57 28.5l-123 45l-35 12q-51 17 -121 51q-39 20 -67 45q-53 45 -83 96.5t-30 122.5q0 158 125 256q126 99 313 99q311 0 426 -275l-305 -86q-38 86 -125 86q-31 0 -49 -15t-18 -36q0 -18 16 -30.5t55 -24.5
l119 -49q336 -121 342 -344q0 -171 -133 -260t-336 -89q-207 0 -332 88t-151 259z" />
    <glyph glyph-name="t" unicode="t" horiz-adv-x="1003" 
d="M991 354q0 -87 -24 -154.5t-62 -108.5t-91.5 -67.5t-106.5 -36.5t-113 -10q-62 0 -117 11t-110 39t-94.5 71t-64 114t-24.5 161v399h-147v305h192l50 264h317v-264h256v-305h-256v-403q0 -66 51 -66q58 0 58 82q0 76 -19 98h268q34 -52 37 -129z" />
    <glyph glyph-name="u" unicode="u" horiz-adv-x="1284" 
d="M88 1077h422v-590q0 -182 127 -182q125 0 125 182v590h422v-1077h-422v133q-94 -156 -299 -156q-375 0 -375 469v631z" />
    <glyph glyph-name="v" unicode="v" horiz-adv-x="1333" 
d="M881 1077h458l-481 -1077h-381l-485 1077h459l213 -622z" />
    <glyph glyph-name="w" unicode="w" horiz-adv-x="1695" 
d="M473 1077l119 -508l137 482h238l137 -482l119 508h465l-379 -1077h-322l-139 479l-139 -479h-322l-379 1077h465z" />
    <glyph glyph-name="x" unicode="x" horiz-adv-x="1343" 
d="M1362 0h-428l-262 303l-262 -303h-428v31l438 524l-393 492v30h458l187 -237l186 237h459v-30l-393 -492l438 -524v-31z" />
    <glyph glyph-name="y" unicode="y" 
d="M455 1077l186 -551l209 551h440l-684 -1536h-413l249 563l-448 973h461z" />
    <glyph glyph-name="z" unicode="z" horiz-adv-x="1243" 
d="M674 322h510v-322h-1121v231l488 525h-475v321h1081v-235z" />
    <glyph glyph-name="braceleft" unicode="{" horiz-adv-x="886" 
d="M391 512v-12q102 -13 154.5 -67.5t52.5 -119.5q0 -75 -61 -243q-64 -171 -64 -244q0 -139 143 -139q89 0 226 20v-248q-190 -20 -293 -20q-196 0 -314 91.5t-118 264.5q0 100 39 219q7 23 43 119.5t45 126.5q17 49 -5 82.5t-57 42.5q-34 8 -100 16l-25 5v200
q133 18 160 39q51 34 27 107q-9 30 -45 126t-43 119q-39 119 -39 220q0 173 118 264.5t314 91.5q93 0 293 -21v-247q-137 20 -226 20q-143 0 -143 -139q0 -74 64 -242q61 -171 61 -246q0 -64 -52.5 -118.5t-154.5 -67.5z" />
    <glyph glyph-name="sterling" unicode="&#xa3;" horiz-adv-x="1310" 
d="M1006 717v-164h-279q46 -127 -70 -217h584v-336h-1173v313q301 46 301 183q0 29 -7 57h-253v164h170q-70 174 -70 307q0 186 147 309t369 123q100 0 182.5 -29t137.5 -77.5t92.5 -112.5t54 -132t16.5 -138h-377v14q0 115 -124 115q-49 0 -81 -26.5t-32 -74.5
q0 -83 80 -278h332z" />
    <glyph glyph-name="yen" unicode="&#xa5;" horiz-adv-x="1650" 
d="M1343 322v-170h-303v-152h-430v152h-303v170h303v143h-303v170h262l-518 739v60h473l301 -492l303 492h471v-60l-524 -739h268v-170h-303v-143h303z" />
    <glyph glyph-name="guillemotleft" unicode="&#xab;" horiz-adv-x="1411" 
d="M694 582v82l434 501l224 -217l-279 -325l275 -320l-220 -221zM57 582v82l435 501l223 -217l-279 -325l275 -320l-219 -221z" />
    <glyph glyph-name="guillemotright" unicode="&#xbb;" horiz-adv-x="1411" 
d="M59 948l224 217l434 -501v-82l-434 -500l-220 221l275 320zM696 948l224 217l434 -501v-82l-434 -500l-220 221l275 320z" />
    <glyph glyph-name="Eacute" unicode="&#xc9;" horiz-adv-x="1228" 
d="M1147 369v-369h-1022v1434h1022v-369h-592v-186h514v-328h-514v-182h592zM434 1542l150 301h399l-278 -301h-271z" />
    <glyph glyph-name="adieresis" unicode="&#xe4;" horiz-adv-x="1382" 
d="M860 133q-92 -156 -307 -156t-360 160q-146 158 -146 402q0 242 146 403q146 158 360 158t307 -158v135h422v-1077h-422v133zM524 367q53 -68 144 -68q89 0 145 68q53 68 53 172t-53 172q-55 67 -145 67q-92 0 -144 -67q-55 -67 -55 -172t55 -172zM252 1245
q58 -49 147 -49q85 0 144 49.5t59 122.5t-60.5 124.5t-142.5 51.5q-88 0 -146 -50.5t-58 -125.5q0 -78 57 -123zM801 1245q58 -49 143 -49q88 0 147.5 49.5t59.5 122.5q4 56 -34 100t-93.5 62.5t-118.5 10.5t-104 -46q-57 -51 -57 -127t57 -123z" />
    <glyph glyph-name="aring" unicode="&#xe5;" horiz-adv-x="1382" 
d="M860 133q-92 -156 -307 -156t-360 160q-146 158 -146 402q0 242 146 403q146 158 360 158t307 -158v135h422v-1077h-422v133zM524 367q53 -68 144 -68q89 0 145 68q53 68 53 172t-53 172q-55 67 -145 67q-92 0 -144 -67q-55 -67 -55 -172t55 -172zM463 1257
q83 -65 207 -65q130 0 210.5 66.5t80.5 181.5t-80.5 182.5t-210.5 67.5q-127 0 -208 -67.5t-81 -182.5q0 -119 82 -183zM590 1509q31 26 80.5 26t81.5 -26q31 -26 31 -69t-31 -72q-32 -31 -81.5 -31t-80.5 31q-32 29 -32 72t32 69z" />
    <glyph glyph-name="egrave" unicode="&#xe8;" 
d="M678 -23q-290 0 -461 160q-172 156 -172 398q0 234 162 399q163 166 440 166q257 0 428 -148q166 -150 166 -401q0 -58 -10 -96h-793q0 -55 76 -107q76 -55 201 -55q160 0 291 104l174 -233q-184 -187 -502 -187zM795 764q-44 31 -106 38t-117.5 -7.5t-94.5 -53
t-39 -92.5h422q-3 74 -65 115zM557 1192l-328 358h420l178 -358h-270z" />
    <glyph glyph-name="eacute" unicode="&#xe9;" 
d="M678 -23q-290 0 -461 160q-172 156 -172 398q0 234 162 399q163 166 440 166q257 0 428 -148q166 -150 166 -401q0 -58 -10 -96h-793q0 -55 76 -107q76 -55 201 -55q160 0 291 104l174 -233q-184 -187 -502 -187zM795 764q-44 31 -106 38t-117.5 -7.5t-94.5 -53
t-39 -92.5h422q-3 74 -65 115zM477 1192l178 358h420l-327 -358h-271z" />
    <glyph glyph-name="ecircumflex" unicode="&#xea;" 
d="M678 -23q-290 0 -461 160q-172 156 -172 398q0 234 162 399q163 166 440 166q257 0 428 -148q166 -150 166 -401q0 -58 -10 -96h-793q0 -55 76 -107q76 -55 201 -55q160 0 291 104l174 -233q-184 -187 -502 -187zM795 764q-44 31 -106 38t-117.5 -7.5t-94.5 -53
t-39 -92.5h422q-3 74 -65 115zM268 1192l189 358h393l192 -358h-249l-138 186l-137 -186h-250z" />
    <glyph glyph-name="oacute" unicode="&#xf3;" horiz-adv-x="1331" 
d="M1114 938q174 -162 174 -399q0 -238 -174 -400t-448 -162q-273 0 -447 162q-176 164 -176 400q0 235 176 399q174 162 447 162q274 0 448 -162zM500 707q-66 -66 -66 -168t66 -168t166 -66q99 0 165 66t66 168t-66 168q-65 65 -165 65q-101 0 -166 -65zM485 1192l179 358
h419l-327 -358h-271z" />
    <glyph glyph-name="odieresis" unicode="&#xf6;" horiz-adv-x="1331" 
d="M1114 938q174 -162 174 -399q0 -238 -174 -400t-448 -162q-273 0 -447 162q-176 164 -176 400q0 235 176 399q174 162 447 162q274 0 448 -162zM500 707q-66 -66 -66 -168t66 -168t166 -66q99 0 165 66t66 168t-66 168q-65 65 -165 65q-101 0 -166 -65zM246 1245
q-57 47 -56.5 123t58.5 127q58 49 145 49q82 0 142.5 -51.5t60.5 -124.5t-59 -122.5t-144 -49.5q-89 0 -147 49zM795 1245q-57 47 -57 123t57 127q58 49 143 49q87 0 147 -50.5t60 -125.5q0 -73 -59.5 -122.5t-147.5 -49.5q-85 0 -143 49z" />
    <glyph glyph-name="udieresis" unicode="&#xfc;" horiz-adv-x="1284" 
d="M510 487q0 -182 127 -182q125 0 125 182v590h422v-1077h-422v133q-94 -156 -299 -156q-375 0 -375 469v631h422v-590zM223 1245q58 -49 148 -49q85 0 143.5 49.5t58.5 122.5t-60 124.5t-142 51.5q-88 0 -146.5 -50.5t-58.5 -125.5q0 -78 57 -123zM772 1245
q58 -49 143 -49q88 0 147.5 49.5t59.5 122.5q4 56 -34 100t-93.5 62.5t-118.5 10.5t-104 -46q-57 -51 -57 -127t57 -123z" />
    <glyph glyph-name="eogonek" unicode="&#x119;" 
d="M858 -23q-41 -47 -41 -104q0 -48 32.5 -78.5t78.5 -30.5q88 0 141 99l172 -103q-41 -106 -135.5 -162.5t-210.5 -56.5q-115 0 -219 66q-103 68 -103 194q0 104 72 176q-271 9 -438 168q-162 155 -162 390q0 234 162 399q163 166 440 166q257 0 428 -148
q166 -150 166 -401q0 -58 -10 -96h-793q0 -55 76 -107q76 -55 201 -55q160 0 291 104l174 -233q-98 -98 -258 -152q-54 -22 -64 -35zM649 821q-81 0 -144 -49.5t-67 -122.5h422q-4 74 -66 123t-145 49z" />
    <glyph glyph-name="lslash" unicode="&#x142;" horiz-adv-x="763" 
d="M160 0v502l-146 -70v221l146 72v756h422v-545l159 78v-230l-159 -75v-709h-422z" />
    <glyph glyph-name="nacute" unicode="&#x144;" horiz-adv-x="1284" 
d="M774 590q0 182 -127 182q-125 0 -125 -182v-590h-422v1077h422v-133q94 156 299 156q375 0 375 -469v-631h-422v590zM559 1550l-178 -358h270l328 358h-420z" />
    <glyph glyph-name="Sacute" unicode="&#x15a;" horiz-adv-x="1275" 
d="M37 426l346 80q44 -201 254 -201q168 0 168 103q0 71 -121 112l-162 62q-188 62 -278 137q-141 114 -144 282q0 204 156 330q152 125 391 125q398 0 524 -373l-344 -98q-26 74 -64.5 108.5t-107.5 34.5q-59 0 -97 -24t-38 -66q0 -68 117 -108l160 -56
q228 -78 324.5 -183.5t101.5 -268.5q0 -217 -168 -330q-171 -115 -418 -115q-253 0 -410.5 117t-189.5 332zM483 1542l150 301h399l-278 -301h-271z" />
    <glyph glyph-name="sacute" unicode="&#x15b;" horiz-adv-x="1026" 
d="M31 324l307 69q27 -131 176 -131q100 0 100 53q0 18 -14 29.5t-57 28.5l-123 45l-35 12q-51 17 -121 51q-39 20 -67 45q-53 45 -83 96.5t-30 122.5q0 158 125 256q126 99 313 99q311 0 426 -275l-305 -86q-38 86 -125 86q-31 0 -49 -15t-18 -36q0 -18 16 -30.5t55 -24.5
l119 -49q336 -121 342 -344q0 -171 -133 -260t-336 -89q-207 0 -332 88t-151 259zM322 1192l178 358h420l-328 -358h-270z" />
    <glyph glyph-name="quoteright" unicode="&#x2019;" horiz-adv-x="563" 
d="M184 715l-100 127q66 49 117 123t55 135q-83 0 -131.5 52.5t-48.5 127.5q0 89 59 145t158 56q114 0 166 -70q53 -71 53 -151q0 -159 -96 -314q-92 -152 -232 -231z" />
    <glyph glyph-name="Euro" unicode="&#x20ac;" horiz-adv-x="1533" 
d="M1272 891l-70 -150h-491q0 -52 4 -92h440l-72 -149h-321q82 -162 342 -162q150 0 278 51v-338q-121 -74 -321 -74q-291 0 -492 148q-204 145 -250 375h-251v149h239q-2 14 -2 41q0 41 -2 51h-235v150h239q40 251 236 409q194 156 491 156q248 0 441 -129l-156 -319
q-128 73 -266 73q-113 0 -199 -48t-123 -142h541z" />
    <glyph glyph-name="f_f" unicode="&#xfb00;" horiz-adv-x="1740" 
d="M1657 1051v-279h-199v-772h-411v772h-459v-772h-412v772h-131v279h131v49q1 91 31 162.5t78.5 116t115 73t133 40t138.5 11.5q184 0 348 -86l-96 -246q-93 46 -181 46q-90 0 -127.5 -31t-37.5 -94v-41h469v49q1 91 31 162.5t78.5 116t114.5 73t132.5 40t138.5 11.5
q166 0 295 -69l-96 -246q-66 29 -146 29q-147 0 -147 -125v-41h209z" />
    <glyph glyph-name="fi" unicode="&#xfb01;" horiz-adv-x="1583" 
d="M176 1051v49q1 91 31 162.5t78.5 116t115 73t133 40t138.5 11.5q166 0 295 -69l-97 -246q-66 29 -145 29q-147 0 -147 -125v-41h905v-1051h-422v772h-473v-772h-412v770l-131 2v279h131zM1038 1331q0 -83 64 -135.5t172 -52.5t171.5 52.5t63.5 135.5q0 87 -61 138
t-174 51t-174.5 -51t-61.5 -138z" />
    <glyph glyph-name="null" horiz-adv-x="0" 
 />
    <glyph glyph-name="zero.oldstyle" horiz-adv-x="1349" 
d="M1116 940q168 -158 168 -399q0 -240 -168 -402t-442 -162q-273 0 -441 162q-167 161 -167 402q0 242 167 399q168 160 441 160q271 0 442 -160zM877 541q0 97 -55 167t-148 70q-90 0 -145.5 -70t-55.5 -167q0 -98 55.5 -170t145.5 -72q93 0 148 71.5t55 170.5z" />
    <glyph glyph-name="nine.oldstyle" horiz-adv-x="1372" 
d="M569 70q125 0 224 57q98 58 116 192q0 3 -1 16t-1 17q-54 -66 -155 -106q-103 -41 -191 -41q-209 0 -350 117q-143 113 -143 311q0 206 161 336q158 131 428 131q307 0 480 -176q170 -179 170 -478q0 -297 -177 -495q-175 -193 -528 -193q-312 0 -524 176l201 218
q137 -82 290 -82zM686 477q94 0 150.5 46t56.5 112q0 69 -56 114.5t-153 45.5q-88 0 -148.5 -46.5t-60.5 -113.5t62.5 -112.5t148.5 -45.5z" />
    <glyph glyph-name="eight.oldstyle" horiz-adv-x="1390" 
d="M586 989q-25 -18 -36.5 -42.5t-6 -49t23 -45.5t53 -34t80.5 -13q68 0 109 33t41 75q4 32 -24.5 59.5t-70 40.5t-89.5 8t-80 -32zM696 -12q-276 0 -452 108q-174 107 -174 299q0 115 69 198.5t168 111.5q-73 32 -124.5 99.5t-51.5 153.5q0 166 156 271q156 102 409 102
q257 0 410 -102q154 -106 154 -271q0 -92 -52.5 -159.5t-124.5 -93.5q85 -29 164 -111q74 -83 74 -199q0 -192 -174 -299q-175 -108 -451 -108zM696 301q83 0 137 39t54 94t-53.5 94t-137.5 39q-86 0 -139 -38.5t-53 -94.5q0 -55 54 -94t138 -39z" />
    <glyph glyph-name="seven.oldstyle" horiz-adv-x="1175" 
d="M668 733h-627v344h1110v-243l-504 -1047h-461z" />
    <glyph glyph-name="six.oldstyle" horiz-adv-x="1390" 
d="M811 1018q-125 0 -221 -57q-101 -58 -119 -193q0 -3 1 -16t1 -17q56 69 158 109q98 39 188 39q208 0 352 -117q142 -118 142 -313q0 -204 -160 -334q-162 -131 -430 -131q-308 0 -477 178q-172 175 -172 475q0 302 176 496q174 192 528 192q316 0 525 -176l-201 -217
q-137 82 -291 82zM694 610q-93 0 -150 -46.5t-57 -112.5t56.5 -112t152.5 -46q88 0 148.5 46t60.5 112q0 68 -62.5 113.5t-148.5 45.5z" />
    <glyph glyph-name="five.oldstyle" horiz-adv-x="1294" 
d="M590 82q93 0 164 45q71 47 71 121q0 70 -57 107.5t-141 37.5q-63 0 -136 -28t-108 -70l-266 90l45 692h985v-309h-627l-12 -186h10v-2q91 67 270 67q203 0 328 -110t125 -287q0 -216 -166 -348q-167 -129 -457 -129q-369 0 -583 172l190 237q166 -100 365 -100z" />
    <glyph glyph-name="four.oldstyle" horiz-adv-x="1433" 
d="M709 639l-285 -274h285v274zM702 -213v299h-659v276l737 715h340v-712h262v-279h-262v-299h-418z" />
    <glyph glyph-name="three.oldstyle" horiz-adv-x="1288" 
d="M420 367l-135 190l319 211h-483v309h1044v-219l-360 -260q179 -3 297 -96q121 -95 121 -264q0 -202 -166 -334q-169 -129 -473 -129q-350 0 -561 172l190 235q174 -98 332 -98q126 0 195 46t69 122q0 67 -57.5 106t-149.5 39q-93 0 -182 -30z" />
    <glyph glyph-name="two.oldstyle" horiz-adv-x="1228" 
d="M731 342l-37 -20q146 12 305 14h148v-336h-1065v238l549 374q36 21 53.5 41.5t20 32t2.5 31.5q0 31 -28 53.5t-77 22.5q-53 0 -85 -40t-32 -102h-409q0 169 114 301q60 69 168.5 108.5t251.5 39.5q234 0 369 -99t135 -276q-8 -84 -41 -138.5t-112 -109.5
q-58 -40 -103 -65l-31.5 -17.5t-47 -25.5t-48.5 -27z" />
    <glyph glyph-name="one.oldstyle" horiz-adv-x="1228" 
d="M471 662l-332 -99l-100 299l606 215h229v-741h312v-336h-1041v336h326v326z" />
    <glyph glyph-name="y.alt" 
d="M455 1077l186 -551l209 551h440l-452 -1016q-82 -197 -140 -286q-170 -256 -475 -256q-246 0 -401 104l129 266q101 -61 217 -61q163 0 274 276l-448 973h461z" />
    <glyph glyph-name="g.alt" horiz-adv-x="1368" 
d="M199 424h2q-123 108 -123 272q0 184 170 295q171 109 418 109q211 0 311 -56q66 31 31 99h340q20 -26 20 -72q-3 -111 -197 -158q82 -94 82 -217q0 -185 -170 -299q-168 -116 -417 -116q-169 0 -291 45q-42 -60 4 -91.5t164 -31.5h354q230 0 344 -97q111 -99 111 -204
q0 -45 -10.5 -85.5t-39 -84t-74 -78.5t-121 -65t-173.5 -48q-138 -22 -307 -22q-174 0 -312 24q-136 27 -239 101q-101 73 -101 190q0 62 55 130t140 104q-96 53 -96 176q0 48 35.5 99.5t89.5 80.5zM528 799q-55 -42 -55.5 -102t51.5 -99q53 -41 142 -41q88 0 141 41
q51 40 51 99.5t-53 101.5q-55 43 -139 43q-86 0 -138 -43zM627 -248q121 0 241 19q115 18 115 55q0 25 -30 40t-74 15h-131q-248 0 -340 25q-76 -21 -76 -64q0 -30 36 -50t95 -28q91 -12 164 -12z" />
    <glyph glyph-name="a.alt" horiz-adv-x="1304" 
d="M465 -23q-183 0 -303 99q-123 99 -123 258q0 169 137 254q136 86 326 86q174 0 307 -80v39q0 66 -62.5 114t-164.5 48q-199 0 -334 -99l-121 248q187 156 518 156q170 0 292.5 -45t180.5 -123q103 -138 103 -314v-618h-422v131q-121 -154 -334 -154zM621 479
q-70 0 -112 -27.5t-42 -82.5q0 -43 33.5 -70t93.5 -27q58 0 122 20.5t95 53.5v82q-68 51 -190 51z" />
  </font>
</defs>
</svg>
