<?xml version="1.0" encoding="iso-8859-1"?>
<!-- Generator: Adobe Illustrator 19.0.0, SVG Export Plug-In . SVG Version: 6.00 Build 0)  -->
<svg version="1.1" id="Capa_1" xmlns="http://www.w3.org/2000/svg" xmlns:xlink="http://www.w3.org/1999/xlink" x="0px" y="0px"
	 viewBox="0 0 511.996 511.996" style="enable-background:new 0 0 511.996 511.996;" xml:space="preserve">
<g>
	<g>
		<path d="M504.889,300.713c-7.173-10.022-19.124-16.758-31.187-17.578c-9.848-0.676-18.769,2.661-25.118,9.381
			c-2.634,2.788-5.653,6.082-8.937,9.731c-7.257-9.203-18.608-15.327-30.068-16.106c-9.846-0.675-18.769,2.661-25.118,9.381
			c-1.1,1.165-2.276,2.429-3.506,3.763c-7.216-7.536-17.304-12.453-27.484-13.144c-9.849-0.675-18.769,2.661-25.118,9.381
			c-9.268,9.811-24.371,26.999-44.874,51.065l-55.534-14.004c-7.385-6.656-39.681-32.762-91.881-32.762
			c-90.647,0-132.291,48.723-134.019,50.796c-2.412,2.895-2.27,7.273,0.336,9.998c3.059,3.199,8.376,3.023,11.211-0.377
			c0.378-0.454,38.791-45.389,122.473-45.389c51.882,0,82.352,29.367,82.866,29.87c0.946,0.946,2.171,1.631,3.466,1.963
			l100.88,25.438c12.804,4.107,19.947,17.828,15.935,30.687c-1.954,6.259-6.227,11.383-12.034,14.428
			c-5.806,3.045-12.45,3.646-18.711,1.692c-0.081-0.025-0.161-0.049-0.244-0.071l-81.993-22.581
			c-0.643-0.174-1.328-0.271-1.995-0.271H160.11c-4.15,0-7.514,3.363-7.514,7.514s3.364,7.514,7.514,7.514h63.108l80.897,22.28
			c9.947,3.069,20.82,2.066,30.038-2.769c9.363-4.908,16.253-13.17,19.401-23.261c1.037-3.323,1.607-6.682,1.756-10.007l22-2.315
			c1.946-0.205,3.736-1.161,4.989-2.665c0.542-0.651,54.467-65.389,77.209-89.461c9.455-10.008,26.332-2.917,33.16,6.623
			c10.497,14.666-2.548,30.677-6.796,35.236c-20.875,22.398-59.155,68.543-66.035,76.861l-145.699,72.849
			c-6.414,3.207-13.889,3.453-20.503,0.667l-138.701-58.4c-0.923-0.389-1.915-0.589-2.917-0.589H7.818
			c-4.15,0-7.514,3.363-7.514,7.514c0,4.151,3.365,7.514,7.514,7.514H110.5l137.304,57.811c10.573,4.452,22.796,4.054,33.057-1.076
			l147.118-73.559c0.938-0.469,1.767-1.129,2.435-1.939c0.44-0.533,44.257-53.591,66.453-77.408
			C513.207,337.41,516.282,316.63,504.889,300.713z M329.557,358.399c-0.784-0.291-1.581-0.588-2.393-0.794l-27.427-6.916
			c17.707-20.701,31.308-36.131,39.54-44.844c4.111-4.352,9.432-4.955,13.173-4.708c6.768,0.46,13.737,4.058,18.399,9.352
			C358.098,324.857,342.46,343.152,329.557,358.399z M372.706,380.336l-19.601,2.063c-2.149-6.102-5.775-11.636-10.58-16.059
			c17.74-20.945,40.103-46.993,52.86-60.497c4.111-4.352,9.433-4.955,13.173-4.708c7.583,0.516,15.428,4.964,19.984,11.331
			c0.309,0.432,0.595,0.871,0.869,1.315C407.488,338.766,380.266,371.281,372.706,380.336z"/>
	</g>
</g>
<g>
	<g>
		<path d="M256.295,112.258c-33.976,0-61.618,27.641-61.618,61.618c0,31.055,23.035,49.595,61.618,49.595
			c38.584,0,61.618-18.541,61.618-49.595C317.913,139.901,290.271,112.258,256.295,112.258z M256.295,208.443
			c-17.399,0-46.589-4.491-46.589-34.566c0-25.69,20.899-46.589,46.589-46.589s46.589,20.899,46.589,46.589
			C302.884,203.952,273.694,208.443,256.295,208.443z"/>
	</g>
</g>
<g>
	<g>
		<path d="M226.237,52.143c-15.359,0-25.549,18.996-25.549,31.561c0,14.087,11.461,25.549,25.549,25.549
			c14.088,0,25.549-11.461,25.549-25.549C251.786,71.139,241.596,52.143,226.237,52.143z M226.237,94.224
			c-5.801,0-10.52-4.719-10.52-10.52c0-7.108,5.997-16.532,10.52-16.532c4.523,0,10.52,9.424,10.52,16.532
			C236.757,89.505,232.038,94.224,226.237,94.224z"/>
	</g>
</g>
<g>
	<g>
		<path d="M286.352,52.143c-15.359,0-25.549,18.996-25.549,31.561c0,14.087,11.461,25.549,25.549,25.549
			c14.088,0,25.549-11.461,25.549-25.549C311.901,71.139,301.711,52.143,286.352,52.143z M286.352,94.224
			c-5.801,0-10.52-4.719-10.52-10.52c0-7.108,5.997-16.532,10.52-16.532c4.523,0,10.52,9.424,10.52,16.532
			C296.873,89.505,292.154,94.224,286.352,94.224z"/>
	</g>
</g>
<g>
	<g>
		<path d="M334.445,88.212c-15.358,0-25.549,18.997-25.549,31.561c0,14.087,11.461,25.549,25.549,25.549
			c14.088,0,25.549-11.461,25.549-25.549C359.994,107.209,349.803,88.212,334.445,88.212z M334.445,130.293
			c-5.801,0-10.52-4.719-10.52-10.52c0-7.108,5.998-16.532,10.52-16.532c4.523,0,10.52,9.424,10.52,16.532
			C344.965,125.574,340.246,130.293,334.445,130.293z"/>
	</g>
</g>
<g>
	<g>
		<path d="M178.145,88.212c-15.359,0-25.549,18.997-25.549,31.561c0,14.087,11.461,25.549,25.549,25.549
			s25.549-11.461,25.549-25.549C203.694,107.209,193.504,88.212,178.145,88.212z M178.145,130.293c-5.801,0-10.52-4.719-10.52-10.52
			c0-7.108,5.997-16.532,10.52-16.532c4.523,0,10.52,9.424,10.52,16.532C188.665,125.574,183.946,130.293,178.145,130.293z"/>
	</g>
</g>
<g>
	<g>
		<path d="M272.325,160.351h-8.516v-8.516c0-4.151-3.363-7.514-7.514-7.514c-4.15,0-7.514,3.363-7.514,7.514v8.516h-8.516
			c-4.15,0-7.514,3.363-7.514,7.514s3.365,7.514,7.514,7.514h8.516v8.516c0,4.151,3.364,7.514,7.514,7.514
			c4.151,0,7.514-3.363,7.514-7.514v-8.516h8.516c4.151,0,7.514-3.363,7.514-7.514S276.476,160.351,272.325,160.351z"/>
	</g>
</g>
<g>
	<g>
		<path d="M392.061,24.533C376.547,8.804,332.6-22.106,256.295,25.212c-76.301-47.317-120.251-16.407-135.767-0.679
			c-31.73,32.167-37.346,88.634-12.519,125.874c59.993,89.99,140.838,142.034,144.251,144.205c2.435,1.551,5.633,1.55,8.068,0
			c3.413-2.171,84.259-54.214,144.252-144.205C429.407,113.167,423.791,56.701,392.061,24.533z M392.074,142.07
			C341.357,218.147,273.4,267.498,256.291,279.23c-17.105-11.719-84.995-60.985-135.779-137.16
			c-21.082-31.626-16.276-79.618,10.715-106.982c13.112-13.295,29.793-19.914,48.875-19.914c21.541,0,46.142,8.44,72.11,25.242
			c2.484,1.607,5.68,1.607,8.164,0c48.972-31.687,93.07-33.63,120.985-5.328C408.353,62.452,413.159,110.444,392.074,142.07z"/>
	</g>
</g>
<g>
</g>
<g>
</g>
<g>
</g>
<g>
</g>
<g>
</g>
<g>
</g>
<g>
</g>
<g>
</g>
<g>
</g>
<g>
</g>
<g>
</g>
<g>
</g>
<g>
</g>
<g>
</g>
<g>
</g>
</svg>
