<svg id="Capa_1" enable-background="new 0 0 511.995 511.995" height="512" viewBox="0 0 511.995 511.995" width="512" xmlns="http://www.w3.org/2000/svg"><g><path d="m430.909 61.387-9.38-9.38c-2.929-2.929-7.678-2.929-10.606 0-2.929 2.929-2.929 7.677 0 10.606l9.38 9.38c8.869 8.869 8.868 23.308.001 32.182l-23.913 23.903c-5.544 5.548-13.426 7.833-21.08 6.11-7.664-1.725-13.813-7.174-16.449-14.573l-26.419-74.227c-2.928-8.236-.829-17.549 5.342-23.72 4.307-4.3 10.025-6.668 16.101-6.668 6.069 0 11.784 2.368 16.087 6.663l19.77 19.77c2.929 2.929 7.678 2.929 10.606 0 2.929-2.929 2.929-7.678 0-10.606l-19.774-19.774c-7.14-7.128-16.618-11.053-26.69-11.053-10.078 0-19.56 3.925-26.703 11.057-5.25 5.25-8.71 11.868-10.197 18.909-3.602-.464-7.237-.706-10.874-.706h-100.208c-3.638 0-7.272.242-10.875.707-1.488-7.039-4.949-13.656-10.199-18.906-14.722-14.722-38.675-14.721-53.396 0l-50.325 50.324c-7.131 7.132-11.059 16.613-11.059 26.698s3.928 19.567 11.059 26.698l23.904 23.904c4.674 4.674 10.349 7.942 16.462 9.662v56.228c0 32.605 18.752 62.187 48.021 76.186 4.375 9.167 11.496 16.774 20.289 21.77v22.01l-7.852 21.922c-2.508 7.003-4.328 14.198-5.503 21.481-.171.094-.342.186-.512.281l-68.779-68.779c-2.929-2.929-7.678-2.929-10.606 0-11.964 11.964-19.415 27.139-21.547 43.886-.523 4.109 2.384 7.864 6.493 8.387 4.106.522 7.864-2.384 8.387-6.493 1.39-10.918 5.603-21.004 12.291-29.55l61.323 61.324c-10.899 9.499-18.874 22.018-22.872 35.9-12.631-1.974-24.341-7.888-33.465-17.02-6.869-6.878-11.852-15.005-14.811-24.157-1.274-3.941-5.501-6.103-9.443-4.83-3.941 1.274-6.104 5.502-4.829 9.443 3.694 11.429 9.909 21.571 18.471 30.144 11.3 11.309 25.779 18.658 41.405 21.176-.146 1.882-.226 3.776-.226 5.68v17.111c-5.474 1.343-10.495 4.158-14.583 8.246-5.898 5.899-9.146 13.738-9.146 22.073 0 17.22 14.009 31.229 31.229 31.229h221.596c8.328 0 16.168-3.246 22.083-9.147 5.898-5.898 9.146-13.741 9.146-22.083 0-14.631-10.12-26.943-23.729-30.31v-17.12c0-27.152-15.077-52.384-38.721-65.392-1.175-7.282-2.996-14.478-5.504-21.481l-7.845-21.903v-22.002c3.832-2.176 7.402-4.869 10.606-8.069 4.056-4.061 7.318-8.704 9.711-13.737 29.251-14.006 47.987-43.579 47.987-76.176v-56.23c6.113-1.721 11.787-4.988 16.458-9.662l23.914-23.903c14.714-14.726 14.713-38.678-.002-53.393zm-188.868 131.483h-6.651c-7.6 0-13.782-6.183-13.782-13.782s6.183-13.782 13.782-13.782h1.164 38.906 1.164c7.6 0 13.782 6.183 13.782 13.782s-6.183 13.782-13.782 13.782h-6.651c-4.142 0-7.5 3.358-7.5 7.5v12.636c0 3.565-2.901 6.466-6.466 6.466s-6.466-2.901-6.466-6.466v-12.636c0-4.142-3.358-7.5-7.5-7.5zm25.919-148.61v106.045h-23.906v-106.045zm-176.245 59.915c-4.298-4.298-6.666-10.013-6.666-16.091s2.367-11.793 6.666-16.092l50.325-50.325c8.874-8.873 23.311-8.872 32.183 0 6.179 6.179 8.278 15.49 5.348 23.722l-26.421 74.229c-2.632 7.396-8.776 12.842-16.435 14.569-7.656 1.728-15.544-.557-21.096-6.108zm72.991 111.185v44.2c0 .31.018.616.023.925-17.525-12.914-28.254-33.546-28.254-55.909v-55.143c1.181-.152 2.361-.348 3.539-.613 12.707-2.864 22.9-11.9 27.268-24.172l26.421-74.23c.623-1.75 1.104-3.53 1.456-5.324 3.549-.551 7.145-.835 10.745-.835h23.15v106.757c-8.592 1.938-15.74 7.724-19.526 15.451-25.077 2.176-44.822 23.267-44.822 48.893zm-35.726 265.406c0-4.329 1.688-8.401 4.753-11.466s7.141-4.753 11.477-4.753c4.142 0 7.5-3.358 7.5-7.5v-23.71c0-18.104 8.393-35.139 22.149-46.324-.038 13.873 2.287 27.751 6.984 40.96l8.267 23.245c-12.079 4.153-20.935 15.562-21.188 28.95-.114 6.008 1.526 11.798 4.682 16.827h-28.394c-8.95 0-16.23-7.28-16.23-16.229zm153.116 16.229c-10.25 0-18.589-8.339-18.589-18.59v-54.264c10.015-3.186 17.292-12.573 17.292-23.629 0-4.142-3.358-7.5-7.5-7.5s-7.5 3.358-7.5 7.5c0 5.399-4.393 9.792-9.792 9.792s-9.792-4.393-9.792-9.792c0-4.142-3.358-7.5-7.5-7.5s-7.5 3.358-7.5 7.5c0 11.057 7.277 20.443 17.292 23.629v54.264c0 10.25-8.339 18.59-18.589 18.59h-29.242c-4.509 0-8.926-1.866-12.118-5.12-3.072-3.131-4.719-7.188-4.639-11.423.166-8.772 7.444-15.909 16.223-15.909 2.437 0 4.723-1.184 6.128-3.176s1.755-4.541.938-6.837l-11.232-31.584c-8.193-23.039-8.165-48.405.08-71.425l5.62-15.69c17.466 6.78 35.895 10.169 54.33 10.169 18.429 0 36.865-3.39 54.333-10.167l5.619 15.689c8.245 23.02 8.273 48.386.08 71.425l-11.232 31.584c-.817 2.296-.467 4.846.938 6.837s3.691 3.176 6.128 3.176c8.779 0 16.057 7.137 16.223 15.91.08 4.235-1.567 8.292-4.639 11.423-3.192 3.254-7.609 5.12-12.118 5.12h-29.242zm77.209-63.658v23.71c0 4.142 3.358 7.5 7.5 7.5 8.949 0 16.229 7.276 16.229 16.219 0 4.335-1.688 8.411-4.747 11.47-3.077 3.069-7.155 4.76-11.483 4.76h-28.394c3.156-5.029 4.796-10.82 4.682-16.827-.254-13.388-9.11-24.798-21.188-28.95l8.267-23.245c4.697-13.208 7.022-27.087 6.984-40.96 13.757 11.183 22.15 28.219 22.15 46.323zm-52.07-112.413c-32.816 13.434-69.644 13.434-102.45 0v-12.858c3.02.579 6.134.894 9.32.894 5.291 0 10.451-.841 15.343-2.434 8.078 4.576 17.18 6.978 26.554 6.978 9.391 0 18.501-2.407 26.577-6.99 4.828 1.58 9.976 2.446 15.325 2.446 3.166 0 6.285-.304 9.33-.883v12.847zm-61.154-23.721c1.015-.864 2.008-1.761 2.961-2.713 2.681-2.684 5.015-5.621 6.981-8.758 2.706 4.315 6.062 8.18 9.926 11.466-3.221.847-6.554 1.306-9.947 1.306-3.381 0-6.706-.457-9.921-1.301zm86.224-37.643c0 9.183-3.579 17.823-10.07 24.323-6.506 6.498-15.147 10.077-24.33 10.077-18.968 0-34.4-15.432-34.4-34.4 0-4.142-3.358-7.5-7.5-7.5s-7.5 3.358-7.5 7.5c0 9.183-3.579 17.823-10.07 24.323-6.506 6.498-15.147 10.077-24.33 10.077-18.968 0-34.4-15.432-34.4-34.4v-44.2c0-16.381 11.619-30.097 27.05-33.353 1.44 14.228 13.285 25.428 27.785 25.85v5.149c0 11.837 9.63 21.466 21.466 21.466s21.466-9.63 21.466-21.466v-5.149c14.501-.422 26.346-11.623 27.785-25.851 15.429 3.254 27.047 16.971 27.047 33.354v44.2zm14.978.933c.006-.311.023-.62.023-.932v-44.2c0-25.629-19.745-46.72-44.82-48.893-3.786-7.727-10.934-13.512-19.525-15.451v-106.757h23.151c3.599 0 7.195.285 10.744.835.352 1.793.832 3.571 1.454 5.32l26.421 74.232c4.373 12.276 14.573 21.314 27.285 24.175 1.173.264 2.349.458 3.524.61v55.144c0 22.368-10.73 43.002-28.257 55.917z"/><ellipse cx="195.485" cy="138.543" rx="12.096" ry="19.412"/><path d="m316.528 119.131c-6.67 0-12.096 8.708-12.096 19.412s5.426 19.412 12.096 19.412 12.097-8.708 12.097-19.412-5.427-19.412-12.097-19.412z"/></g></svg>