<?xml version="1.0" encoding="iso-8859-1"?>
<!-- Generator: Adobe Illustrator 19.0.0, SVG Export Plug-In . SVG Version: 6.00 Build 0)  -->
<svg version="1.1" id="Capa_1" xmlns="http://www.w3.org/2000/svg" xmlns:xlink="http://www.w3.org/1999/xlink" x="0px" y="0px"
	 viewBox="0 0 512 512" style="enable-background:new 0 0 512 512;" xml:space="preserve">
<g>
	<g>
		<path d="M472.423,96.188h-112.72V23.546C359.703,10.563,349.14,0,336.157,0H175.843c-12.983,0-23.546,10.563-23.546,23.546v72.642
			H39.577C17.755,96.188,0,113.943,0,135.765v336.658C0,494.245,17.755,512,39.577,512h340.332c4.15,0,7.515-3.365,7.515-7.515
			c0-4.15-3.365-7.515-7.515-7.515H39.577c-13.535,0-24.548-11.013-24.548-24.548V271.53h73.143v24.548
			c0,4.15,3.365,7.515,7.515,7.515h64.125c4.15,0,7.515-3.365,7.515-7.515V271.53h177.346v24.548c0,4.15,3.365,7.515,7.515,7.515
			h64.125c4.15,0,7.515-3.365,7.515-7.515V271.53h73.143v200.892c0,13.535-11.013,24.548-24.548,24.548h-55.776
			c-4.15,0-7.515,3.365-7.515,7.515c0,4.15,3.365,7.515,7.515,7.515h55.776C494.245,512,512,494.245,512,472.423V135.765
			C512,113.943,494.245,96.188,472.423,96.188z M167.327,23.546c0-4.696,3.82-8.517,8.517-8.517h160.313
			c4.696,0,8.517,3.82,8.517,8.517v24.548H167.327V23.546z M167.327,63.123h177.346v33.065H167.327V63.123z M152.297,288.564
			h-49.096V271.53h49.096V288.564z M408.798,288.564h-49.096V271.53h49.096V288.564z M496.971,256.501H15.029V135.765
			c0-13.535,11.013-24.548,24.548-24.548h432.845c13.535,0,24.548,11.013,24.548,24.548V256.501z"/>
	</g>
</g>
<g>
	<g>
		<path d="M304.094,160.313h-24.548v-24.548c0-4.15-3.365-7.515-7.515-7.515h-32.063c-4.15,0-7.515,3.365-7.515,7.515v24.548
			h-24.548c-4.15,0-7.515,3.365-7.515,7.515v32.063c0,4.15,3.365,7.515,7.515,7.515h24.548v24.548c0,4.15,3.365,7.515,7.515,7.515
			h32.063c4.15,0,7.515-3.365,7.515-7.515v-24.548h24.548c4.15,0,7.515-3.365,7.515-7.515v-32.063
			C311.609,163.678,308.244,160.313,304.094,160.313z M296.579,192.376h-24.548c-4.15,0-7.515,3.365-7.515,7.515v24.548h-17.033
			V199.89c0-4.15-3.365-7.515-7.515-7.515h-24.548v-17.033h24.548c4.15,0,7.515-3.365,7.515-7.515V143.28h17.033v24.548
			c0,4.15,3.365,7.515,7.515,7.515h24.548V192.376z"/>
	</g>
</g>
<g>
	<g>
		<path d="M256,364.712c-33.977,0-61.62,27.643-61.62,61.62c0,31.056,23.036,49.597,61.62,49.597s61.62-18.541,61.62-49.597
			C317.62,392.355,289.977,364.712,256,364.712z M256,460.9c-17.4,0-46.591-4.491-46.591-34.568
			c0-25.69,20.901-46.591,46.591-46.591s46.591,20.901,46.591,46.591C302.591,456.409,273.4,460.9,256,460.9z"/>
	</g>
</g>
<g>
	<g>
		<path d="M225.941,304.595c-15.36,0-25.55,18.996-25.55,31.562c0,14.089,11.461,25.55,25.55,25.55s25.55-11.461,25.55-25.55
			C251.491,323.591,241.301,304.595,225.941,304.595z M225.941,346.677c-5.801,0-10.521-4.719-10.521-10.521
			c0-7.107,5.998-16.532,10.521-16.532s10.521,9.425,10.521,16.532C236.462,341.958,231.743,346.677,225.941,346.677z"/>
	</g>
</g>
<g>
	<g>
		<path d="M286.059,304.595c-15.36,0-25.55,18.996-25.55,31.562c0,14.089,11.461,25.55,25.55,25.55s25.55-11.461,25.55-25.55
			C311.609,323.591,301.419,304.595,286.059,304.595z M286.059,346.677c-5.801,0-10.521-4.719-10.521-10.521
			c0-7.107,5.998-16.532,10.521-16.532s10.521,9.425,10.521,16.532C296.579,341.958,291.86,346.677,286.059,346.677z"/>
	</g>
</g>
<g>
	<g>
		<path d="M334.153,340.665c-15.36,0-25.55,18.996-25.55,31.562c0,14.089,11.461,25.55,25.55,25.55s25.55-11.461,25.55-25.55
			C359.703,359.661,349.513,340.665,334.153,340.665z M334.153,382.748c-5.801,0-10.521-4.719-10.521-10.521
			c0-7.107,5.998-16.532,10.521-16.532s10.521,9.425,10.521,16.532C344.673,378.028,339.954,382.748,334.153,382.748z"/>
	</g>
</g>
<g>
	<g>
		<path d="M177.847,340.665c-15.36,0-25.55,18.996-25.55,31.562c0,14.089,11.461,25.55,25.55,25.55s25.55-11.461,25.55-25.55
			C203.397,359.661,193.207,340.665,177.847,340.665z M177.847,382.748c-5.801,0-10.521-4.719-10.521-10.521
			c0-7.107,5.998-16.532,10.521-16.532s10.521,9.425,10.521,16.532C188.368,378.028,183.649,382.748,177.847,382.748z"/>
	</g>
</g>
<g>
</g>
<g>
</g>
<g>
</g>
<g>
</g>
<g>
</g>
<g>
</g>
<g>
</g>
<g>
</g>
<g>
</g>
<g>
</g>
<g>
</g>
<g>
</g>
<g>
</g>
<g>
</g>
<g>
</g>
</svg>
