<?xml version="1.0" standalone="no"?>
<!DOCTYPE svg PUBLIC "-//W3C//DTD SVG 20010904//EN"
 "http://www.w3.org/TR/2001/REC-SVG-20010904/DTD/svg10.dtd">
<svg version="1.0" xmlns="http://www.w3.org/2000/svg"
 width="346.000000pt" height="353.000000pt" viewBox="0 0 346.000000 353.000000"
 preserveAspectRatio="xMidYMid meet">
<metadata>
Created by potrace 1.16, written by Peter Selinger 2001-2019
</metadata>
<g transform="translate(0.000000,353.000000) scale(0.100000,-0.100000)"
fill="#000000" stroke="none">
<path d="M592 3462 c-19 -19 -62 -159 -62 -199 0 -28 23 -45 57 -41 22 2 30
11 40 38 l11 35 21 -48 c37 -86 77 -272 63 -293 -16 -23 -58 -44 -89 -44 l-33
0 0 63 c0 79 -13 100 -60 95 l-35 -3 -5 -95 c-5 -92 -6 -97 -47 -156 -67 -98
-177 -295 -223 -401 -93 -211 -143 -393 -167 -603 -29 -254 8 -484 111 -690
38 -75 100 -170 135 -207 31 -33 65 -29 95 10 l26 32 32 -40 c244 -301 608
-524 1014 -620 l101 -24 97 25 c195 49 426 148 600 258 48 31 90 56 92 56 4 0
-3 -63 -12 -106 -2 -12 -17 -27 -34 -34 -65 -27 -120 -120 -120 -202 0 -56 46
-136 98 -169 92 -59 170 -52 273 23 14 9 23 7 48 -15 68 -57 170 -59 255 -6
l49 30 26 -25 c43 -41 72 -46 275 -46 174 0 195 2 209 18 21 23 22 46 1 66
-12 13 -39 16 -130 16 l-114 0 0 50 0 50 110 0 c97 0 112 2 130 20 23 23 24
33 10 61 -10 17 -22 19 -130 19 l-120 0 0 49 c0 59 4 61 142 61 86 0 99 2 108
19 14 28 13 38 -10 61 -18 18 -33 20 -130 20 l-110 0 0 50 0 50 120 0 c118 0
121 0 132 25 9 19 8 29 -6 50 -16 24 -19 25 -131 25 l-115 0 0 50 0 50 113 0
c102 0 116 2 133 21 17 19 17 23 3 47 -15 27 -16 27 -132 30 l-117 3 0 49 0
50 115 0 c111 0 115 1 131 25 15 23 15 27 0 50 -16 24 -20 25 -131 25 l-115 0
0 50 0 50 106 0 c135 0 166 16 144 75 -9 24 -12 24 -127 27 l-118 3 -3 53 -3
52 121 0 c116 0 121 1 129 23 5 12 6 29 3 37 -11 33 -35 40 -144 40 l-108 0 0
50 0 50 113 0 c122 0 137 6 137 50 0 44 -15 50 -137 50 l-113 0 0 50 0 50 113
0 c75 0 117 4 125 12 16 16 15 63 -1 77 -8 6 -80 12 -187 13 l-174 3 -9 35
c-70 265 -183 518 -340 758 l-61 93 3 107 c3 152 -22 307 -71 439 -26 72 -47
76 -141 30 -128 -63 -266 -198 -360 -350 -22 -36 -34 -46 -46 -42 -290 119
-572 123 -884 16 l-58 -20 -36 57 c-95 150 -224 274 -350 338 -78 39 -96 41
-121 16z m1793 -232 c-28 -82 -55 -214 -55 -269 0 -76 98 -151 197 -151 l51 0
61 -94 c129 -199 243 -448 302 -655 l29 -105 -32 -33 -33 -34 -3 -135 c-4
-145 1 -164 44 -164 42 0 54 34 54 152 0 99 2 108 22 122 12 9 33 16 45 16
l23 0 0 -860 0 -860 -25 0 c-14 0 -34 9 -45 20 -20 20 -20 33 -20 591 0 374
-4 577 -10 590 -12 22 -59 26 -78 7 -8 -8 -12 -48 -12 -115 0 -121 -6 -136
-84 -212 -65 -64 -58 -75 -81 134 -33 291 -85 731 -90 752 -13 55 -79 51 -95
-6 -5 -20 -41 -277 -80 -571 -39 -294 -73 -550 -77 -568 -5 -28 -19 -42 -92
-91 -166 -112 -354 -205 -523 -261 -177 -58 -192 -60 -294 -34 -221 56 -455
161 -623 282 -117 83 -270 231 -345 335 -70 95 -92 100 -143 34 l-21 -28 -32
46 c-51 74 -109 208 -136 313 -96 371 28 874 328 1340 l60 92 55 0 c69 0 111
20 163 77 l42 44 -7 62 c-9 79 -29 171 -55 243 -11 32 -17 60 -15 63 12 11
150 -140 205 -224 32 -49 70 -102 83 -117 l25 -27 95 34 c302 108 559 109 820
5 116 -47 121 -46 168 36 50 88 144 208 202 258 28 24 53 43 54 42 2 -1 -8
-36 -22 -76z m159 -49 c9 -52 16 -134 16 -183 l0 -88 -32 0 c-46 0 -98 34 -98
62 1 69 76 327 91 311 4 -5 14 -50 23 -102z m96 -2048 c22 -188 40 -345 40
-349 0 -4 -10 6 -22 22 -32 41 -37 44 -95 44 -44 0 -53 3 -53 18 0 9 18 150
40 312 22 162 40 302 41 310 1 13 2 13 5 0 2 -8 22 -169 44 -357z m260 -422
l0 -270 -42 24 -43 24 -22 183 -21 183 61 63 c34 34 63 62 64 62 2 0 3 -121 3
-269z m-257 -58 c86 -124 89 -150 18 -182 -27 -12 -55 -28 -61 -37 -11 -12
-17 -11 -44 9 -17 13 -46 29 -63 36 -38 16 -38 15 -18 156 8 55 15 103 15 108
0 4 19 7 43 7 42 0 42 0 110 -97z m-147 -297 c29 -29 34 -41 34 -80 0 -36 -6
-52 -27 -76 -90 -99 -249 11 -188 130 21 42 53 60 103 60 37 0 50 -6 78 -34z
m320 18 c76 -50 68 -161 -14 -200 -107 -51 -206 64 -144 168 8 14 25 31 36 37
33 15 94 13 122 -5z"/>
<path d="M1115 2027 c-82 -32 -134 -85 -165 -165 -19 -49 -1 -84 42 -80 27 3
36 11 60 59 48 94 138 124 237 79 54 -25 78 -25 91 -1 22 43 13 61 -47 89 -66
30 -169 39 -218 19z"/>
<path d="M1862 2029 c-61 -18 -97 -44 -100 -73 -4 -32 13 -56 38 -56 10 0 37
9 61 20 105 47 192 14 244 -94 16 -34 26 -42 52 -44 105 -10 25 175 -102 234
-53 25 -132 30 -193 13z"/>
<path d="M1450 1705 c-143 -28 -258 -93 -363 -205 -149 -157 -190 -348 -112
-517 52 -115 144 -196 264 -233 121 -38 223 -22 303 48 l35 31 24 -26 c115
-124 382 -82 512 81 65 83 90 147 95 252 5 112 -11 174 -69 264 -152 239 -422
358 -689 305z m244 -105 c110 -28 209 -83 287 -160 137 -134 169 -282 94 -429
-54 -107 -152 -171 -270 -178 -81 -5 -121 13 -155 69 l-19 32 23 26 c12 14 50
73 84 132 76 132 81 171 29 223 -68 68 -222 84 -336 35 -45 -20 -57 -31 -73
-67 -12 -27 -17 -52 -12 -66 11 -35 124 -230 150 -258 l24 -25 -22 -34 c-61
-89 -202 -93 -324 -9 -88 60 -152 201 -139 304 21 175 200 348 417 405 94 24
147 25 242 0z m-42 -332 c22 -6 42 -18 45 -25 6 -17 -107 -213 -123 -213 -20
0 -134 207 -121 218 39 31 133 40 199 20z"/>
</g>
</svg>
