<svg height="512pt" viewBox="-40 0 512 512.001" width="512pt" xmlns="http://www.w3.org/2000/svg"><path d="m255.933594 173.5625c0-44.277344-36.023438-80.300781-80.300782-80.300781-44.277343 0-80.300781 36.023437-80.300781 80.300781 0 44.28125 36.023438 80.304688 80.300781 80.304688 44.277344 0 80.300782-36.023438 80.300782-80.304688zm-80.300782 50.296875c-27.734374 0-50.296874-22.5625-50.296874-50.296875s22.5625-50.296875 50.296874-50.296875c27.730469 0 50.296876 22.5625 50.296876 50.296875s-22.5625 50.296875-50.296876 50.296875zm0 0"/><path d="m319.441406 278.523438 10.714844-19.375.070312-.132813c13.765626-25.476563 21.039063-54.3125 21.039063-83.382813 0-96.84375-78.789063-175.632812-175.632813-175.632812-96.847656 0-175.632812 78.789062-175.632812 175.632812 0 29.078126 7.292969 57.9375 21.089844 83.464844l132.625 239.871094c4.402344 7.972656 12.800781 12.925781 21.917968 12.925781 9.117188 0 17.515626-4.953125 21.914063-12.917969l20.949219-37.886718c21.0625 30.714844 56.40625 50.910156 96.378906 50.910156 64.398438 0 116.789062-52.390625 116.789062-116.785156 0-62.871094-49.933593-114.285156-112.222656-116.691406zm-116.757812 149.148437-27.050782 48.925781-128.179687-231.820312c-11.414063-21.148438-17.449219-45.054688-17.449219-69.144532 0-80.300781 65.328125-145.628906 145.628906-145.628906 80.296876 0 145.625 65.328125 145.625 145.628906 0 24.085938-6.015624 47.964844-17.398437 69.0625l-21.140625 38.234376c-48.808594 14-84.628906 59.035156-84.628906 112.28125 0 11.261718 1.605468 22.152343 4.59375 32.460937zm112.191406 54.324219c-47.847656 0-86.78125-38.929688-86.78125-86.78125 0-47.855469 38.933594-86.785156 86.78125-86.785156 47.855469 0 86.785156 38.929687 86.785156 86.785156 0 47.851562-38.929687 86.78125-86.785156 86.78125zm0 0"/><path d="m342.398438 359.1875-40.230469 40.226562-14.8125-14.808593c-5.855469-5.859375-15.355469-5.859375-21.214844 0s-5.859375 15.355469 0 21.214843l25.417969 25.421876c2.929687 2.929687 6.769531 4.394531 10.609375 4.394531 3.066406 0 6.128906-.953125 8.730469-2.824219.65625-.46875 1.289062-.984375 1.875-1.570312.003906-.003907.003906-.003907.003906-.003907l50.835937-50.835937c5.859375-5.859375 5.859375-15.355469 0-21.214844-5.859375-5.863281-15.359375-5.863281-21.214843 0zm0 0"/></svg>