<?xml version="1.0" encoding="iso-8859-1"?>
<!-- Generator: Adobe Illustrator 19.0.0, SVG Export Plug-In . SVG Version: 6.00 Build 0)  -->
<svg version="1.1" id="Capa_1" xmlns="http://www.w3.org/2000/svg" xmlns:xlink="http://www.w3.org/1999/xlink" x="0px" y="0px"
	 viewBox="0 0 512.004 512.004" style="enable-background:new 0 0 512.004 512.004;" xml:space="preserve">
<g>
	<g>
		<path d="M510.853,347.729c-0.343-2.215-0.732-4.726-1.101-7.552l-13.854-106.322c-1.329-18.646-6.084-33.967-14.539-46.819
			c-10.771-16.37-27.576-28.575-50.003-36.331c-11.27-37.715-45.286-63.578-84.603-63.578c-21.617,0-42.031,7.948-58.741,22.644
			c-16.016-27.736-43.054-43.886-74.654-43.886c-34.258,0-63.932,19.442-74.681,47.563c-3.708-0.786-7.559-1.18-11.527-1.18
			c-18.189,0-37.554,8.599-51.802,23.002c-12.73,12.87-20.37,29.093-21.949,46.316c-18.961,7.158-31.191,21.467-31.11,37.173
			l0.034,6.422l-9.988,52.181c-0.005,0.022-0.009,0.043-0.013,0.065L1.88,331.981c-2.473,12.916-3.056,22.751,1.668,31.862
			c4.087,7.882,11.149,13.358,21.837,21.647l2.152,1.671c26.425,20.531,62.331,36.098,106.729,46.264
			c36.428,8.342,77.803,12.692,120.349,12.692c4.012,0,8.037-0.039,12.068-0.117c95.208-1.835,182.488-24.82,227.777-59.985
			C512.839,371.746,513.523,364.971,510.853,347.729z M65.628,198.675c4.448-1.158,7.535-5.197,7.484-9.793
			c-0.159-14.598,5.69-28.641,16.469-39.539c10.568-10.685,24.614-17.063,37.573-17.063c5.104,0,9.822,0.995,14.028,2.956
			c2.793,1.302,6.027,1.246,8.773-0.153c2.745-1.399,4.692-3.983,5.279-7.007c5.378-27.691,33.312-42.179,58.128-42.179
			c27.913,0,51.304,16.712,62.573,44.705c1.308,3.249,4.22,5.577,7.677,6.14c3.46,0.563,6.955-0.724,9.227-3.392
			c14.382-16.902,33.531-26.211,53.918-26.211c31.865,0,59.246,22.069,66.588,53.667c0.81,3.486,3.42,6.275,6.846,7.313
			c44.128,13.364,53.308,40.711,55.5,64.073c-11.511,15.609-37.557,31.833-70.67,43.882
			c-29.598,10.771-79.224,23.608-147.551,23.608c-123.162,0-210.364-38.281-215.125-74.217l-0.036-6.81
			C42.265,210.737,52.291,202.148,65.628,198.675z M491.848,360.938c-0.969,2.523-7.281,7.426-9.659,9.272
			c-45.85,35.601-136.782,55.994-227.73,55.991c-82.946-0.002-165.908-16.97-214.635-54.841l-2.17-1.684
			c-19.318-14.98-19.687-15.266-16.114-33.933l7.151-37.361c12.134,9.474,26.386,17.731,43.163,25.008
			c1.297,0.563,2.648,0.83,3.977,0.83c3.865,0,7.548-2.253,9.185-6.027c2.199-5.069-0.128-10.963-5.197-13.161
			c-19.15-8.307-34.511-17.891-46.811-29.196l3.628-18.956c12.77,14.497,33.681,27.441,61.647,37.831
			c43.362,16.111,99.894,24.983,159.185,24.983c71.243,0,123.283-13.494,154.394-24.814c27.99-10.184,51.22-23.123,66.986-37.008
			l11.062,84.89c0.4,3.064,0.807,5.701,1.168,8.027C491.856,355.82,492.418,359.453,491.848,360.938z"/>
	</g>
</g>
<g>
	<g>
		<path d="M106.878,315.159c-0.181-0.056-0.376-0.111-0.556-0.156c-5.357-1.34-10.794,1.919-12.134,7.28
			c-1.308,5.231,1.763,10.529,6.893,12.028c0.948,0.281,1.905,0.415,2.848,0.415c4.305,0,8.279-2.799,9.58-7.133
			C115.088,322.327,112.123,316.778,106.878,315.159z"/>
	</g>
</g>
<g>
	<g>
		<path d="M398.724,164.205c-4.331-18.643-17.482-33.331-35.175-39.29c-2.698-0.909-5.455-1.606-8.197-2.072
			c-1.041-0.177-2.099-0.324-3.147-0.437c-5.495-0.585-10.428,3.382-11.021,8.876c-0.593,5.494,3.38,10.428,8.875,11.021
			c0.643,0.069,1.295,0.16,1.935,0.269c1.715,0.292,3.453,0.731,5.165,1.309c11.237,3.783,19.281,12.842,22.071,24.852
			c1.073,4.622,5.189,7.744,9.738,7.744c0.749,0,1.512-0.085,2.272-0.261C396.624,174.964,399.974,169.587,398.724,164.205z"/>
	</g>
</g>
<g>
	<g>
		<path d="M332.288,133.684c-2.955-4.669-9.136-6.06-13.806-3.105l-0.326,0.21c-4.606,3.022-5.872,9.179-2.87,13.797
			c1.913,2.944,5.125,4.542,8.403,4.542c1.864,0,3.751-0.517,5.432-1.599l0.063-0.04
			C333.854,144.535,335.244,138.353,332.288,133.684z"/>
	</g>
</g>
<g>
	<g>
		<path d="M133.646,189.535c-16.552,0-30.018,13.466-30.018,30.018c0,16.552,13.466,30.018,30.018,30.018
			c16.552,0,30.018-13.466,30.018-30.018C163.664,203.001,150.198,189.535,133.646,189.535z M133.646,229.56
			c-5.517,0-10.006-4.489-10.006-10.006c0-5.517,4.49-10.006,10.006-10.006c5.517,0,10.006,4.489,10.006,10.006
			C143.652,225.071,139.163,229.56,133.646,229.56z"/>
	</g>
</g>
<g>
	<g>
		<path d="M331.473,191.446c-19.324,0-35.044,15.722-35.044,35.045c0,19.324,15.722,35.045,35.044,35.045
			c19.325,0,35.045-15.722,35.045-35.045C366.518,207.167,350.796,191.446,331.473,191.446z M331.473,241.525
			c-8.289,0-15.032-6.744-15.032-15.033c0-8.289,6.743-15.033,15.032-15.033s15.033,6.744,15.033,15.033
			S339.762,241.525,331.473,241.525z"/>
	</g>
</g>
<g>
	<g>
		<path d="M230.345,130.457c-16.552,0-30.018,13.466-30.018,30.018c0,16.552,13.466,30.018,30.018,30.018
			s30.018-13.466,30.018-30.018C260.363,143.923,246.897,130.457,230.345,130.457z M230.345,170.482
			c-5.517,0-10.006-4.489-10.006-10.006c0-5.517,4.489-10.006,10.006-10.006c5.517,0,10.006,4.489,10.006,10.006
			C240.351,165.993,235.862,170.482,230.345,170.482z"/>
	</g>
</g>
<g>
</g>
<g>
</g>
<g>
</g>
<g>
</g>
<g>
</g>
<g>
</g>
<g>
</g>
<g>
</g>
<g>
</g>
<g>
</g>
<g>
</g>
<g>
</g>
<g>
</g>
<g>
</g>
<g>
</g>
</svg>
