<?xml version="1.0" encoding="iso-8859-1"?>
<!-- Generator: Adobe Illustrator 18.0.0, SVG Export Plug-In . SVG Version: 6.00 Build 0)  -->
<!DOCTYPE svg PUBLIC "-//W3C//DTD SVG 1.1//EN" "http://www.w3.org/Graphics/SVG/1.1/DTD/svg11.dtd">
<svg version="1.1" id="Capa_1" xmlns="http://www.w3.org/2000/svg" xmlns:xlink="http://www.w3.org/1999/xlink" x="0px" y="0px"
	 viewBox="0 0 488.45 488.45" style="enable-background:new 0 0 488.45 488.45;" xml:space="preserve">
<g>
	<path d="M479.95,128.446c-4.694,0-8.5,3.806-8.5,8.5v121.387c0,2.791-2.271,5.063-5.062,5.063l-233.49,0.001
		c-2.791,0-5.062-2.272-5.062-5.064V136.946c0-4.694-3.806-8.5-8.5-8.5c-4.694,0-8.5,3.806-8.5,8.5v121.387
		c0,12.166,9.897,22.064,22.062,22.064h108.245v25.061h-2.976c-16.192,0-29.366,13.174-29.366,29.366v121.021
		c0,16.192,13.173,29.366,29.366,29.366h22.953c16.192,0,29.366-13.174,29.366-29.366V334.824c0-16.192-13.173-29.366-29.366-29.366
		h-2.977v-25.061l108.245-0.001c12.165,0,22.062-9.897,22.062-22.063V136.946C488.45,132.251,484.645,128.446,479.95,128.446z
		 M373.485,334.824v121.021c0,6.818-5.547,12.366-12.366,12.366h-22.953c-6.818,0-12.366-5.548-12.366-12.366V334.824
		c0-6.818,5.547-12.366,12.366-12.366h22.953C367.938,322.457,373.485,328.005,373.485,334.824z"/>
	<path d="M294.331,218.007c4.694,0,8.5-3.806,8.5-8.5V138.98c0-4.694-3.806-8.5-8.5-8.5c-4.694,0-8.5,3.806-8.5,8.5v70.527
		C285.831,214.202,289.637,218.007,294.331,218.007z"/>
	<path d="M257.41,218.007c4.694,0,8.5-3.806,8.5-8.5V138.98c0-4.694-3.806-8.5-8.5-8.5s-8.5,3.806-8.5,8.5v70.527
		C248.91,214.202,252.715,218.007,257.41,218.007z"/>
	<path d="M368.172,218.007c4.694,0,8.5-3.806,8.5-8.5V138.98c0-4.694-3.806-8.5-8.5-8.5s-8.5,3.806-8.5,8.5v70.527
		C359.672,214.202,363.478,218.007,368.172,218.007z"/>
	<path d="M331.252,218.007c4.694,0,8.5-3.806,8.5-8.5V138.98c0-4.694-3.806-8.5-8.5-8.5c-4.694,0-8.5,3.806-8.5,8.5v70.527
		C322.752,214.202,326.558,218.007,331.252,218.007z"/>
	<path d="M442.015,218.007c4.694,0,8.5-3.806,8.5-8.5V138.98c0-4.694-3.806-8.5-8.5-8.5c-4.694,0-8.5,3.806-8.5,8.5v70.527
		C433.515,214.202,437.32,218.007,442.015,218.007z"/>
	<path d="M405.093,218.007c4.694,0,8.5-3.806,8.5-8.5V138.98c0-4.694-3.806-8.5-8.5-8.5s-8.5,3.806-8.5,8.5v70.527
		C396.593,214.202,400.399,218.007,405.093,218.007z"/>
	<path d="M231.561,345.177L145.623,181.8l25.525-55.596c0.579,0.017,1.158,0.034,1.735,0.034c0.001,0,0.002,0,0.004,0
		c14.499,0,28.604-5.188,39.716-14.606c11.234-9.523,18.68-22.79,20.967-37.357c2.548-16.227-1.376-32.473-11.049-45.748
		c-9.672-13.274-23.936-21.988-40.162-24.535c-3.177-0.499-6.409-0.752-9.603-0.752c-14.5,0-28.605,5.188-39.716,14.608
		c-6.771,5.74-12.154,12.848-15.873,20.773c-3.718-7.926-9.101-15.033-15.872-20.773C90.182,8.428,76.077,3.24,61.578,3.24
		c-3.194,0-6.426,0.253-9.603,0.752c-16.227,2.547-30.49,11.26-40.163,24.535C2.14,41.801-1.785,58.048,0.763,74.275
		c2.287,14.566,9.733,27.832,20.966,37.355c11.112,9.42,25.217,14.607,39.717,14.607c0.576,0,1.154-0.018,1.731-0.034l25.488,55.68
		L2.772,345.175c-0.12,0.228-0.23,0.463-0.329,0.701c-3.254,7.847-3.257,16.491-0.01,24.341c3.248,7.85,9.358,13.964,17.206,17.217
		c0.197,0.082,0.397,0.156,0.6,0.223l19.608,6.449c0.878,0.289,1.774,0.428,2.656,0.428c3.242,0,6.306-1.865,7.725-4.955
		l66.202-144.191l67.708,144.256c1.433,3.054,4.477,4.89,7.695,4.89c0.882,0,1.777-0.138,2.655-0.427l19.607-6.449
		c0.203-0.066,0.402-0.141,0.6-0.223c7.847-3.253,13.958-9.367,17.206-17.217c3.248-7.85,3.244-16.494-0.011-24.34
		C231.79,345.639,231.68,345.406,231.561,345.177z M128.869,57.838c3.42-21.786,21.877-37.599,43.887-37.599
		c2.314,0,4.658,0.184,6.967,0.547c11.74,1.843,22.061,8.146,29.059,17.752c6.999,9.604,9.838,21.359,7.995,33.1
		c-3.421,21.789-21.88,37.603-43.892,37.601c-2.314,0-4.657-0.184-6.96-0.545C141.688,104.888,125.065,82.074,128.869,57.838z
		 M117.166,127.703l-10.945-20.808c4.46-4.741,8.168-10.159,10.946-16.059c2.777,5.9,6.485,11.317,10.945,16.059L117.166,127.703z
		 M17.557,71.638c-1.843-11.74,0.997-23.495,7.995-33.101c6.998-9.605,17.319-15.909,29.06-17.751
		c2.308-0.362,4.652-0.547,6.966-0.547c22.01,0,40.466,15.813,43.887,37.599c3.804,24.236-12.818,47.049-37.054,50.854
		c-2.307,0.362-4.65,0.546-6.964,0.546C39.435,109.238,20.977,93.425,17.557,71.638z M80.508,123.22
		c4.315-1.399,8.391-3.262,12.194-5.508l14.859,28.249l-8.899,16.918L80.508,123.22z M37.945,375.585l-12.058-3.967
		c-3.526-1.539-6.271-4.336-7.746-7.901c-1.468-3.547-1.509-7.442-0.124-11.009L141.63,117.712c3.8,2.244,7.872,4.105,12.184,5.505
		L37.945,375.585z M216.191,363.717c-1.475,3.565-4.219,6.362-7.746,7.902l-12.118,3.985l-70.612-150.443l10.956-23.862
		l79.644,151.411C217.7,356.276,217.659,360.17,216.191,363.717z"/>
</g>
<g>
</g>
<g>
</g>
<g>
</g>
<g>
</g>
<g>
</g>
<g>
</g>
<g>
</g>
<g>
</g>
<g>
</g>
<g>
</g>
<g>
</g>
<g>
</g>
<g>
</g>
<g>
</g>
<g>
</g>
</svg>
