<svg id="Capa_1" enable-background="new 0 0 512 512" height="512" viewBox="0 0 512 512" width="512" xmlns="http://www.w3.org/2000/svg"><g><path d="m497 179.91h-35.461c-18.803-17.818-44.18-28.763-72.067-28.763-32.816 0-62.155 15.158-81.396 38.836-30.358-24.046-73.744-24.087-104.154 0-19.241-23.678-48.579-38.836-81.396-38.836-27.887 0-53.264 10.946-72.067 28.763h-35.459c-8.284 0-15 6.716-15 15s6.716 15 15 15h13.364c-6.84 13.919-10.69 29.562-10.69 46.09 0 57.816 47.037 104.853 104.853 104.853s104.853-47.037 104.853-104.853c0-14.111-2.809-27.577-7.885-39.877 20.571-18.904 52.411-18.93 73.011 0-5.077 12.3-7.885 25.766-7.885 39.877 0 57.816 47.037 104.853 104.853 104.853s104.853-47.037 104.853-104.853c0-16.528-3.849-32.171-10.69-46.09h13.363c8.284 0 15-6.716 15-15s-6.716-15-15-15zm-374.473 150.943c-41.274 0-74.853-33.579-74.853-74.853s33.579-74.853 74.853-74.853 74.853 33.579 74.853 74.853-33.579 74.853-74.853 74.853zm266.946 0c-41.274 0-74.853-33.579-74.853-74.853s33.579-74.853 74.853-74.853 74.853 33.579 74.853 74.853-33.579 74.853-74.853 74.853z"/></g></svg>