<?xml version="1.0" encoding="iso-8859-1"?>
<!-- Generator: Adobe Illustrator 19.0.0, SVG Export Plug-In . SVG Version: 6.00 Build 0)  -->
<svg version="1.1" id="Capa_1" xmlns="http://www.w3.org/2000/svg" xmlns:xlink="http://www.w3.org/1999/xlink" x="0px" y="0px"
	 viewBox="0 0 512 512" style="enable-background:new 0 0 512 512;" xml:space="preserve">
<g>
	<g>
		<path d="M448.376,416.814h-24.548v-36.07c0-4.151-3.365-7.515-7.515-7.515s-7.515,3.364-7.515,7.515v36.07H103.202V280.047
			c0-84.254,68.545-152.798,152.798-152.798s152.798,68.545,152.798,152.798v65.127c0,4.151,3.365,7.515,7.515,7.515
			s7.515-3.364,7.515-7.515v-65.127c0-92.54-75.287-167.828-167.828-167.828S88.172,187.507,88.172,280.047v136.767H63.624
			c-17.403,0-31.562,14.159-31.562,31.562v40.078c0,4.151,3.365,7.515,7.515,7.515h432.845c4.15,0,7.515-3.364,7.515-7.515v-40.078
			C479.937,430.973,465.779,416.814,448.376,416.814z M464.908,480.939H47.092v-32.564c0-9.116,7.417-16.532,16.532-16.532h384.751
			c9.116,0,16.532,7.417,16.532,16.532V480.939z"/>
	</g>
</g>
<g>
	<g>
		<path d="M256,244.477c-33.977,0-61.62,27.643-61.62,61.62c0,31.056,23.036,49.597,61.62,49.597s61.62-18.541,61.62-49.597
			C317.62,272.12,289.977,244.477,256,244.477z M256,340.665c-17.4,0-46.591-4.491-46.591-34.568
			c0-25.691,20.901-46.591,46.591-46.591s46.591,20.9,46.591,46.591C302.591,336.175,273.4,340.665,256,340.665z"/>
	</g>
</g>
<g>
	<g>
		<path d="M225.941,184.36c-15.36,0-25.55,18.997-25.55,31.562c0,14.089,11.461,25.55,25.55,25.55s25.55-11.461,25.55-25.55
			C251.491,203.357,241.301,184.36,225.941,184.36z M225.941,226.442c-5.801,0-10.521-4.719-10.521-10.521
			c0-7.108,5.998-16.532,10.521-16.532s10.521,9.424,10.521,16.532C236.462,221.723,231.743,226.442,225.941,226.442z"/>
	</g>
</g>
<g>
	<g>
		<path d="M286.059,184.36c-15.36,0-25.55,18.997-25.55,31.562c0,14.089,11.461,25.55,25.55,25.55s25.55-11.461,25.55-25.55
			C311.609,203.357,301.419,184.36,286.059,184.36z M286.059,226.442c-5.801,0-10.521-4.719-10.521-10.521
			c0-7.108,5.998-16.532,10.521-16.532s10.521,9.424,10.521,16.532C296.579,221.723,291.86,226.442,286.059,226.442z"/>
	</g>
</g>
<g>
	<g>
		<path d="M334.153,220.431c-15.36,0-25.55,18.997-25.55,31.562c0,14.089,11.461,25.55,25.55,25.55s25.55-11.461,25.55-25.55
			C359.703,239.428,349.513,220.431,334.153,220.431z M334.153,262.513c-5.801,0-10.521-4.719-10.521-10.521
			c0-7.108,5.998-16.532,10.521-16.532s10.521,9.424,10.521,16.532C344.673,257.794,339.954,262.513,334.153,262.513z"/>
	</g>
</g>
<g>
	<g>
		<path d="M177.847,220.431c-15.36,0-25.55,18.997-25.55,31.562c0,14.089,11.461,25.55,25.55,25.55s25.55-11.461,25.55-25.55
			C203.397,239.428,193.207,220.431,177.847,220.431z M177.847,262.513c-5.801,0-10.521-4.719-10.521-10.521
			c0-7.108,5.998-16.532,10.521-16.532s10.521,9.424,10.521,16.532C188.368,257.794,183.649,262.513,177.847,262.513z"/>
	</g>
</g>
<g>
	<g>
		<path d="M272.031,292.571h-8.517v-8.517c0-4.151-3.365-7.515-7.515-7.515s-7.515,3.364-7.515,7.515v8.517h-8.517
			c-4.15,0-7.515,3.364-7.515,7.515s3.365,7.515,7.515,7.515h8.517v8.517c0,4.151,3.365,7.515,7.515,7.515s7.515-3.364,7.515-7.515
			v-8.517h8.517c4.15,0,7.515-3.364,7.515-7.515S276.181,292.571,272.031,292.571z"/>
	</g>
</g>
<g>
	<g>
		<path d="M492.513,174.065c-1.588-3.835-5.985-5.654-9.818-4.067l-29.622,12.27c-3.162,1.31-5.078,4.709-4.551,8.093
			c0.563,3.618,3.767,6.366,7.43,6.366c0.959,0,1.933-0.185,2.873-0.574l29.622-12.27
			C492.28,182.295,494.101,177.899,492.513,174.065z"/>
	</g>
</g>
<g>
	<g>
		<path d="M437.019,91.013c-2.934-2.934-7.692-2.934-10.627,0l-22.671,22.671c-4.629,4.628-1.259,12.828,5.313,12.828
			c1.923,0,3.846-0.733,5.313-2.2l22.671-22.671C439.953,98.705,439.953,93.948,437.019,91.013z"/>
	</g>
</g>
<g>
	<g>
		<path d="M353.967,35.518c-3.835-1.592-8.23,0.232-9.818,4.067l-12.271,29.622c-1.587,3.835,0.233,8.23,4.068,9.818
			c3.786,1.571,8.252-0.286,9.818-4.067l12.27-29.622C359.622,41.502,357.802,37.107,353.967,35.518z"/>
	</g>
</g>
<g>
	<g>
		<path d="M256,16.031c-4.15,0-7.515,3.364-7.515,7.515v32.063c0,4.151,3.365,7.515,7.515,7.515s7.515-3.364,7.515-7.515V23.546
			C263.515,19.395,260.15,16.031,256,16.031z"/>
	</g>
</g>
<g>
	<g>
		<path d="M180.121,69.208l-12.27-29.622c-1.588-3.834-5.984-5.654-9.818-4.067c-3.834,1.588-5.655,5.984-4.067,9.818l12.27,29.622
			c1.672,4.037,6.582,5.801,10.451,3.768C180.078,76.946,181.585,72.742,180.121,69.208z"/>
	</g>
</g>
<g>
	<g>
		<path d="M108.279,113.682l-22.671-22.67c-2.935-2.934-7.693-2.934-10.627,0c-2.935,2.936-2.935,7.693,0,10.628l22.671,22.671
			c3.056,3.055,8.217,2.851,11.027-0.432C111.198,120.937,111.016,116.418,108.279,113.682z"/>
	</g>
</g>
<g>
	<g>
		<path d="M58.927,182.267l-29.622-12.27c-3.833-1.592-8.23,0.232-9.818,4.067c-1.588,3.836,0.232,8.23,4.067,9.818l29.622,12.27
			c4.042,1.678,8.76-0.562,10.055-4.725C64.368,187.77,62.461,183.731,58.927,182.267z"/>
	</g>
</g>
<g>
	<g>
		<path d="M39.577,264.517H7.515c-4.15,0-7.515,3.364-7.515,7.515s3.365,7.515,7.515,7.515h32.063c4.15,0,7.515-3.364,7.515-7.515
			S43.727,264.517,39.577,264.517z"/>
	</g>
</g>
<g>
	<g>
		<path d="M504.485,264.517h-32.063c-4.15,0-7.515,3.364-7.515,7.515s3.365,7.515,7.515,7.515h32.063
			c4.15,0,7.515-3.364,7.515-7.515S508.635,264.517,504.485,264.517z"/>
	</g>
</g>
<g>
</g>
<g>
</g>
<g>
</g>
<g>
</g>
<g>
</g>
<g>
</g>
<g>
</g>
<g>
</g>
<g>
</g>
<g>
</g>
<g>
</g>
<g>
</g>
<g>
</g>
<g>
</g>
<g>
</g>
</svg>
