<?xml version="1.0" encoding="iso-8859-1"?>
<!-- Generator: Adobe Illustrator 19.0.0, SVG Export Plug-In . SVG Version: 6.00 Build 0)  -->
<svg version="1.1" id="Capa_1" xmlns="http://www.w3.org/2000/svg" xmlns:xlink="http://www.w3.org/1999/xlink" x="0px" y="0px"
	 viewBox="0 0 512 512" style="enable-background:new 0 0 512 512;" xml:space="preserve">
<g>
	<g>
		<path d="M432.344,263.515c4.151,0,7.515-3.364,7.515-7.515V71.64c0-4.151-3.364-7.515-7.515-7.515H327.64v-8.517
			c0-4.151-3.364-7.515-7.515-7.515h-24.548v-8.517C295.577,17.755,277.823,0,256,0s-39.577,17.755-39.577,39.577v8.517h-24.548
			c-4.151,0-7.515,3.364-7.515,7.515v8.517H79.656c-4.151,0-7.515,3.364-7.515,7.515v432.845c0,4.151,3.364,7.515,7.515,7.515
			h352.689c4.151,0,7.515-3.364,7.515-7.515V291.569c0-4.151-3.364-7.515-7.515-7.515s-7.515,3.364-7.515,7.515v205.401H87.17
			V79.155h25.049v393.268c0,4.151,3.364,7.515,7.515,7.515h201.059c1.974,0,3.918-0.805,5.314-2.2l71.474-71.474
			c1.396-1.396,2.2-3.339,2.2-5.314V79.155h25.049V256C424.83,260.151,428.193,263.515,432.344,263.515z M199.389,63.123h24.548
			c4.151,0,7.515-3.364,7.515-7.515V39.577c0-13.536,11.012-24.548,24.548-24.548s24.548,11.011,24.548,24.548v16.031
			c0,4.151,3.364,7.515,7.515,7.515h24.548v25.049H199.389V63.123z M328.307,454.281v-45.817h45.818L328.307,454.281z
			 M384.751,393.434h-63.959c-4.151,0-7.515,3.364-7.515,7.515v63.959H127.249V79.155h57.112v16.532
			c0,4.151,3.364,7.515,7.515,7.515h128.25c4.151,0,7.515-3.364,7.515-7.515V79.155h57.112V393.434z"/>
	</g>
</g>
<g>
	<g>
		<circle cx="256" cy="40.078" r="7.515"/>
	</g>
</g>
<g>
	<g>
		<path d="M320.125,328.642h-128.25c-4.151,0-7.515,3.364-7.515,7.515s3.364,7.515,7.515,7.515h128.25
			c4.151,0,7.515-3.364,7.515-7.515S324.276,328.642,320.125,328.642z"/>
	</g>
</g>
<g>
	<g>
		<path d="M320.125,360.704h-128.25c-4.151,0-7.515,3.364-7.515,7.515s3.364,7.515,7.515,7.515h128.25
			c4.151,0,7.515-3.364,7.515-7.515S324.276,360.704,320.125,360.704z"/>
	</g>
</g>
<g>
	<g>
		<path d="M256,392.767h-64.125c-4.151,0-7.515,3.364-7.515,7.515s3.364,7.515,7.515,7.515H256c4.151,0,7.515-3.364,7.515-7.515
			S260.151,392.767,256,392.767z"/>
	</g>
</g>
<g>
	<g>
		<path d="M256,192.376c-33.977,0-61.62,27.643-61.62,61.62c0,31.056,23.035,49.597,61.62,49.597s61.62-18.541,61.62-49.597
			C317.62,220.019,289.977,192.376,256,192.376z M256,288.564c-17.4,0-46.591-4.491-46.591-34.568
			c0-25.691,20.9-46.591,46.591-46.591s46.591,20.9,46.591,46.591C302.591,284.073,273.4,288.564,256,288.564z"/>
	</g>
</g>
<g>
	<g>
		<path d="M225.941,132.258c-15.359,0-25.55,18.997-25.55,31.562c0,14.089,11.461,25.55,25.55,25.55s25.55-11.461,25.55-25.55
			C251.491,151.255,241.3,132.258,225.941,132.258z M225.941,174.341c-5.801,0-10.521-4.719-10.521-10.521
			c0-7.108,5.998-16.532,10.521-16.532s10.521,9.424,10.521,16.532C236.462,169.621,231.743,174.341,225.941,174.341z"/>
	</g>
</g>
<g>
	<g>
		<path d="M286.059,132.258c-15.359,0-25.55,18.997-25.55,31.562c0,14.089,11.461,25.55,25.55,25.55s25.55-11.461,25.55-25.55
			C311.609,151.255,301.418,132.258,286.059,132.258z M286.059,174.341c-5.801,0-10.521-4.719-10.521-10.521
			c0-7.108,5.998-16.532,10.521-16.532s10.521,9.424,10.521,16.532C296.579,169.621,291.86,174.341,286.059,174.341z"/>
	</g>
</g>
<g>
	<g>
		<path d="M334.153,168.329c-15.359,0-25.55,18.997-25.55,31.562c0,14.089,11.461,25.55,25.55,25.55s25.55-11.461,25.55-25.55
			C359.703,187.326,349.512,168.329,334.153,168.329z M334.153,210.411c-5.801,0-10.521-4.719-10.521-10.521
			c0-7.108,5.998-16.532,10.521-16.532s10.521,9.424,10.521,16.532C344.673,205.692,339.954,210.411,334.153,210.411z"/>
	</g>
</g>
<g>
	<g>
		<path d="M177.847,168.329c-15.359,0-25.55,18.997-25.55,31.562c0,14.089,11.461,25.55,25.55,25.55s25.55-11.461,25.55-25.55
			C203.397,187.326,193.206,168.329,177.847,168.329z M177.847,210.411c-5.801,0-10.521-4.719-10.521-10.521
			c0-7.108,5.998-16.532,10.521-16.532s10.521,9.424,10.521,16.532C188.368,205.692,183.649,210.411,177.847,210.411z"/>
	</g>
</g>
<g>
	<g>
		<path d="M272.031,240.47h-8.517v-8.517c0-4.151-3.364-7.515-7.515-7.515s-7.515,3.364-7.515,7.515v8.517h-8.517
			c-4.151,0-7.515,3.364-7.515,7.515c0,4.151,3.364,7.515,7.515,7.515h8.517v8.517c0,4.151,3.364,7.515,7.515,7.515
			s7.515-3.364,7.515-7.515v-8.517h8.517c4.151,0,7.515-3.364,7.515-7.515C279.546,243.833,276.182,240.47,272.031,240.47z"/>
	</g>
</g>
<g>
</g>
<g>
</g>
<g>
</g>
<g>
</g>
<g>
</g>
<g>
</g>
<g>
</g>
<g>
</g>
<g>
</g>
<g>
</g>
<g>
</g>
<g>
</g>
<g>
</g>
<g>
</g>
<g>
</g>
</svg>
